<svg xmlns="http://www.w3.org/2000/svg" width="122.563" height="110" viewBox="0 0 122.563 110">
  <g id="Icon_3" data-name="Icon 3" transform="translate(127.652 -200.116)">
    <circle id="Ellipse_2816" data-name="Ellipse 2816" cx="55" cy="55" r="55" transform="translate(-127.652 200.116)" fill="#fff"/>
    <rect id="Rectangle_6301" data-name="Rectangle 6301" width="1.663" height="1.663" transform="translate(-6.877 231.993)" fill="#f8f8f8" stroke="#f8f8f8" stroke-width="0.25"/>
    <rect id="Rectangle_6303" data-name="Rectangle 6303" width="1.663" height="1.663" transform="translate(-14.286 222.304)" fill="#f8f8f8" stroke="#f8f8f8" stroke-width="0.25"/>
    <g id="Icon_ionic-md-add-circle-outline" data-name="Icon ionic-md-add-circle-outline" transform="translate(-126.058 213.15)">
      <g id="Path_14193" data-name="Path 14193" transform="translate(-3.375 -3.375)" fill="none">
        <path d="M17.609,3.375A14.234,14.234,0,1,0,31.844,17.609,14.232,14.232,0,0,0,17.609,3.375Z" stroke="none"/>
        <path d="M 17.60932922363281 5.375 C 14.34059906005859 5.375 11.26806831359863 6.647369384765625 8.957719802856445 8.957719802856445 C 6.647369384765625 11.26806831359863 5.375 14.34059906005859 5.375 17.60932922363281 C 5.375 20.87805938720703 6.647369384765625 23.95058822631836 8.957719802856445 26.26094055175781 C 11.26806831359863 28.5712890625 14.34059906005859 29.84365844726563 17.60932922363281 29.84365844726563 C 20.87805938720703 29.84365844726563 23.95058822631836 28.5712890625 26.26094055175781 26.26094055175781 C 28.5712890625 23.95058822631836 29.84365844726563 20.87805938720703 29.84365844726563 17.60932922363281 C 29.84365844726563 14.34059906005859 28.5712890625 11.26806831359863 26.26094055175781 8.957719802856445 C 23.95058822631836 6.647369384765625 20.87805938720703 5.375 17.60932922363281 5.375 M 17.60932922363281 3.375 C 25.4724292755127 3.375 31.84365844726563 9.74622917175293 31.84365844726563 17.60932922363281 C 31.84365844726563 25.4724292755127 25.4724292755127 31.84365844726563 17.60932922363281 31.84365844726563 C 9.74622917175293 31.84365844726563 3.375 25.4724292755127 3.375 17.60932922363281 C 3.375 9.74622917175293 9.74622917175293 3.375 17.60932922363281 3.375 Z" stroke="none" fill="#53bfd2"/>
      </g>
    </g>
    <g id="Icon_feather-plus" data-name="Icon feather-plus" transform="translate(-117.431 221.777)">
      <path id="Path_14194" data-name="Path 14194" d="M18,7.5V18.547" transform="translate(-12.476 -7.5)" fill="none" stroke="#161616" stroke-linecap="round" stroke-linejoin="round" stroke-width="2"/>
      <path id="Path_14195" data-name="Path 14195" d="M7.5,18H18.547" transform="translate(-7.5 -12.476)" fill="none" stroke="#161616" stroke-linecap="round" stroke-linejoin="round" stroke-width="2"/>
    </g>
    <g id="class-open-file" transform="translate(-82.652 219.827)">
      <path id="Path_14359" data-name="Path 14359" d="M52.523,37.209H9.218A7.226,7.226,0,0,1,2,29.992V18.444a1.444,1.444,0,0,1,2.887,0V29.992a4.336,4.336,0,0,0,4.331,4.331H52.523a4.336,4.336,0,0,0,4.331-4.331V18.444a1.444,1.444,0,0,1,2.887,0V29.992A7.226,7.226,0,0,1,52.523,37.209Z" transform="translate(3.774 32.08)" fill="#53bfd2"/>
      <path id="Path_14360" data-name="Path 14360" d="M58.3,20.267a1.444,1.444,0,0,1-1.444-1.444V7.218a4.336,4.336,0,0,0-4.331-4.331H9.218A4.336,4.336,0,0,0,4.887,7.218V18.766a1.444,1.444,0,1,1-2.887,0V7.218A7.226,7.226,0,0,1,9.218,0H52.523a7.226,7.226,0,0,1,7.218,7.218V18.823A1.444,1.444,0,0,1,58.3,20.267Z" transform="translate(3.774)" fill="#53bfd2"/>
      <path id="Path_14361" data-name="Path 14361" d="M10.1,26.322H4.331A4.336,4.336,0,0,1,0,21.992V13.331A4.336,4.336,0,0,1,4.331,9H10.1a1.444,1.444,0,0,1,0,2.887H4.331a1.446,1.446,0,0,0-1.444,1.444v8.661a1.446,1.446,0,0,0,1.444,1.444H10.1a1.444,1.444,0,1,1,0,2.887Z" transform="translate(0 16.983)" fill="#161616"/>
      <path id="Path_14362" data-name="Path 14362" d="M15.1,26.322H6.444A1.444,1.444,0,0,1,5,24.879V10.444a1.444,1.444,0,1,1,2.887,0V23.435H15.1a1.444,1.444,0,0,1,0,2.887Z" transform="translate(9.435 16.983)" fill="#161616"/>
      <path id="Path_14363" data-name="Path 14363" d="M21.5,26.322H16.444a1.444,1.444,0,1,1,0-2.887H21.5a2.165,2.165,0,0,0,0-4.331H20.052a5.052,5.052,0,1,1,0-10.1H25.1a1.444,1.444,0,0,1,0,2.887H20.052a2.165,2.165,0,0,0,0,4.331H21.5a5.052,5.052,0,1,1,0,10.1Z" transform="translate(28.306 16.983)" fill="#161616"/>
      <path id="Path_14364" data-name="Path 14364" d="M26.5,26.322H21.444a1.444,1.444,0,0,1,0-2.887H26.5a2.165,2.165,0,0,0,0-4.331H25.052a5.052,5.052,0,0,1,0-10.1H30.1a1.444,1.444,0,0,1,0,2.887H25.052a2.165,2.165,0,0,0,0,4.331H26.5a5.052,5.052,0,0,1,0,10.1Z" transform="translate(37.741 16.983)" fill="#161616"/>
      <path id="Path_14365" data-name="Path 14365" d="M20.1,26.322a1.444,1.444,0,0,1-1.444-1.444v-10.1a2.887,2.887,0,0,0-5.774,0v10.1a1.444,1.444,0,0,1-2.887,0v-10.1a5.774,5.774,0,1,1,11.548,0v10.1A1.444,1.444,0,0,1,20.1,26.322Z" transform="translate(18.87 16.983)" fill="#161616"/>
      <path id="Path_14366" data-name="Path 14366" d="M18.911,14.887H11.694a1.444,1.444,0,1,1,0-2.887h7.218a1.444,1.444,0,1,1,0,2.887Z" transform="translate(19.342 22.644)" fill="#161616"/>
    </g>
  </g>
</svg>
