<svg xmlns="http://www.w3.org/2000/svg" width="126.102" height="110" viewBox="0 0 126.102 110">
  <g id="Icon_1" data-name="Icon 1" transform="translate(127.652 -200.116)">
    <circle id="Ellipse_2816" data-name="Ellipse 2816" cx="55" cy="55" r="55" transform="translate(-127.652 200.116)" fill="#fff"/>
    <rect id="Rectangle_6301" data-name="Rectangle 6301" width="1.663" height="1.663" transform="translate(-6.877 231.993)" fill="#f8f8f8" stroke="#f8f8f8" stroke-width="0.25"/>
    <rect id="Rectangle_6303" data-name="Rectangle 6303" width="1.663" height="1.663" transform="translate(-14.286 222.304)" fill="#f8f8f8" stroke="#f8f8f8" stroke-width="0.25"/>
    <g id="Group_10132" data-name="Group 10132" transform="translate(-103.388 213.15)">
      <path id="Path_13903" data-name="Path 13903" d="M316.629,260.99a1.5,1.5,0,0,0-.037-.319,14.873,14.873,0,0,0-.692-4.3,15.075,15.075,0,0,0-1.1-2.561l-.007-.015c-.042-.075-.084-.153-.126-.227s-.085-.151-.13-.225q-.212-.36-.44-.7l-.18-.264a15.116,15.116,0,0,0-12.422-6.5H294.1a1.285,1.285,0,0,1-.486-.1c-.038-.017-.076-.034-.112-.053a1.29,1.29,0,0,1-.689-1.14V241.5a12.264,12.264,0,0,0,3.068-2.556,15.949,15.949,0,0,0,.907-27.153,17.424,17.424,0,0,0-2.981-1.649c-.193-.085-.386-.165-.583-.242l-.015-.006a6.646,6.646,0,0,0-3.067-6.919c-.182-.112-.371-.214-.564-.307-.049-.024-.1-.046-.146-.068s-.1-.046-.148-.065a6.576,6.576,0,0,0-2.6-.53,6.636,6.636,0,0,0-6.52,7.889,16.447,16.447,0,0,0-10.724,15.178,16.124,16.124,0,0,0,8.051,13.872,12.139,12.139,0,0,0,2.653,2.3c.136.089.274.175.415.256v3.085a1.29,1.29,0,0,1-1.29,1.288h-7.39a15.052,15.052,0,0,0-8.419,2.566q-.5.333-.966.706l.009,0a12.086,12.086,0,0,1,3.3,1.29c.011.008.024.014.036.021.083.046.164.1.244.146a11.8,11.8,0,0,1,3.169-1.387c.1-.028.206-.055.305-.078a9.748,9.748,0,0,1,2.95-.3h3.768l0,.008a10.513,10.513,0,0,0,5.153,7.756,10.1,10.1,0,0,0,1.246.618l.219.089a.055.055,0,0,1,.015.006A10.493,10.493,0,0,0,297.1,248.84h3.769v7.727a8.928,8.928,0,0,0,2.138,5.8,8.526,8.526,0,0,1,.157,10.879c-.1.119-.194.235-.3.349l-1.092,1.216-.528.588a1.484,1.484,0,0,0,.689,2.414,1.514,1.514,0,0,0,.413.057,1.476,1.476,0,0,0,1.1-.492l.122-.137,1.5-1.668a11.873,11.873,0,0,0,.767-.951,11.721,11.721,0,0,0,.668-1.042,11.442,11.442,0,0,0,1.5-5.68,11.186,11.186,0,0,0-.058-1.135,11.49,11.49,0,0,0-2.692-6.323,5.965,5.965,0,0,1-1.428-3.873v-7.5a12.161,12.161,0,0,1,6.772,3.877q.1.106.188.217c.048.053.093.108.135.163s.085.1.126.156a.3.3,0,0,1,.034.044c.051.062.1.126.147.191.017.022.035.046.055.071a12.529,12.529,0,0,1,.9,1.42.874.874,0,0,0,.049.083l.008.014a12.061,12.061,0,0,1,1.424,5.613v0c0,.024,0,.049,0,.072s0,.062,0,.092v6.373a1.307,1.307,0,0,0-.015.2v8.729a1.48,1.48,0,0,0,2.666.887,1.464,1.464,0,0,0,.3-.887v-8.729l-.018-6.374A1.453,1.453,0,0,0,316.629,260.99Zm-29.941-56.017a3.643,3.643,0,0,1,1.445.3,3.443,3.443,0,0,1,.461.237,3.676,3.676,0,0,1,1.772,3.144,3.81,3.81,0,0,1-.022.4,18.168,18.168,0,0,0-7.3,0l-.014,0a3.593,3.593,0,0,1-.022-.4A3.682,3.682,0,0,1,286.688,204.973Zm-10.667,19.491a1.481,1.481,0,0,0-1.481,1.481v5.076c0,.409.022.812.06,1.21l0,.017a12.808,12.808,0,0,1-2.194-7.172c0-7.408,6.406-13.434,14.28-13.434a14.951,14.951,0,0,1,5.887,1.2c.206.087.409.179.609.276.1.048.2.1.3.148s.216.112.323.169a13.326,13.326,0,0,1,7.165,11.644,12.805,12.805,0,0,1-2.178,7.147.26.26,0,0,1-.016.025c.039-.4.06-.813.06-1.228v-4.7a1.48,1.48,0,0,0-1.481-1.481,16.544,16.544,0,0,1-10.656-3.876q-.251-.209-.494-.432a1.486,1.486,0,0,0-2.137.15A10.438,10.438,0,0,1,276.021,224.464Zm1.481,6.558v-3.676a13.388,13.388,0,0,0,7.831-3.673c.443.347.9.673,1.369.975a19.467,19.467,0,0,0,9.173,3.1v3.273a9.186,9.186,0,0,1-12.758,8.463c-.207-.088-.408-.182-.606-.285-.133-.068-.267-.139-.4-.215-.185-.106-.367-.221-.544-.341A9.177,9.177,0,0,1,277.5,231.022Zm16.6,17.827a7.528,7.528,0,0,1-10.18,5.679.3.3,0,0,0-.032-.013l-.133-.057a7.494,7.494,0,0,1-.857-.431c-.093-.055-.185-.112-.275-.171a.047.047,0,0,1-.015-.009,7.548,7.548,0,0,1-3.327-5.007,4.256,4.256,0,0,0,4.249-4.251v-1.84a12.108,12.108,0,0,0,6.325,0v1.84a4.248,4.248,0,0,0,1.889,3.531,3.773,3.773,0,0,0,.337.2c.051.03.1.057.16.083a.382.382,0,0,0,.037.019,4.231,4.231,0,0,0,1.825.413Zm20.51,6.62.038-.043Zm.1-.124.025-.034Zm.082-.131.015-.026Zm.066-.138.008-.016Zm.052-.142,0-.007Zm-.355.6c-.016.017-.034.032-.051.048C314.516,255.566,314.534,255.55,314.55,255.533Zm-.225.189q-.061.042-.128.078Q314.263,255.764,314.325,255.723Z" transform="translate(-215.042 -202.01)" fill="#161616" stroke="#fff" stroke-width="0.5"/>
      <g id="Group_9911" data-name="Group 9911">
        <path id="Path_13900" data-name="Path 13900" d="M209.566,275.6a1.482,1.482,0,0,0-1.481,1.482v8.729a1.482,1.482,0,0,0,2.964,0v-8.729A1.482,1.482,0,0,0,209.566,275.6Z" transform="translate(-208.073 -211.435)" fill="#53bfd2" stroke="#fff" stroke-width="0.5"/>
        <path id="Path_13901" data-name="Path 13901" d="M274.7,259.5h-4.445a5,5,0,0,0-2.111.466,15.149,15.149,0,0,0-5.615-10.74q-.507-.411-1.052-.778a15.062,15.062,0,0,0-8.42-2.566h-7.39a1.29,1.29,0,0,1-1.288-1.288V241.5a12.224,12.224,0,0,0,3.068-2.556,16.122,16.122,0,0,0,8.05-13.872A16.448,16.448,0,0,0,244.778,209.9a6.762,6.762,0,0,0,.119-1.249,6.641,6.641,0,1,0-13.163,1.249,16.445,16.445,0,0,0-10.723,15.178,16.121,16.121,0,0,0,8.05,13.872,12.262,12.262,0,0,0,3.068,2.556v3.085a1.289,1.289,0,0,1-1.287,1.288h-7.39a15.125,15.125,0,0,0-13.3,7.914,1.481,1.481,0,1,0,2.6,1.413,12.172,12.172,0,0,1,8.359-6.138v7.5a5.969,5.969,0,0,1-1.427,3.873,11.487,11.487,0,0,0,.187,15.131l1.619,1.8a1.482,1.482,0,0,0,2.206-1.98l-1.619-1.8a8.52,8.52,0,0,1-.14-11.228,8.94,8.94,0,0,0,2.136-5.8V248.84h3.769a10.489,10.489,0,0,0,20.814,0h3.769v7.727a8.925,8.925,0,0,0,.5,2.935c-.083,0-.167-.006-.252-.006H248.3a5.044,5.044,0,0,0-5.038,5.038v8.3a5.044,5.044,0,0,0,5.038,5.038h4.382a5.043,5.043,0,0,0,4.981-4.3h7.617a5.045,5.045,0,0,0,4.982,4.3H274.7a5.043,5.043,0,0,0,5.037-5.038v-8.3A5.043,5.043,0,0,0,274.7,259.5Zm-36.448-54.524a3.681,3.681,0,0,1,3.677,3.678,3.6,3.6,0,0,1-.022.4,18.169,18.169,0,0,0-7.31,0,3.6,3.6,0,0,1-.023-.4A3.682,3.682,0,0,1,238.256,204.973Zm-10.668,19.869a1.481,1.481,0,0,0-1.481,1.481v4.7a12.177,12.177,0,0,0,.062,1.228,12.808,12.808,0,0,1-2.194-7.172c0-7.408,6.406-13.434,14.281-13.434s14.281,6.026,14.281,13.434a12.809,12.809,0,0,1-2.195,7.172,11.923,11.923,0,0,0,.062-1.228v-5.076a1.481,1.481,0,0,0-1.481-1.481,10.438,10.438,0,0,1-8.048-3.78,1.484,1.484,0,0,0-2.135-.15A16.554,16.554,0,0,1,227.588,224.841Zm1.481,6.18v-3.273a19.5,19.5,0,0,0,10.542-4.076,13.393,13.393,0,0,0,7.831,3.673v3.676a9.186,9.186,0,0,1-18.372,0Zm9.187,24.033a7.538,7.538,0,0,1-7.411-6.214,4.255,4.255,0,0,0,4.248-4.251v-1.84a12.114,12.114,0,0,0,6.327,0v1.84a4.255,4.255,0,0,0,4.247,4.251A7.538,7.538,0,0,1,238.256,255.055Zm16.5,17.776a2.076,2.076,0,0,1-2.074,2.074H248.3a2.076,2.076,0,0,1-2.074-2.074v-8.3a2.076,2.076,0,0,1,2.074-2.074h4.382a2.076,2.076,0,0,1,2.074,2.074Zm10.469-2.222h-7.506v-3.852h7.506Zm0-6.816h-6.408a11.587,11.587,0,0,0-1.991-3.353,5.676,5.676,0,0,1-.4-.523,5.96,5.96,0,0,1-1.03-3.21c0-.047,0-.093,0-.14v-7.5c.126.025.252.051.378.081a12.075,12.075,0,0,1,3.31,1.292c.1.053.188.108.28.167A12.193,12.193,0,0,1,265.221,261Zm11.557,9.038a2.076,2.076,0,0,1-2.074,2.074h-4.445a2.076,2.076,0,0,1-2.074-2.074v-8.3a2.076,2.076,0,0,1,2.074-2.074H274.7a2.076,2.076,0,0,1,2.074,2.074Z" transform="translate(-208.315 -202.01)" fill="#53bfd2" stroke="#fff" stroke-width="0.5"/>
        <path id="Path_13902" data-name="Path 13902" d="M209.553,270.917a1.482,1.482,0,1,0-1.048-.434A1.49,1.49,0,0,0,209.553,270.917Z" transform="translate(-208.071 -210.455)" fill="#53bfd2" stroke="#fff" stroke-width="0.5"/>
      </g>
    </g>
  </g>
</svg>
