<svg xmlns="http://www.w3.org/2000/svg" xmlns:xlink="http://www.w3.org/1999/xlink" width="168" height="105.302" viewBox="0 0 168 105.302">
  <defs>
    <filter id="Path_14261" x="0.07" y="77.429" width="26.915" height="27.689" filterUnits="userSpaceOnUse">
      <feOffset dy="3" input="SourceAlpha"/>
      <feGaussianBlur stdDeviation="3" result="blur"/>
      <feFlood flood-color="#c6c6c6"/>
      <feComposite operator="in" in2="blur"/>
      <feComposite in="SourceGraphic"/>
    </filter>
    <filter id="Path_14262" x="10.41" y="77.245" width="28.565" height="28.058" filterUnits="userSpaceOnUse">
      <feOffset dy="3" input="SourceAlpha"/>
      <feGaussianBlur stdDeviation="3" result="blur-2"/>
      <feFlood flood-color="#c6c6c6"/>
      <feComposite operator="in" in2="blur-2"/>
      <feComposite in="SourceGraphic"/>
    </filter>
    <filter id="Path_14263" x="25.238" y="77.429" width="31.739" height="27.689" filterUnits="userSpaceOnUse">
      <feOffset dy="3" input="SourceAlpha"/>
      <feGaussianBlur stdDeviation="3" result="blur-3"/>
      <feFlood flood-color="#c6c6c6"/>
      <feComposite operator="in" in2="blur-3"/>
      <feComposite in="SourceGraphic"/>
    </filter>
    <filter id="Path_14264" x="40.474" y="77.429" width="26.434" height="27.689" filterUnits="userSpaceOnUse">
      <feOffset dy="3" input="SourceAlpha"/>
      <feGaussianBlur stdDeviation="3" result="blur-4"/>
      <feFlood flood-color="#c6c6c6"/>
      <feComposite operator="in" in2="blur-4"/>
      <feComposite in="SourceGraphic"/>
    </filter>
    <filter id="Path_14265" x="50.463" y="77.245" width="26.929" height="27.874" filterUnits="userSpaceOnUse">
      <feOffset dy="3" input="SourceAlpha"/>
      <feGaussianBlur stdDeviation="3" result="blur-5"/>
      <feFlood flood-color="#c6c6c6"/>
      <feComposite operator="in" in2="blur-5"/>
      <feComposite in="SourceGraphic"/>
    </filter>
    <filter id="Path_14266" x="58.913" y="77.429" width="25.278" height="27.689" filterUnits="userSpaceOnUse">
      <feOffset dy="3" input="SourceAlpha"/>
      <feGaussianBlur stdDeviation="3" result="blur-6"/>
      <feFlood flood-color="#c6c6c6"/>
      <feComposite operator="in" in2="blur-6"/>
      <feComposite in="SourceGraphic"/>
    </filter>
    <filter id="Path_14267" x="71.159" y="77.245" width="29.185" height="27.874" filterUnits="userSpaceOnUse">
      <feOffset dy="3" input="SourceAlpha"/>
      <feGaussianBlur stdDeviation="3" result="blur-7"/>
      <feFlood flood-color="#c6c6c6"/>
      <feComposite operator="in" in2="blur-7"/>
      <feComposite in="SourceGraphic"/>
    </filter>
    <filter id="Path_14268" x="83.658" y="77.245" width="28.565" height="28.058" filterUnits="userSpaceOnUse">
      <feOffset dy="3" input="SourceAlpha"/>
      <feGaussianBlur stdDeviation="3" result="blur-8"/>
      <feFlood flood-color="#c6c6c6"/>
      <feComposite operator="in" in2="blur-8"/>
      <feComposite in="SourceGraphic"/>
    </filter>
    <filter id="Path_14269" x="94.576" y="77.429" width="26.929" height="27.689" filterUnits="userSpaceOnUse">
      <feOffset dy="3" input="SourceAlpha"/>
      <feGaussianBlur stdDeviation="3" result="blur-9"/>
      <feFlood flood-color="#c6c6c6"/>
      <feComposite operator="in" in2="blur-9"/>
      <feComposite in="SourceGraphic"/>
    </filter>
    <filter id="Path_14270" x="105.058" y="77.429" width="23.107" height="27.689" filterUnits="userSpaceOnUse">
      <feOffset dy="3" input="SourceAlpha"/>
      <feGaussianBlur stdDeviation="3" result="blur-10"/>
      <feFlood flood-color="#c6c6c6"/>
      <feComposite operator="in" in2="blur-10"/>
      <feComposite in="SourceGraphic"/>
    </filter>
    <filter id="Path_14271" x="111.52" y="77.245" width="23.783" height="28.058" filterUnits="userSpaceOnUse">
      <feOffset dy="3" input="SourceAlpha"/>
      <feGaussianBlur stdDeviation="3" result="blur-11"/>
      <feFlood flood-color="#c6c6c6"/>
      <feComposite operator="in" in2="blur-11"/>
      <feComposite in="SourceGraphic"/>
    </filter>
    <filter id="Path_14272" x="120.961" y="77.429" width="25.998" height="27.689" filterUnits="userSpaceOnUse">
      <feOffset dy="3" input="SourceAlpha"/>
      <feGaussianBlur stdDeviation="3" result="blur-12"/>
      <feFlood flood-color="#c6c6c6"/>
      <feComposite operator="in" in2="blur-12"/>
      <feComposite in="SourceGraphic"/>
    </filter>
    <filter id="Path_14273" x="129.128" y="77.245" width="28.565" height="28.058" filterUnits="userSpaceOnUse">
      <feOffset dy="3" input="SourceAlpha"/>
      <feGaussianBlur stdDeviation="3" result="blur-13"/>
      <feFlood flood-color="#c6c6c6"/>
      <feComposite operator="in" in2="blur-13"/>
      <feComposite in="SourceGraphic"/>
    </filter>
    <filter id="Path_14274" x="141.653" y="77.429" width="26.321" height="27.873" filterUnits="userSpaceOnUse">
      <feOffset dy="3" input="SourceAlpha"/>
      <feGaussianBlur stdDeviation="3" result="blur-14"/>
      <feFlood flood-color="#c6c6c6"/>
      <feComposite operator="in" in2="blur-14"/>
      <feComposite in="SourceGraphic"/>
    </filter>
    <filter id="Path_14275" x="0" y="0" width="63.343" height="78.069" filterUnits="userSpaceOnUse">
      <feOffset dy="3" input="SourceAlpha"/>
      <feGaussianBlur stdDeviation="3" result="blur-15"/>
      <feFlood flood-color="#c6c6c6"/>
      <feComposite operator="in" in2="blur-15"/>
      <feComposite in="SourceGraphic"/>
    </filter>
    <filter id="Path_14276" x="82.124" y="0" width="48.81" height="77.945" filterUnits="userSpaceOnUse">
      <feOffset dy="3" input="SourceAlpha"/>
      <feGaussianBlur stdDeviation="3" result="blur-16"/>
      <feFlood flood-color="#c6c6c6"/>
      <feComposite operator="in" in2="blur-16"/>
      <feComposite in="SourceGraphic"/>
    </filter>
    <filter id="Path_14277" x="44.864" y="13.682" width="57.899" height="65.389" filterUnits="userSpaceOnUse">
      <feOffset dy="3" input="SourceAlpha"/>
      <feGaussianBlur stdDeviation="3" result="blur-17"/>
      <feFlood flood-color="#c6c6c6"/>
      <feComposite operator="in" in2="blur-17"/>
      <feComposite in="SourceGraphic"/>
    </filter>
    <filter id="Path_14278" x="110.099" y="13.682" width="57.902" height="65.391" filterUnits="userSpaceOnUse">
      <feOffset dy="3" input="SourceAlpha"/>
      <feGaussianBlur stdDeviation="3" result="blur-18"/>
      <feFlood flood-color="#c6c6c6"/>
      <feComposite operator="in" in2="blur-18"/>
      <feComposite in="SourceGraphic"/>
    </filter>
  </defs>
  <g id="Motto_Logo" data-name="Motto Logo" transform="translate(-855 -79)">
    <g id="Group_10137" data-name="Group 10137" transform="translate(864.07 162.245)">
      <g transform="matrix(1, 0, 0, 1, -9.07, -83.24)" filter="url(#Path_14261)">
        <path id="Path_14261-2" data-name="Path 14261" d="M310.2,404.868q0-.93-.036-1.825t-.078-1.827q.536.028,1.066.049c.352.014.707.022,1.065.022s.712-.013,1.064-.036.708-.035,1.065-.035a6.167,6.167,0,0,1,2.123.324,3.693,3.693,0,0,1,1.446.924,3.611,3.611,0,0,1,.825,1.467,6.764,6.764,0,0,1,.262,1.954,5.241,5.241,0,0,1-.487,2.377,4.544,4.544,0,0,1-1.242,1.558,4.645,4.645,0,0,1-1.664.839,6.637,6.637,0,0,1-1.742.246c-.32,0-.635,0-.945-.014s-.626-.014-.945-.014h-.945q-.465,0-.945.028.044-.874.078-1.777t.036-1.834Zm1.156,2.427q0,1.523.085,2.991a5.092,5.092,0,0,0,.8.105q.507.035,1.044.035a6.689,6.689,0,0,0,1.551-.184,3.364,3.364,0,0,0,1.39-.691,3.693,3.693,0,0,0,1-1.389,6.871,6.871,0,0,0,.084-4.3,3.07,3.07,0,0,0-.832-1.248,2.954,2.954,0,0,0-1.262-.635,6.955,6.955,0,0,0-1.608-.176q-.634,0-1.185.042c-.366.029-.7.062-.987.1q-.044.677-.064,1.417t-.021,1.5Z" transform="translate(-301.02 -317.79)" fill="#161616"/>
      </g>
      <g transform="matrix(1, 0, 0, 1, -9.07, -83.24)" filter="url(#Path_14262)">
        <path id="Path_14262-2" data-name="Path 14262" d="M325.39,405.993a5.549,5.549,0,0,1,.388-2.137,4.455,4.455,0,0,1,1.086-1.586,4.664,4.664,0,0,1,1.672-.988,6.9,6.9,0,0,1,4.273,0,4.659,4.659,0,0,1,1.672.988,4.447,4.447,0,0,1,1.086,1.586,6.078,6.078,0,0,1,0,4.273,4.351,4.351,0,0,1-2.758,2.554,7.36,7.36,0,0,1-4.273,0,4.351,4.351,0,0,1-2.758-2.554A5.541,5.541,0,0,1,325.39,405.993Zm9.183,0a6.191,6.191,0,0,0-.3-2.024,3.848,3.848,0,0,0-.826-1.411,3.307,3.307,0,0,0-1.241-.825,4.36,4.36,0,0,0-1.545-.268,4.313,4.313,0,0,0-1.53.268,3.3,3.3,0,0,0-1.241.825,3.856,3.856,0,0,0-.825,1.411,7.038,7.038,0,0,0,0,4.048,3.852,3.852,0,0,0,.825,1.41,3.272,3.272,0,0,0,1.241.825,4.3,4.3,0,0,0,1.53.268,4.344,4.344,0,0,0,1.545-.268,3.275,3.275,0,0,0,1.241-.825,3.845,3.845,0,0,0,.826-1.41A6.188,6.188,0,0,0,334.573,405.993Z" transform="translate(-305.98 -317.7)" fill="#161616"/>
      </g>
      <g transform="matrix(1, 0, 0, 1, -9.07, -83.24)" filter="url(#Path_14263)">
        <path id="Path_14263-2" data-name="Path 14263" d="M350.372,410.905q-.114-.352-.346-1.114t-.528-1.721q-.3-.96-.621-2.01t-.62-2q-.3-.953-.543-1.714t-.388-1.128q.184.028.353.049a2.792,2.792,0,0,0,.7,0c.114-.013.23-.03.353-.049q.268,1.072.522,2.009t.543,1.9q.289.966.62,2.031t.755,2.406h.029q.127-.381.352-1.051t.493-1.481q.268-.812.564-1.685t.55-1.672q.254-.8.451-1.452t.283-1.008a1.561,1.561,0,0,0,.931,0q.1.38.3,1.043t.459,1.475q.254.812.543,1.685t.557,1.679q.269.8.487,1.453c.145.432.262.771.345,1.016h.028q.1-.311.3-.967t.466-1.481q.26-.825.535-1.735t.522-1.735q.246-.825.437-1.474t.261-.959q.127.028.247.049a1.391,1.391,0,0,0,.246.022,1.406,1.406,0,0,0,.247-.022c.079-.013.162-.03.247-.049q-.141.324-.409,1.072t-.6,1.707q-.332.958-.691,2.031t-.692,2.038q-.331.966-.592,1.735t-.388,1.106a4.168,4.168,0,0,0-.96,0q-.634-1.96-1.255-3.942t-1.34-4.1h-.028l-.3.867q-.19.543-.424,1.221t-.5,1.452q-.269.777-.537,1.567t-.522,1.551q-.253.762-.465,1.382a4.412,4.412,0,0,0-.987,0Z" transform="translate(-313.09 -317.79)" fill="#161616"/>
      </g>
      <g transform="matrix(1, 0, 0, 1, -9.07, -83.24)" filter="url(#Path_14264)">
        <path id="Path_14264-2" data-name="Path 14264" d="M377,403.043q-.034-.9-.078-1.827c.122.019.241.035.352.049a2.583,2.583,0,0,0,.678,0q.169-.02.352-.049-.042.931-.078,1.827t-.035,1.825V407.3q0,.931.035,1.834t.078,1.777c-.216-.018-.446-.028-.691-.028s-.475.009-.691.028q.043-.874.078-1.777t.035-1.834v-1.269q-.761-.014-1.474-.022T374.084,406q-.762,0-1.475.007t-1.474.022V407.3q0,.931.035,1.834t.078,1.777q-.324-.027-.691-.028c-.245,0-.475.009-.691.028q.043-.874.077-1.777t.036-1.834v-2.427q0-.93-.036-1.825t-.077-1.827c.122.019.239.035.352.049a2.577,2.577,0,0,0,.677,0c.114-.013.23-.03.353-.049q-.042.931-.078,1.827t-.035,1.825v.495l1.474.028q.713.014,1.475.014t1.473-.014l1.474-.028v-.495Q377.031,403.939,377,403.043Z" transform="translate(-320.39 -317.79)" fill="#161616"/>
      </g>
      <g transform="matrix(1, 0, 0, 1, -9.07, -83.24)" filter="url(#Path_14265)">
        <path id="Path_14265-2" data-name="Path 14265" d="M393.572,410.817a2.745,2.745,0,0,0-.374-.028h-.748a2.715,2.715,0,0,0-.374.028c-.066-.216-.155-.477-.268-.783s-.237-.624-.374-.959-.275-.672-.416-1.015-.273-.67-.4-.98c-.3-.009-.607-.016-.917-.022s-.62-.007-.93-.007c-.292,0-.579,0-.861.007s-.569.013-.86.022q-.451,1.1-.818,2.094t-.549,1.643a4.932,4.932,0,0,0-1.044,0q1.141-2.467,2.229-4.909t2.186-4.965h.268q.339.819.733,1.771t.8,1.925q.409.974.818,1.932t.768,1.785q.359.824.648,1.474C393.292,410.263,393.449,410.592,393.572,410.817Zm-6.249-4.386c.244,0,.5,0,.761.014s.518.014.762.014q.4,0,.791-.007t.789-.021l-1.565-3.583Z" transform="translate(-325.18 -317.7)" fill="#161616"/>
      </g>
      <g transform="matrix(1, 0, 0, 1, -9.07, -83.24)" filter="url(#Path_14266)">
        <path id="Path_14266-2" data-name="Path 14266" d="M400.163,401.949c-.245,0-.5,0-.768.007s-.537.015-.8.028-.527.031-.776.05-.472.043-.67.071a1.728,1.728,0,0,0,.07-.452,1.952,1.952,0,0,0-.07-.437q.931.028,1.82.049t1.819.022q.932,0,1.821-.022t1.819-.049a1.967,1.967,0,0,0-.07.451,1.686,1.686,0,0,0,.07.438q-.3-.043-.669-.071t-.777-.05c-.268-.013-.536-.023-.8-.028s-.525-.007-.769-.007q-.042,1.453-.042,2.919V407.3q0,.931.035,1.834t.078,1.777q-.325-.027-.692-.028c-.244,0-.474.009-.691.028q.043-.874.078-1.777t.036-1.834v-2.427Q400.206,403.4,400.163,401.949Z" transform="translate(-329.23 -317.79)" fill="#161616"/>
      </g>
      <g transform="matrix(1, 0, 0, 1, -9.07, -83.24)" filter="url(#Path_14267)">
        <path id="Path_14267-2" data-name="Path 14267" d="M418.836,404.836q.994,1.891,2.081,3.88.141-.269.409-.769t.62-1.15q.353-.649.755-1.4t.818-1.531q.416-.774.824-1.523t.762-1.4h.184q.155,1.355.289,2.617t.275,2.482q.141,1.219.282,2.412t.31,2.362a2.072,2.072,0,0,0-.331-.028h-.663a2.086,2.086,0,0,0-.332.028q-.155-1.875-.31-3.638t-.38-3.6H424.4q-.973,1.778-1.911,3.533t-1.785,3.674h-.126q-.846-1.777-1.77-3.562t-1.854-3.646h-.029q-.1.875-.218,1.9t-.218,2.017q-.1.994-.17,1.875t-.071,1.446a4.406,4.406,0,0,0-.987,0q.182-1.142.38-2.411t.381-2.553q.182-1.284.338-2.532t.268-2.378h.24Q417.843,402.946,418.836,404.836Z" transform="translate(-335.1 -317.7)" fill="#161616"/>
      </g>
      <g transform="matrix(1, 0, 0, 1, -9.07, -83.24)" filter="url(#Path_14268)">
        <path id="Path_14268-2" data-name="Path 14268" d="M433.752,405.993a5.549,5.549,0,0,1,.388-2.137,4.447,4.447,0,0,1,1.086-1.586,4.665,4.665,0,0,1,1.672-.988,6.9,6.9,0,0,1,4.273,0,4.65,4.65,0,0,1,1.671.988,4.448,4.448,0,0,1,1.087,1.586,6.078,6.078,0,0,1,0,4.273,4.355,4.355,0,0,1-2.758,2.554,7.36,7.36,0,0,1-4.273,0,4.351,4.351,0,0,1-2.758-2.554A5.541,5.541,0,0,1,433.752,405.993Zm9.182,0a6.191,6.191,0,0,0-.3-2.024,3.847,3.847,0,0,0-.825-1.411,3.307,3.307,0,0,0-1.241-.825,4.363,4.363,0,0,0-1.545-.268,4.313,4.313,0,0,0-1.53.268,3.3,3.3,0,0,0-1.241.825,3.846,3.846,0,0,0-.825,1.411,7.038,7.038,0,0,0,0,4.048,3.843,3.843,0,0,0,.825,1.41,3.272,3.272,0,0,0,1.241.825,4.3,4.3,0,0,0,1.53.268,4.347,4.347,0,0,0,1.545-.268,3.275,3.275,0,0,0,1.241-.825,3.844,3.844,0,0,0,.825-1.41A6.189,6.189,0,0,0,442.934,405.993Z" transform="translate(-341.09 -317.7)" fill="#161616"/>
      </g>
      <g transform="matrix(1, 0, 0, 1, -9.07, -83.24)" filter="url(#Path_14269)">
        <path id="Path_14269-2" data-name="Path 14269" d="M453.84,410.905q-.324-.831-.789-2t-.994-2.469q-.529-1.3-1.087-2.652t-1.065-2.567c.133.019.259.035.381.049a2.792,2.792,0,0,0,.7,0c.123-.013.249-.03.382-.049q.308.931.684,1.953t.789,2.081q.417,1.057.854,2.144t.889,2.158c.169-.385.353-.816.55-1.29s.4-.968.6-1.481.4-1.035.6-1.567.387-1.041.571-1.53.349-.945.5-1.369.277-.789.38-1.1a1.956,1.956,0,0,0,1.044,0q-1.1,2.454-2.116,4.866t-1.946,4.823a3.865,3.865,0,0,0-.466-.028A3.249,3.249,0,0,0,453.84,410.905Z" transform="translate(-346.33 -317.79)" fill="#161616"/>
      </g>
      <g transform="matrix(1, 0, 0, 1, -9.07, -83.24)" filter="url(#Path_14270)">
        <path id="Path_14270-2" data-name="Path 14270" d="M465.491,403.022q-.035-.9-.078-1.806.636.028,1.263.049t1.262.022q.635,0,1.255-.022t1.256-.049a2.153,2.153,0,0,0,0,.845q-.452-.027-.826-.056c-.249-.018-.512-.038-.789-.056s-.581-.035-.91-.049-.724-.021-1.185-.021c-.009.3-.021.588-.035.86s-.021.584-.021.931q0,.551.007,1.072t.007.791q.62,0,1.114-.015t.9-.035q.409-.021.754-.042c.23-.015.449-.031.656-.05a2.221,2.221,0,0,0-.043.438,2.136,2.136,0,0,0,.043.422q-.367-.042-.854-.07t-.974-.035l-.916-.014q-.43-.007-.684-.007c0,.084,0,.176-.007.274s-.007.224-.007.374v1.4q0,.8.007,1.326t.021.79h.988c.356,0,.707-.007,1.05-.022s.668-.033.973-.056a6.459,6.459,0,0,0,.8-.106.971.971,0,0,0-.034.218c-.006.08-.008.153-.008.22a1.294,1.294,0,0,0,.043.366q-.635-.027-1.262-.028H466.7c-.424,0-.851.009-1.284.028q.044-.9.078-1.8t.036-1.827v-2.426Q465.527,403.924,465.491,403.022Z" transform="translate(-351.36 -317.79)" fill="#161616"/>
      </g>
      <g transform="matrix(1, 0, 0, 1, -9.07, -83.24)" filter="url(#Path_14271)">
        <path id="Path_14271-2" data-name="Path 14271" d="M475.714,409.5a2.328,2.328,0,0,0,.465.472,2.364,2.364,0,0,0,1.459.48,2.1,2.1,0,0,0,.84-.163,1.873,1.873,0,0,0,1.037-1.085,2.245,2.245,0,0,0,.141-.8,1.512,1.512,0,0,0-.331-1.029,2.752,2.752,0,0,0-.825-.635,9.494,9.494,0,0,0-1.065-.466,5.469,5.469,0,0,1-1.065-.529,2.825,2.825,0,0,1-.824-.812,2.337,2.337,0,0,1-.332-1.326,2.687,2.687,0,0,1,.212-1.079,2.35,2.35,0,0,1,.614-.839,2.888,2.888,0,0,1,.966-.55,4.217,4.217,0,0,1,2.44-.036,2.91,2.91,0,0,1,.917.5,3.051,3.051,0,0,0-.212.508q-.084.268-.168.677h-.17a3.506,3.506,0,0,0-.191-.431,1.659,1.659,0,0,0-.324-.43,1.873,1.873,0,0,0-.487-.332,1.583,1.583,0,0,0-.677-.134,1.987,1.987,0,0,0-.727.128,1.711,1.711,0,0,0-.578.359,1.588,1.588,0,0,0-.381.557,1.831,1.831,0,0,0-.135.7,1.539,1.539,0,0,0,.332,1.044,2.834,2.834,0,0,0,.826.642,8.294,8.294,0,0,0,1.064.466,5.971,5.971,0,0,1,1.065.5,2.72,2.72,0,0,1,.826.762,2.1,2.1,0,0,1,.331,1.242,3.257,3.257,0,0,1-.232,1.227,2.888,2.888,0,0,1-.678,1.009,3.015,3.015,0,0,1-1.086.663,4.264,4.264,0,0,1-1.46.232,3.638,3.638,0,0,1-1.418-.232,3.859,3.859,0,0,1-.909-.529,3.432,3.432,0,0,0,.176-.585c.032-.174.063-.4.091-.67h.17A2.783,2.783,0,0,0,475.714,409.5Z" transform="translate(-354.45 -317.7)" fill="#161616"/>
      </g>
      <g transform="matrix(1, 0, 0, 1, -9.07, -83.24)" filter="url(#Path_14272)">
        <path id="Path_14272-2" data-name="Path 14272" d="M492.362,406.942c-.093-.16-.233-.393-.416-.7s-.386-.644-.607-1.016-.453-.762-.7-1.171-.478-.8-.7-1.171-.421-.7-.6-1-.315-.519-.409-.669q.2.028.388.049a3.462,3.462,0,0,0,.388.022,3.5,3.5,0,0,0,.388-.022q.19-.02.388-.049.634,1.227,1.29,2.412t1.389,2.467q.324-.507.677-1.114t.7-1.241q.352-.635.677-1.277t.606-1.248a2.17,2.17,0,0,0,1.1,0q-.678,1.03-1.214,1.862t-.944,1.509q-.41.676-.72,1.221t-.537.98c0,.347,0,.719.008,1.114s.012.783.021,1.164.021.734.035,1.058.03.585.049.783c-.217-.018-.447-.028-.691-.028s-.475.009-.692.028q.085-.733.1-1.777T492.362,406.942Z" transform="translate(-358.97 -317.79)" fill="#161616"/>
      </g>
      <g transform="matrix(1, 0, 0, 1, -9.07, -83.24)" filter="url(#Path_14273)">
        <path id="Path_14273-2" data-name="Path 14273" d="M501.019,405.993a5.549,5.549,0,0,1,.388-2.137,4.438,4.438,0,0,1,1.086-1.586,4.664,4.664,0,0,1,1.672-.988,6.9,6.9,0,0,1,4.273,0,4.656,4.656,0,0,1,1.671.988,4.448,4.448,0,0,1,1.087,1.586,6.079,6.079,0,0,1,0,4.273,4.355,4.355,0,0,1-2.758,2.554,7.36,7.36,0,0,1-4.273,0,4.351,4.351,0,0,1-2.758-2.554A5.541,5.541,0,0,1,501.019,405.993Zm9.182,0a6.191,6.191,0,0,0-.3-2.024,3.849,3.849,0,0,0-.826-1.411,3.3,3.3,0,0,0-1.24-.825,4.363,4.363,0,0,0-1.545-.268,4.31,4.31,0,0,0-1.53.268,3.3,3.3,0,0,0-1.242.825,3.847,3.847,0,0,0-.825,1.411,7.053,7.053,0,0,0,0,4.048,3.844,3.844,0,0,0,.825,1.41,3.266,3.266,0,0,0,1.242.825,4.294,4.294,0,0,0,1.53.268,4.346,4.346,0,0,0,1.545-.268,3.267,3.267,0,0,0,1.24-.825,3.846,3.846,0,0,0,.826-1.41A6.189,6.189,0,0,0,510.2,405.993Z" transform="translate(-362.89 -317.7)" fill="#161616"/>
      </g>
      <g transform="matrix(1, 0, 0, 1, -9.07, -83.24)" filter="url(#Path_14274)">
        <path id="Path_14274-2" data-name="Path 14274" d="M526.957,405.8q0-2-.013-3.089a14.44,14.44,0,0,0-.071-1.495q.155.028.3.049a1.883,1.883,0,0,0,.282.022,1.537,1.537,0,0,0,.422-.071q-.042.494-.084,1.177t-.071,1.467q-.027.782-.056,1.608t-.043,1.6a5.108,5.108,0,0,1-.289,1.693,3.54,3.54,0,0,1-.783,1.27,3.244,3.244,0,0,1-1.248.789,4.988,4.988,0,0,1-1.7.268,4.214,4.214,0,0,1-3.075-.959,4.143,4.143,0,0,1-.959-3.032q0-.663.036-1.179c.023-.343.034-.692.034-1.051q0-1.184-.028-2.1t-.056-1.552c.113.019.234.035.367.049a3.43,3.43,0,0,0,.367.022,2.117,2.117,0,0,0,.3-.022c.1-.013.2-.03.3-.049-.019.207-.037.477-.057.811s-.037.712-.056,1.135-.033.879-.043,1.368-.014,1-.014,1.523q0,.479.014.994a7.015,7.015,0,0,0,.1,1,4.25,4.25,0,0,0,.275.931,2.294,2.294,0,0,0,.543.774,2.468,2.468,0,0,0,.889.522,3.99,3.99,0,0,0,1.326.191,3.31,3.31,0,0,0,1.3-.226,2.463,2.463,0,0,0,.867-.592,2.684,2.684,0,0,0,.529-.845,4.808,4.808,0,0,0,.276-1,8,8,0,0,0,.1-1.043C526.952,406.41,526.957,406.091,526.957,405.8Z" transform="translate(-368.9 -317.79)" fill="#161616"/>
      </g>
    </g>
    <g id="Group_10139" data-name="Group 10139" transform="translate(864 85)">
      <g id="Group_10138" data-name="Group 10138" transform="translate(0)">
        <g transform="matrix(1, 0, 0, 1, -9, -6)" filter="url(#Path_14275)">
          <path id="Path_14275-2" data-name="Path 14275" d="M346.653,286.721h-8.411l.624,3.493c.079.555.164,1.094.245,1.623.176,1.139.344,2.215.447,3.283.059.618.15,1.232.241,1.845a11.57,11.57,0,0,1,.085,4.543c-1.271,5.112-2.453,10.328-3.6,15.372q-.732,3.229-1.472,6.456t-1.5,6.455l-13.945-43.143h-8.581l3.224,9.968q2.195,6.8,4.359,13.612a3.114,3.114,0,0,1,.143,1.446l-.127.586c-1.572,7.283-3.2,14.814-4.931,22.184-.548,2.332-1.231,4.593-1.953,6.987-.326,1.082-.654,2.167-.969,3.261l-.543,1.885h8.689l.076-1.4a172.51,172.51,0,0,1,3.09-24.251l8.328,25.786,3.917-.2,7.962-34.149,4.936,34.165h8.345Z" transform="translate(-300.99 -280.65)" fill="#161616"/>
        </g>
        <g transform="matrix(1, 0, 0, 1, -9, -6)" filter="url(#Path_14276)">
          <path id="Path_14276-2" data-name="Path 14276" d="M456.413,301.391V286.647H448.68v14.5h-3.774v-14.5h-7.721v14.776h-5.7v4.568h5.846v40.585h7.654V305.991H448.8v40.6h7.643V306.018l5.844-.036v-4.591Z" transform="translate(-340.36 -280.65)" fill="#161616"/>
        </g>
        <g transform="matrix(1, 0, 0, 1, -9, -6)" filter="url(#Path_14277)">
          <path id="Path_14277-2" data-name="Path 14277" d="M410.058,313.489a18.007,18.007,0,0,0-13.62-6.6H396.3a18.122,18.122,0,0,0-13.661,6.433c-8.373,9.494-8.383,24.959-.02,34.473a18.129,18.129,0,0,0,13.69,6.483c.138,0,.276,0,.415-.005a18.019,18.019,0,0,0,13.733-7.11,26.955,26.955,0,0,0,5.794-16.586V330.5A26.268,26.268,0,0,0,410.058,313.489Zm-24.814,23.29a26.648,26.648,0,0,1,2.665-19.344,15.4,15.4,0,0,1,2.593-3.393,8.085,8.085,0,0,1,5.776-2.555,8.284,8.284,0,0,1,5.693,2.4,16.728,16.728,0,0,1,3.938,5.924,29.476,29.476,0,0,1,2.151,10.807c-.176,5.32-1.217,9.431-3.278,12.937a18.632,18.632,0,0,1-3.159,3.971,7.864,7.864,0,0,1-10.788-.043C388.15,344.982,386.374,341.579,385.244,336.779Z" transform="translate(-322.49 -287.21)" fill="#161616"/>
        </g>
        <g transform="matrix(1, 0, 0, 1, -9, -6)" filter="url(#Path_14278)">
          <path id="Path_14278-2" data-name="Path 14278" d="M506.657,313.6a17.683,17.683,0,0,0-27.527-.251c-8.366,9.516-8.356,24.981.02,34.474a18.135,18.135,0,0,0,13.667,6.461c.144,0,.289,0,.435-.005a18.048,18.048,0,0,0,13.734-7.136,27.02,27.02,0,0,0,5.778-16.531v-.076A26.594,26.594,0,0,0,506.657,313.6Zm-24.879,23.284a26.7,26.7,0,0,1,2.66-19.494,19.127,19.127,0,0,1,2.458-3.251l.082-.094a7.581,7.581,0,0,1,5.576-2.488l.191,0a8.045,8.045,0,0,1,5.845,2.414,19.393,19.393,0,0,1,4.231,6.889,30.353,30.353,0,0,1,1.746,9.838,26.5,26.5,0,0,1-3.3,12.907,18.488,18.488,0,0,1-3.172,3.96,7.835,7.835,0,0,1-10.677,0C484.688,345.043,482.948,341.749,481.778,336.882Z" transform="translate(-353.76 -287.21)" fill="#161616"/>
        </g>
      </g>
    </g>
  </g>
</svg>
