<svg xmlns="http://www.w3.org/2000/svg" width="61.704" height="57.754" viewBox="0 0 61.704 57.754">
  <path id="Person_Icon" data-name="Person Icon" d="M-178.815,275.559c-4.776,1.222-7.108,5.664-6.664,12.328l3.665-.222c-.222-2.776.111-7.552,3.887-8.441,12.439-3.11,16.548-7.441,17.881-10.217a15.975,15.975,0,0,0,4.109.555h.444a15.044,15.044,0,0,0,4.553-.666c1.333,2.665,5.331,7.108,17.992,10.328,3.887,1,4.109,5.775,3.887,8.552l3.665.222c.444-6.664-2-11.106-6.664-12.328-11.994-3-14.882-6.775-15.548-8.329a10.57,10.57,0,0,0,2.332-2.11c5.664-6.33,4.664-17.214,4.553-18.214-.555-12.439-9.662-15.437-14.993-15.215-5.331-.222-14.438,2.776-14.993,15.215-.111,1-1,11.883,4.553,18.214a14.066,14.066,0,0,0,2.776,2.332C-164.267,269.117-167.487,272.671-178.815,275.559Zm11.772-28.32v-.111c.555-10.884,8.552-11.772,10.884-11.772h.444c1.777-.111,10.773.111,11.328,11.772v.111c0,.111,1,10.106-3.665,15.437-1.888,2.11-4.331,3.11-7.663,3.221h-.222a9.806,9.806,0,0,1-7.663-3.221C-168.043,257.456-167.043,247.349-167.043,247.238Z" transform="translate(186.29 -231.037)" fill="#53bfd2" stroke="#161616" stroke-width="1.5"/>
</svg>
