<svg xmlns="http://www.w3.org/2000/svg" width="19.013" height="19.014" viewBox="0 0 19.013 19.014">
  <path id="Web_Icon" data-name="Web Icon" d="M9.258,18.514A9.257,9.257,0,1,0,0,9.257,9.267,9.267,0,0,0,9.258,18.514ZM3.222,13.827a12.77,12.77,0,0,1,2.695-.676,15.432,15.432,0,0,0,.559,2.322,9.328,9.328,0,0,0,.379.966A7.6,7.6,0,0,1,3.222,13.827ZM1.684,9.257a7.531,7.531,0,0,1,.668-3.11,13.979,13.979,0,0,0,3.355.886c-.063.719-.1,1.464-.1,2.224s.033,1.505.1,2.224a13.98,13.98,0,0,0-3.355.886A7.53,7.53,0,0,1,1.684,9.257ZM9.258,1.683c.181,0,.709.462,1.185,1.889a13.59,13.59,0,0,1,.481,1.973c-.541.038-1.1.058-1.666.058s-1.125-.02-1.665-.058a13.582,13.582,0,0,1,.481-1.973C8.548,2.145,9.077,1.683,9.258,1.683Zm0,5.6c.641,0,1.27-.024,1.878-.068.056.657.086,1.34.086,2.039s-.029,1.382-.085,2.039c-.609-.045-1.237-.068-1.878-.068s-1.269.024-1.878.068c-.056-.657-.086-1.34-.086-2.039s.029-1.382.086-2.039C7.988,7.263,8.617,7.286,9.258,7.286Zm7.574,1.971a7.531,7.531,0,0,1-.668,3.11,13.979,13.979,0,0,0-3.355-.886c.063-.719.1-1.464.1-2.224s-.033-1.506-.1-2.224a13.974,13.974,0,0,0,3.355-.886A7.53,7.53,0,0,1,16.831,9.257ZM9.258,16.831c-.181,0-.709-.462-1.185-1.889a13.591,13.591,0,0,1-.481-1.973c.541-.038,1.1-.058,1.666-.058s1.125.02,1.666.058a13.59,13.59,0,0,1-.481,1.973C9.967,16.369,9.439,16.831,9.258,16.831Zm2.4-.391a9.341,9.341,0,0,0,.379-.966,15.425,15.425,0,0,0,.559-2.322,12.771,12.771,0,0,1,2.695.676A7.605,7.605,0,0,1,11.66,16.44ZM15.293,4.687a12.764,12.764,0,0,1-2.695.676A15.424,15.424,0,0,0,12.04,3.04a9.321,9.321,0,0,0-.379-.966A7.606,7.606,0,0,1,15.293,4.687ZM6.855,2.074a9.336,9.336,0,0,0-.379.966,15.434,15.434,0,0,0-.559,2.322,12.773,12.773,0,0,1-2.695-.676A7.6,7.6,0,0,1,6.855,2.074Z" transform="translate(0.249 0.25)" fill="#bcbcbc" stroke="#fff" stroke-width="0.5"/>
</svg>
