<svg xmlns="http://www.w3.org/2000/svg" width="66.361" height="51.353" viewBox="0 0 66.361 51.353">
  <g id="Book_Session_Icon_Active" data-name="Book Session Icon Active" transform="translate(-2.125 -13.025)">
    <g id="Group_10207" data-name="Group 10207" transform="translate(2.5 13.4)">
      <path id="Path_14385" data-name="Path 14385" d="M67.9,48.719a4.775,4.775,0,0,0-4.819-4.75,4.59,4.59,0,0,0-2.685.826,4.756,4.756,0,0,0-4.406-2.96,4.59,4.59,0,0,0-2.685.826A4.756,4.756,0,0,0,48.9,39.7a4.579,4.579,0,0,0-2.341.62V37.7A12.238,12.238,0,0,0,44.5,13.4H14.755a12.255,12.255,0,0,0,0,24.51H36.924v15.9l-3.236-3.236a4.8,4.8,0,0,0-6.127-.551,5.014,5.014,0,0,0-2.065,3.3,4.709,4.709,0,0,0,1.1,3.787l5.439,6.472A1.359,1.359,0,0,0,33,64a1.323,1.323,0,0,0,.826-.275,1.154,1.154,0,0,0,.138-1.721l-5.439-6.472a2.594,2.594,0,0,1-.551-1.859,2.386,2.386,0,0,1,1.033-1.652,2.488,2.488,0,0,1,3.029.275l3.924,3.924a1.989,1.989,0,0,0,2.272.413,2.119,2.119,0,0,0,1.239-1.928V29.441A2.321,2.321,0,0,1,41.812,27.1a2.135,2.135,0,0,1,1.652.688,2.4,2.4,0,0,1,.688,1.652V46.791a1.239,1.239,0,0,0,2.479,0V44.45a2.341,2.341,0,0,1,4.682,0v4.475a1.239,1.239,0,0,0,2.479,0V46.584a2.341,2.341,0,0,1,4.682,0v4.475a1.239,1.239,0,0,0,2.479,0V48.719a2.341,2.341,0,1,1,4.682,0V62.695a1.239,1.239,0,1,0,2.479,0ZM45.116,26a4.771,4.771,0,0,0-8.124,3.442v5.921H14.755a9.811,9.811,0,1,1,0-19.621H44.428a9.784,9.784,0,0,1,2.134,19.346V29.441A5.028,5.028,0,0,0,45.116,26Z" transform="translate(-2.5 -13.4)" fill="#53bfd2" stroke="#161616" stroke-width="0.75"/>
      <path id="Path_14386" data-name="Path 14386" d="M31.033,23.336a1.217,1.217,0,1,0-1.721,1.721l2.2,2.2H17.539a1.239,1.239,0,1,0,0,2.478H31.515l-2.2,2.2a1.205,1.205,0,0,0,0,1.721,1.309,1.309,0,0,0,.9.344,1.45,1.45,0,0,0,.9-.344L35.371,29.4a1.205,1.205,0,0,0,0-1.721Z" transform="translate(-6.799 -16.383)" fill="#fff" stroke="#161616" stroke-width="0.75"/>
    </g>
  </g>
</svg>
