<svg id="Payment_Icon_Active" data-name="Payment Icon Active" xmlns="http://www.w3.org/2000/svg" width="55.723" height="55.603" viewBox="0 0 55.723 55.603">
  <rect id="Rectangle_6326" data-name="Rectangle 6326" width="5.584" height="1.861" transform="translate(40.019 37.108)" fill="#fff"/>
  <rect id="Rectangle_6327" data-name="Rectangle 6327" width="5.584" height="1.861" transform="translate(32.574 37.108)" fill="#fff"/>
  <rect id="Rectangle_6328" data-name="Rectangle 6328" width="5.584" height="1.861" transform="translate(25.128 37.108)" fill="#fff"/>
  <path id="Path_14304" data-name="Path 14304" d="M54.9,19.758,36.483,1.34A2.78,2.78,0,0,0,34.5.516H34.5a2.754,2.754,0,0,0-1.963.824L13,20.872H2.792A2.792,2.792,0,0,0,0,23.664V49.723a2.792,2.792,0,0,0,2.792,2.792H16.581l2.777,2.78a2.78,2.78,0,0,0,1.979.824h.007a2.755,2.755,0,0,0,1.964-.824l2.783-2.78H47.465a2.792,2.792,0,0,0,2.792-2.792V28.349l4.637-4.637a2.777,2.777,0,0,0,0-3.954ZM43.059,10.551,32.738,20.872h-7.9L39.107,6.6Zm-9.208-7.9a.918.918,0,0,1,1.3-.015l.015.015,2.627,2.631L22.2,20.872H15.63ZM21.99,53.983a.905.905,0,0,1-.651.279.931.931,0,0,1-.663-.279l-1.462-1.468h4.245ZM48.4,49.723a.931.931,0,0,1-.931.931H2.792a.931.931,0,0,1-.931-.931V36.693H48.4Zm0-14.891H1.861V29.248H48.4Zm0-7.445H1.861V23.664a.931.931,0,0,1,.931-.931H47.465a.931.931,0,0,1,.931.931Zm5.187-4.995h0l-3.325,3.325V23.664a2.792,2.792,0,0,0-2.792-2.792h-12.1l9.005-9.005,9.207,9.207a.93.93,0,0,1,.279.665A.912.912,0,0,1,53.582,22.392Z" transform="translate(0 -0.516)" fill="#53bfd2"/>
  <path id="Path_14305" data-name="Path 14305" d="M29.953,366.03a3.721,3.721,0,0,0,.381-.381,3.69,3.69,0,0,0,4.9.631,3.784,3.784,0,0,0,1.616-3.068,3.723,3.723,0,0,0-3.723-3.723,2.832,2.832,0,0,0-.551.047l-.024.007h-.027a3.675,3.675,0,0,0-2.19,1.236,3.723,3.723,0,1,0-.381,5.251Zm2.937-4.659a1.128,1.128,0,0,1,.235-.019,1.861,1.861,0,0,1,1.861,1.861,1.825,1.825,0,0,1-.366,1.092c-.034.046-.06.093-.1.141-.007.008-.016.012-.023.02a1.85,1.85,0,1,1-1.61-3.094Zm-5.349-.019a1.861,1.861,0,1,1-1.861,1.861A1.861,1.861,0,0,1,27.542,361.351Z" transform="translate(-21.027 -317.728)" fill="#fff"/>
</svg>
