<svg xmlns="http://www.w3.org/2000/svg" width="178.541" height="133.449" viewBox="0 0 178.541 133.449">
  <g id="training1on1" transform="translate(0.25 0.25)">
    <path id="Path_13903" data-name="Path 13903" d="M357.366,305.377a2.635,2.635,0,0,0-.064-.559,26.067,26.067,0,0,0-1.213-7.541,26.424,26.424,0,0,0-1.93-4.488l-.012-.026c-.073-.131-.147-.267-.222-.4s-.15-.264-.228-.394q-.371-.63-.772-1.233l-.316-.463a26.492,26.492,0,0,0-21.771-11.383H317.885a2.251,2.251,0,0,1-.851-.167c-.067-.029-.133-.06-.2-.093a2.261,2.261,0,0,1-1.207-2v-5.406a21.493,21.493,0,0,0,5.377-4.48A27.952,27.952,0,0,0,322.6,219.16a30.536,30.536,0,0,0-5.225-2.89c-.338-.148-.677-.289-1.022-.423l-.026-.011a11.647,11.647,0,0,0-5.376-12.126c-.319-.2-.651-.374-.989-.538-.085-.041-.17-.081-.255-.119s-.171-.081-.26-.115a11.525,11.525,0,0,0-4.552-.929,11.63,11.63,0,0,0-11.427,13.827c-11.015,4.3-18.795,14.6-18.795,26.6a28.258,28.258,0,0,0,14.111,24.312,21.275,21.275,0,0,0,4.65,4.03c.238.156.48.307.727.449v5.406a2.261,2.261,0,0,1-2.26,2.257H278.947a26.379,26.379,0,0,0-14.754,4.5q-.873.585-1.693,1.238l.015,0a21.181,21.181,0,0,1,5.785,2.262c.02.014.041.024.063.037.145.081.287.167.428.255a20.678,20.678,0,0,1,5.555-2.431c.182-.049.361-.1.535-.137a17.082,17.082,0,0,1,5.17-.53h6.6l0,.014a18.425,18.425,0,0,0,9.031,13.593,17.71,17.71,0,0,0,2.184,1.083l.384.156a.093.093,0,0,1,.026.011,18.391,18.391,0,0,0,24.85-14.856h6.606v13.542a15.646,15.646,0,0,0,3.747,10.16,14.942,14.942,0,0,1,.275,19.066c-.17.208-.341.411-.52.611l-1.913,2.132-.924,1.03a2.6,2.6,0,0,0,1.207,4.231,2.653,2.653,0,0,0,.724.1,2.587,2.587,0,0,0,1.932-.862l.214-.24,2.625-2.923a20.81,20.81,0,0,0,1.345-1.667,20.523,20.523,0,0,0,1.171-1.826,20.053,20.053,0,0,0,2.633-9.954,19.6,19.6,0,0,0-.1-1.99,20.137,20.137,0,0,0-4.719-11.082,10.454,10.454,0,0,1-2.5-6.788V284.482a21.312,21.312,0,0,1,11.869,6.794q.172.186.33.38c.084.093.164.189.237.286s.15.182.22.274a.521.521,0,0,1,.06.078c.089.108.174.22.258.335.03.038.061.081.1.124a21.967,21.967,0,0,1,1.58,2.488,1.525,1.525,0,0,0,.086.145l.014.024a21.138,21.138,0,0,1,2.5,9.838v0c0,.041,0,.086,0,.127s0,.109.006.16v11.169a2.3,2.3,0,0,0-.026.358v15.3a2.594,2.594,0,0,0,4.673,1.554,2.566,2.566,0,0,0,.519-1.554v-15.3l-.032-11.171A2.549,2.549,0,0,0,357.366,305.377ZM304.892,207.2a6.385,6.385,0,0,1,2.532.52,6.035,6.035,0,0,1,.808.416,6.443,6.443,0,0,1,3.105,5.51,6.689,6.689,0,0,1-.038.7,31.841,31.841,0,0,0-12.789,0l-.024,0a6.3,6.3,0,0,1-.038-.7A6.453,6.453,0,0,1,304.892,207.2Zm-18.7,34.16a2.6,2.6,0,0,0-2.6,2.6v8.9c0,.717.038,1.423.105,2.121l0,.031a22.448,22.448,0,0,1-3.845-12.57c0-12.983,11.227-23.544,25.028-23.544a26.2,26.2,0,0,1,10.318,2.1c.36.153.716.313,1.067.484.176.084.35.171.524.26.19.1.379.2.567.3a23.354,23.354,0,0,1,12.557,20.407,22.442,22.442,0,0,1-3.817,12.526.45.45,0,0,1-.028.044c.069-.709.105-1.426.105-2.152V244.62a2.594,2.594,0,0,0-2.6-2.6,28.994,28.994,0,0,1-18.675-6.793q-.44-.367-.867-.756a2.6,2.6,0,0,0-3.745.263A18.293,18.293,0,0,1,286.2,241.362Zm2.6,11.493v-6.443a23.464,23.464,0,0,0,13.724-6.438c.776.608,1.579,1.18,2.4,1.708a34.118,34.118,0,0,0,16.076,5.436v5.737a16.1,16.1,0,0,1-22.36,14.832c-.362-.154-.715-.319-1.062-.5-.234-.119-.468-.243-.694-.376-.324-.187-.643-.387-.953-.6A16.084,16.084,0,0,1,288.793,252.855ZM317.878,284.1a13.194,13.194,0,0,1-17.841,9.953.535.535,0,0,0-.057-.023l-.234-.1a13.132,13.132,0,0,1-1.5-.755q-.245-.144-.483-.3a.082.082,0,0,1-.026-.015,13.228,13.228,0,0,1-5.831-8.775,7.459,7.459,0,0,0,7.447-7.45V273.41a21.221,21.221,0,0,0,11.085,0v3.224a7.445,7.445,0,0,0,3.311,6.189,6.615,6.615,0,0,0,.59.358c.09.052.184.1.28.145a.659.659,0,0,0,.066.034,7.415,7.415,0,0,0,3.2.724Zm35.946,11.6c.022-.024.044-.049.066-.075C353.868,295.651,353.845,295.675,353.824,295.7Zm.168-.217c.014-.02.031-.04.044-.06C354.023,295.443,354.006,295.463,353.992,295.483Zm.144-.229.026-.046Zm.116-.241.014-.027Zm.092-.249,0-.012Zm-.622,1.051c-.028.029-.06.057-.09.084C353.662,295.871,353.694,295.843,353.722,295.814Zm-.394.332q-.108.073-.225.137Q353.219,296.219,353.327,296.146Z" transform="translate(-179.325 -202.01)" fill="#efefef" stroke="#f8f8f8" stroke-width="0.5"/>
    <g id="Group_9911" data-name="Group 9911">
      <path id="Path_13900" data-name="Path 13900" d="M210.681,275.6a2.6,2.6,0,0,0-2.6,2.6v15.3a2.6,2.6,0,0,0,5.194,0V278.2A2.6,2.6,0,0,0,210.681,275.6Z" transform="translate(-208.064 -163.144)" fill="#efefef" stroke="#f8f8f8" stroke-width="0.5"/>
      <path id="Path_13901" data-name="Path 13901" d="M323.418,302.76h-7.791a8.76,8.76,0,0,0-3.7.816,26.43,26.43,0,0,0-7.162-16.346,26.7,26.7,0,0,0-2.679-2.477q-.889-.72-1.844-1.363a26.4,26.4,0,0,0-14.757-4.5H272.534a2.26,2.26,0,0,1-2.257-2.257v-5.406a21.425,21.425,0,0,0,5.377-4.479,28.255,28.255,0,0,0,14.108-24.312c0-12-7.78-22.3-18.791-26.6a11.852,11.852,0,0,0,.208-2.188,11.638,11.638,0,1,0-23.069,2.188c-11.016,4.3-18.793,14.6-18.793,26.6a28.253,28.253,0,0,0,14.108,24.311,21.491,21.491,0,0,0,5.377,4.48v5.406a2.259,2.259,0,0,1-2.256,2.257H233.595a26.508,26.508,0,0,0-23.305,13.871,2.6,2.6,0,1,0,4.563,2.477,21.333,21.333,0,0,1,14.65-10.758v13.145a10.461,10.461,0,0,1-2.5,6.788,20.132,20.132,0,0,0,.329,26.519l2.838,3.163a2.6,2.6,0,0,0,3.866-3.47l-2.838-3.162a14.933,14.933,0,0,1-.245-19.678,15.669,15.669,0,0,0,3.744-10.16V284.084H241.3a18.383,18.383,0,0,0,36.478,0h6.606v13.542a15.642,15.642,0,0,0,.872,5.144c-.145-.008-.293-.011-.442-.011h-7.68a8.839,8.839,0,0,0-8.83,8.829v14.54a8.839,8.839,0,0,0,8.83,8.829h7.68a8.838,8.838,0,0,0,8.73-7.53H306.9a8.841,8.841,0,0,0,8.732,7.53h7.791a8.838,8.838,0,0,0,8.828-8.829v-14.54A8.838,8.838,0,0,0,323.418,302.76ZM259.541,207.2a6.451,6.451,0,0,1,6.444,6.446,6.315,6.315,0,0,1-.038.7,31.842,31.842,0,0,0-12.812,0,6.312,6.312,0,0,1-.04-.7A6.454,6.454,0,0,1,259.541,207.2Zm-18.7,34.822a2.6,2.6,0,0,0-2.6,2.6v8.235a21.342,21.342,0,0,0,.109,2.152,22.447,22.447,0,0,1-3.845-12.57c0-12.983,11.227-23.544,25.029-23.544s25.029,10.561,25.029,23.544a22.449,22.449,0,0,1-3.846,12.57,20.9,20.9,0,0,0,.108-2.152v-8.9a2.6,2.6,0,0,0-2.6-2.6,18.293,18.293,0,0,1-14.1-6.624,2.6,2.6,0,0,0-3.742-.263A29.013,29.013,0,0,1,240.844,242.024Zm2.6,10.831v-5.737a34.17,34.17,0,0,0,18.475-7.144,23.472,23.472,0,0,0,13.724,6.438v6.443a16.1,16.1,0,0,1-32.2,0Zm16.1,42.12a13.212,13.212,0,0,1-12.989-10.891,7.457,7.457,0,0,0,7.445-7.45V273.41a21.233,21.233,0,0,0,11.088,0v3.224a7.457,7.457,0,0,0,7.443,7.45A13.211,13.211,0,0,1,259.541,294.975Zm28.911,31.154a3.639,3.639,0,0,1-3.635,3.635h-7.68a3.639,3.639,0,0,1-3.635-3.635v-14.54a3.639,3.639,0,0,1,3.635-3.635h7.68a3.639,3.639,0,0,1,3.635,3.635Zm18.348-3.894H293.644v-6.751H306.8Zm0-11.945h-11.23a20.307,20.307,0,0,0-3.489-5.876,9.947,9.947,0,0,1-.7-.917,10.445,10.445,0,0,1-1.8-5.625c0-.083,0-.163,0-.246V284.485c.222.044.442.09.663.142a21.161,21.161,0,0,1,5.8,2.265c.167.093.33.189.49.292A21.37,21.37,0,0,1,306.8,305.4Zm20.254,15.839a3.639,3.639,0,0,1-3.635,3.635h-7.791a3.639,3.639,0,0,1-3.635-3.635v-14.54a3.639,3.639,0,0,1,3.635-3.635h7.791a3.639,3.639,0,0,1,3.635,3.635Z" transform="translate(-207.066 -202.01)" fill="#efefef" stroke="#f8f8f8" stroke-width="0.5"/>
      <path id="Path_13902" data-name="Path 13902" d="M210.669,273.147a2.6,2.6,0,1,0-1.837-.761A2.611,2.611,0,0,0,210.669,273.147Z" transform="translate(-208.071 -167.183)" fill="#efefef" stroke="#f8f8f8" stroke-width="0.5"/>
    </g>
  </g>
</svg>
