<svg xmlns="http://www.w3.org/2000/svg" width="39.163" height="37.643" viewBox="0 0 39.163 37.643">
  <g id="Rise_and_Shine" data-name="Rise and Shine" transform="translate(0.125 -9.875)">
    <path id="Path_14390" data-name="Path 14390" d="M34.4,27.936h2.989a1.52,1.52,0,1,1,0,3.04H34.4a1.52,1.52,0,1,1,0-3.04ZM1.52,30.976H4.509a1.52,1.52,0,1,0,0-3.04H1.52a1.52,1.52,0,1,0,0,3.04ZM19.456,16.029a1.52,1.52,0,0,0,1.52-1.52V11.52a1.52,1.52,0,0,0-3.04,0v2.989A1.52,1.52,0,0,0,19.456,16.029ZM7.812,19.962a1.52,1.52,0,1,0,2.15-2.15L7.848,15.7a1.52,1.52,0,0,0-2.15,2.15Zm23.288,0,2.114-2.114a1.52,1.52,0,0,0-2.15-2.15l-2.114,2.114a1.52,1.52,0,1,0,2.15,2.15Zm7.812,18.462a1.52,1.52,0,0,1-1.52,1.52H1.52a1.52,1.52,0,1,1,0-3.04H12.062a10.5,10.5,0,1,1,14.79,0H37.393A1.52,1.52,0,0,1,38.913,38.424ZM19.026,36.9h.86a7.461,7.461,0,1,0-.86,0Zm12.387,7.448H7.5a1.52,1.52,0,0,0,0,3.04H31.414a1.52,1.52,0,0,0,0-3.04Z" transform="translate(0 0)" fill="##53bfd2" stroke="#53bfd2" stroke-width="0.25"/>
  </g>
</svg>
