<svg xmlns="http://www.w3.org/2000/svg" width="110" height="110" viewBox="0 0 110 110">
  <g id="Icon_3" data-name="Icon 3" transform="translate(-1258 -979)">
    <circle id="Ellipse_2817" data-name="Ellipse 2817" cx="55" cy="55" r="55" transform="translate(1258 979)" fill="#f6f6f6"/>
    <path id="Path_14196" data-name="Path 14196" d="M74.881,74.734c-.384-1.295-1.56-2.058-3.5-2.27a9.487,9.487,0,0,0-1.012-.056,9.318,9.318,0,0,0-4.668,1.228A29.023,29.023,0,0,1,59.585,76.6a8.71,8.71,0,0,0,.849-1.279,2.087,2.087,0,0,0,.11-.242,3.127,3.127,0,0,0-.2-2.947,3.577,3.577,0,0,0-3.029-1.443L57,70.677l-9.745,0c-2.888-3.478-8.2-5.223-16.2-5.328l-.759-.006H30.28a1.954,1.954,0,0,0-.354.036v-.924a1.94,1.94,0,0,0-1.94-1.94H19.1a1.94,1.94,0,0,0-1.94,1.94V85.788a1.94,1.94,0,0,0,1.94,1.94h8.89a1.94,1.94,0,0,0,1.94-1.94v-.594c9.662,2.411,16.759,3.583,21.69,3.583,7.645,0,20.157-8.872,20.685-9.249.034-.025.068-.053.1-.08C73.256,78.75,75.521,76.891,74.881,74.734Zm-46.9,11.053H19.1V64.451h8.89Zm43.188-7.838s-12.447,8.889-19.558,8.889q-7.112,0-21.336-3.555v-16l.747,0q11.808.156,15.255,5.33H56.949l.277.006q2.128.1,1.5,1.771-2.169,4-9.085,4a33.454,33.454,0,0,1-5.138-.443v1.777l.826.109a37.771,37.771,0,0,0,4.578.286,30.7,30.7,0,0,0,16.823-4.838,7.465,7.465,0,0,1,3.644-.934,7.62,7.62,0,0,1,.8.044C73.532,74.65,73.822,75.777,71.174,77.949Z" transform="translate(1262.811 994.902)" fill="#222"/>
    <path id="Path_14197" data-name="Path 14197" d="M37.792,6.967a.795.795,0,0,0-.645.734v4.273a.712.712,0,1,0,1.424,0V7.7a.712.712,0,0,0-.779-.734Zm-19.23,6.41a.721.721,0,0,0-.49,1.18l6.41,7.834A.713.713,0,0,0,25.6,21.5l-6.41-7.834a.712.712,0,0,0-.623-.289Zm38.459,0a.845.845,0,0,0-.49.289L50.122,21.5a.713.713,0,0,0,1.113.89l6.41-7.834a.712.712,0,0,0-.623-1.18Zm-19.3,8.569a.712.712,0,0,0-.467.334l-5.542,9.014-10.372,2.07a.712.712,0,0,0-.378,1.2l7.589,7.589-1.38,10.327a.712.712,0,0,0,1,.734l9.682-4.14,9.682,4.14a.712.712,0,0,0,1-.734l-.868-6.432a.712.712,0,1,0-1.4.178l.69,5.208-8.814-3.784a.712.712,0,0,0-.579,0l-8.814,3.784,1.269-9.459a.712.712,0,0,0-.2-.6l-6.9-6.9,9.37-1.87a.712.712,0,0,0,.467-.312l5.1-8.279,5.1,8.279a.712.712,0,0,0,.467.312l9.37,1.87-6.9,6.9A.724.724,0,1,0,46.917,42.4l7.834-7.834a.712.712,0,0,0-.378-1.2L44,31.294,38.459,22.28a.712.712,0,0,0-.668-.334Q37.758,21.944,37.725,21.946ZM8.5,30.493a.713.713,0,0,0,.045,1.424l4.273.712a.721.721,0,0,0,.223-1.424l-4.273-.712a.713.713,0,0,0-.2,0Q8.536,30.491,8.5,30.493Zm58.445,0-4.273.712a.721.721,0,0,0,.223,1.424l4.273-.712a.721.721,0,1,0-.223-1.424ZM19.942,44.737a.713.713,0,0,0-.178.067l-9.259,4.273a.712.712,0,1,0,.579,1.291l9.259-4.273a.712.712,0,0,0-.4-1.358Zm35.61,0a.712.712,0,0,0-.178,1.358l9.259,4.273a.712.712,0,1,0,.579-1.291L55.953,44.8A.712.712,0,0,0,55.552,44.737ZM37.792,56.822a.795.795,0,0,0-.645.734v9.971a.712.712,0,1,0,1.424,0V57.556a.712.712,0,0,0-.779-.734ZM23.5,58.269a.712.712,0,0,0-.49.356l-2.137,3.561a.712.712,0,1,0,1.2.712l2.137-3.561a.712.712,0,0,0-.712-1.068Zm28.488,0a.712.712,0,0,0-.49,1.068L53.638,62.9a.712.712,0,1,0,1.2-.712L52.7,58.625A.712.712,0,0,0,51.991,58.269Z" transform="translate(1274.828 986.294)" fill="#53bfd2" stroke="#53bfd2" stroke-width="1"/>
  </g>
</svg>
