<svg xmlns="http://www.w3.org/2000/svg" width="179.182" height="132.901" viewBox="0 0 179.182 132.901">
  <g id="class" transform="translate(106.058 -213.15)">
    <g id="Icon_ionic-md-add-circle-outline" data-name="Icon ionic-md-add-circle-outline" transform="translate(-106.058 213.15)">
      <g id="Path_14193" data-name="Path 14193" transform="translate(-3.375 -3.375)" fill="none">
        <path d="M28.278,3.375a24.9,24.9,0,1,0,24.9,24.9,24.9,24.9,0,0,0-24.9-24.9Z" stroke="none"/>
        <path d="M 28.27777671813965 8.375 C 22.96012115478516 8.375 17.96170043945313 10.44485473632813 14.20327758789063 14.20327758789063 C 10.44485473632813 17.96170043945313 8.375 22.96012115478516 8.375 28.27777671813965 C 8.375 33.59543228149414 10.44485473632813 38.59385681152344 14.20327758789063 42.35227584838867 C 17.96170043945313 46.11069869995117 22.96012115478516 48.1805534362793 28.27777671813965 48.1805534362793 C 33.59543228149414 48.1805534362793 38.59385681152344 46.11069869995117 42.35227584838867 42.35227584838867 C 46.11069869995117 38.59385681152344 48.1805534362793 33.59543228149414 48.1805534362793 28.27777671813965 C 48.1805534362793 22.96012115478516 46.11069869995117 17.96170043945313 42.35227584838867 14.20327758789063 C 38.59385681152344 10.44485473632813 33.59543228149414 8.375 28.27777671813965 8.375 M 28.27777671813965 3.375 C 42.03416442871094 3.375 53.1805534362793 14.52138900756836 53.1805534362793 28.27777671813965 C 53.1805534362793 42.03416442871094 42.03416442871094 53.1805534362793 28.27777671813965 53.1805534362793 C 14.52138900756836 53.1805534362793 3.375 42.03416442871094 3.375 28.27777671813965 C 3.375 14.52138900756836 14.52138900756836 3.375 28.27777671813965 3.375 Z" stroke="none" fill="#efefef"/>
      </g>
    </g>
    <g id="Icon_feather-plus" data-name="Icon feather-plus" transform="translate(-90.964 228.243)">
      <path id="Path_14194" data-name="Path 14194" d="M18,7.5V26.827" transform="translate(-8.337 -7.5)" fill="none" stroke="#efefef" stroke-linecap="round" stroke-linejoin="round" stroke-width="5"/>
      <path id="Path_14195" data-name="Path 14195" d="M7.5,18H26.827" transform="translate(-7.5 -8.337)" fill="none" stroke="#efefef" stroke-linecap="round" stroke-linejoin="round" stroke-width="5"/>
    </g>
    <g id="class-open-file" transform="translate(-48.096 224.832)">
      <path id="Path_14359" data-name="Path 14359" d="M90.39,52.356H14.627A12.641,12.641,0,0,1,2,39.729v-20.2a2.525,2.525,0,0,1,5.051,0v20.2A7.585,7.585,0,0,0,14.627,47.3H90.39a7.585,7.585,0,0,0,7.576-7.576v-20.2a2.525,2.525,0,0,1,5.051,0v20.2A12.641,12.641,0,0,1,90.39,52.356Z" transform="translate(8.102 68.864)" fill="#efefef"/>
      <path id="Path_14360" data-name="Path 14360" d="M100.491,35.457a2.526,2.526,0,0,1-2.525-2.525v-20.3A7.585,7.585,0,0,0,90.39,5.051H14.627a7.585,7.585,0,0,0-7.576,7.576v20.2A2.525,2.525,0,1,1,2,32.83v-20.2A12.641,12.641,0,0,1,14.627,0H90.39a12.641,12.641,0,0,1,12.627,12.627v20.3A2.526,2.526,0,0,1,100.491,35.457Z" transform="translate(8.102 0)" fill="#efefef"/>
      <path id="Path_14361" data-name="Path 14361" d="M17.678,39.3H7.576A7.585,7.585,0,0,1,0,31.729V16.576A7.585,7.585,0,0,1,7.576,9h10.1a2.525,2.525,0,0,1,0,5.051H7.576a2.53,2.53,0,0,0-2.525,2.525V31.729a2.53,2.53,0,0,0,2.525,2.525h10.1a2.525,2.525,0,1,1,0,5.051Z" transform="translate(0 36.457)" fill="#efefef"/>
      <path id="Path_14362" data-name="Path 14362" d="M22.678,39.3H7.525A2.526,2.526,0,0,1,5,36.78V11.525a2.525,2.525,0,1,1,5.051,0V34.254H22.678a2.525,2.525,0,0,1,0,5.051Z" transform="translate(20.254 36.457)" fill="#efefef"/>
      <path id="Path_14363" data-name="Path 14363" d="M26.364,39.3H17.525a2.525,2.525,0,1,1,0-5.051h8.839a3.788,3.788,0,0,0,0-7.576H23.839A8.839,8.839,0,1,1,23.839,9h8.839a2.525,2.525,0,0,1,0,5.051H23.839a3.788,3.788,0,1,0,0,7.576h2.525a8.839,8.839,0,1,1,0,17.678Z" transform="translate(60.762 36.457)" fill="#efefef"/>
      <path id="Path_14364" data-name="Path 14364" d="M31.364,39.3H22.525a2.525,2.525,0,0,1,0-5.051h8.839a3.788,3.788,0,0,0,0-7.576H28.839A8.839,8.839,0,0,1,28.839,9h8.839a2.525,2.525,0,1,1,0,5.051H28.839a3.788,3.788,0,1,0,0,7.576h2.525a8.839,8.839,0,0,1,0,17.678Z" transform="translate(81.017 36.457)" fill="#efefef"/>
      <path id="Path_14365" data-name="Path 14365" d="M27.678,39.3a2.526,2.526,0,0,1-2.525-2.525V19.1a5.051,5.051,0,0,0-10.1,0V36.78a2.525,2.525,0,0,1-5.051,0V19.1a10.1,10.1,0,1,1,20.2,0V36.78A2.526,2.526,0,0,1,27.678,39.3Z" transform="translate(40.508 36.457)" fill="#efefef"/>
      <path id="Path_14366" data-name="Path 14366" d="M25.4,17.051H12.775a2.525,2.525,0,1,1,0-5.051H25.4a2.525,2.525,0,1,1,0,5.051Z" transform="translate(41.521 48.61)" fill="#efefef"/>
    </g>
  </g>
</svg>
