<svg xmlns="http://www.w3.org/2000/svg" width="124.029" height="110" viewBox="0 0 124.029 110">
  <g id="Date_Social" data-name="Date Social" transform="translate(224.638 -74.28)">
    <circle id="Ellipse_2816" data-name="Ellipse 2816" cx="55" cy="55" r="55" transform="translate(-224.263 74.28)" fill="#fff"/>
    <g id="noun_connect_636096" transform="translate(-237.121 74.298)">
      <g id="Group_10214" data-name="Group 10214" transform="translate(12.858 12.86)">
        <path id="Path_14388" data-name="Path 14388" d="M78.757,68.856A9.842,9.842,0,0,0,73.3,70.5l-8.622-8.622a17.844,17.844,0,0,0,0-22.234L73.3,31.015a9.895,9.895,0,1,0-2.8-2.8l-8.622,8.624a17.79,17.79,0,0,0-22.234,0L31.017,28.22a9.908,9.908,0,1,0-2.8,2.8l8.624,8.624a17.844,17.844,0,0,0,0,22.234L28.218,70.5a9.9,9.9,0,1,0,2.8,2.8l8.624-8.622a17.794,17.794,0,0,0,22.232-.006L70.5,73.293a9.906,9.906,0,1,0,8.262-4.437Zm-4.2-50.3a5.94,5.94,0,0,1,8.4,8.4,6.082,6.082,0,0,1-8.4,0A5.95,5.95,0,0,1,74.556,18.554Zm-56,8.4a5.941,5.941,0,1,1,8.4,0A6.085,6.085,0,0,1,18.556,26.955Zm8.4,56a6.084,6.084,0,0,1-8.4,0,5.94,5.94,0,1,1,8.4,0Zm14-22.4a13.861,13.861,0,1,1,9.8,4.059A13.874,13.874,0,0,1,40.956,60.554Zm42,22.4a6.084,6.084,0,0,1-8.4,0,5.94,5.94,0,1,1,8.4,0Z" transform="translate(-12.858 -12.86)" fill="#53bfd2" stroke="#fff" stroke-width="0.75"/>
      </g>
    </g>
    <path id="Path_14177" data-name="Path 14177" d="M-93.035,179.549a1.066,1.066,0,0,1-1.484-.157l-3.032-3.745a1.042,1.042,0,0,1-.2-.9.972.972,0,0,1,.562-.691l5.882-2.872-14.23-7.075,3.958,15.394,1.77-2.26a1.036,1.036,0,0,1,1.46-.121,1.036,1.036,0,0,1,.167,1.4l-3.056,3.953a1.054,1.054,0,0,1-1.482.175,1.045,1.045,0,0,1-.369-.565l-5.006-19.677a1.052,1.052,0,0,1,.338-1.042,1,1,0,0,1,1.088-.114l18.17,9.018a1.067,1.067,0,0,1,.587.942,1.008,1.008,0,0,1-.59.949l-6.609,3.221,2.223,2.746A1.019,1.019,0,0,1-93.035,179.549Z" transform="translate(-12.724 -9.051)" fill="#161616" stroke="#161616" stroke-width="0.05"/>
    <path id="Path_9284" data-name="Path 9284" d="M-122.693,156.934a5.335,5.335,0,0,1,1.086.143q3.665,1.264,7.316,2.582a1.536,1.536,0,0,1,1.061,1.895,1.536,1.536,0,0,1-1.895,1.062,1.635,1.635,0,0,1-.157-.054q-3.73-1.294-7.439-2.633a1.484,1.484,0,0,1-1.042-1.526A1.7,1.7,0,0,1-122.693,156.934Z" transform="translate(-13.295 -9.205)" fill="#53bfd2"/>
    <path id="Path_9285" data-name="Path 9285" d="M-110.926,158.652a1.4,1.4,0,0,1-1.5-.566q-2.069-2.634-4.1-5.3a1.511,1.511,0,0,1,.2-2.127c.025-.02.049-.038.075-.057a1.506,1.506,0,0,1,2.111.276l.018.023c1.384,1.751,2.757,3.512,4.1,5.293a1.527,1.527,0,0,1-.236,2.147A1.523,1.523,0,0,1-110.926,158.652Z" transform="translate(-13.043 -9.447)" fill="#53bfd2"/>
    <path id="Path_9286" data-name="Path 9286" d="M-104.842,148.31c0,.108.03.353.023.593q-.079,2.483-.172,4.967a1.546,1.546,0,0,1-1.433,1.65,1.545,1.545,0,0,1-1.65-1.432,1.574,1.574,0,0,1,.01-.32c.053-1.722.108-3.444.188-5.165a1.506,1.506,0,0,1,1.385-1.517A1.555,1.555,0,0,1-104.842,148.31Z" transform="translate(-12.722 -9.564)" fill="#53bfd2"/>
  </g>
</svg>
