<svg xmlns="http://www.w3.org/2000/svg" width="44.783" height="41.402" viewBox="0 0 44.783 41.402">
  <path id="Availability_Icon" data-name="Availability Icon" d="M3.708,23.91a1.61,1.61,0,0,0,.514,1.231,1.834,1.834,0,0,0,1.323.478H8.65a1.776,1.776,0,0,0,1.268-.5,1.615,1.615,0,0,0,.533-1.213,1.716,1.716,0,0,0-.514-1.3,1.793,1.793,0,0,0-1.268-.514H5.545a1.786,1.786,0,0,0-1.323.514A1.663,1.663,0,0,0,3.708,23.91ZM6.96,35.265A6.32,6.32,0,0,0,8.908,39.9a6.28,6.28,0,0,0,4.612,1.948h12.6A6.193,6.193,0,0,0,30.7,39.914a6.381,6.381,0,0,0,1.911-4.648,5.93,5.93,0,0,0-.386-2.26,10.54,10.54,0,0,0,3.62-3.9,10.825,10.825,0,0,0,.459-9.5,10.9,10.9,0,0,0-5.861-5.861,10.608,10.608,0,0,0-4.263-.882,10.781,10.781,0,0,0-5.549,1.488,11.017,11.017,0,0,0-4.005,4.005,10.862,10.862,0,0,0-1.451,5.53v.625a7.537,7.537,0,0,0-3.638,4.575,6.39,6.39,0,0,0-3.326,2.333A6.322,6.322,0,0,0,6.96,35.265ZM9.826,9.249A1.632,1.632,0,0,0,10.3,10.48l2.958,3.105a1.939,1.939,0,0,0,2.591,0,1.731,1.731,0,0,0,.514-1.286,1.79,1.79,0,0,0-.514-1.286L12.821,7.981a1.906,1.906,0,0,0-1.286-.533,1.6,1.6,0,0,0-1.249.514A1.842,1.842,0,0,0,9.826,9.249ZM10.6,35.265a2.856,2.856,0,0,1,.735-1.984,2.8,2.8,0,0,1,1.874-.937l1.139-.147c.239,0,.367-.147.367-.423l.165-1.029A4.1,4.1,0,0,1,16.22,28.1a3.848,3.848,0,0,1,2.719-1.066A3.948,3.948,0,0,1,21.714,28.1a4.15,4.15,0,0,1,1.378,2.646l.147,1.194c.11.276.257.423.441.423H26.1a2.864,2.864,0,0,1,2.058.864,2.735,2.735,0,0,1,.864,2.058,2.928,2.928,0,0,1-.864,2.113,2.781,2.781,0,0,1-2.058.882H13.519a2.735,2.735,0,0,1-2.076-.882A2.953,2.953,0,0,1,10.6,35.265Zm8.121-11.741a7.453,7.453,0,0,1,2.333-5.071A7.177,7.177,0,0,1,26.178,16.4,7.078,7.078,0,0,1,31.4,18.582a7.292,7.292,0,0,1,2.15,5.31,7.146,7.146,0,0,1-.937,3.583,7.5,7.5,0,0,1-2.536,2.664,5.674,5.674,0,0,0-3.73-1.341,7.465,7.465,0,0,0-2.829-3.84,7.675,7.675,0,0,0-4.557-1.433h-.239ZM24.4,7.448a1.777,1.777,0,0,0,.533,1.286,1.81,1.81,0,0,0,3.087-1.286v-4.3a1.615,1.615,0,0,0-.533-1.213,1.891,1.891,0,0,0-2.554,0A1.615,1.615,0,0,0,24.4,3.149ZM36.008,35.431a1.852,1.852,0,0,0,.5,1.286l3.013,2.976a1.736,1.736,0,0,0,2.591,0,1.608,1.608,0,0,0,.478-1.249,1.721,1.721,0,0,0-.478-1.231L39,34.144a1.751,1.751,0,0,0-1.249-.459,1.675,1.675,0,0,0-1.249.5A1.7,1.7,0,0,0,36.008,35.431Zm0-23.169a1.909,1.909,0,0,0,.5,1.323,1.821,1.821,0,0,0,2.5,0l3.105-3.105a1.593,1.593,0,0,0,.478-1.231,1.677,1.677,0,0,0-.533-1.268,1.8,1.8,0,0,0-1.286-.514A1.725,1.725,0,0,0,39.517,8L36.5,10.994A1.717,1.717,0,0,0,36.008,12.262Zm4.74,11.649a1.61,1.61,0,0,0,.514,1.231,1.834,1.834,0,0,0,1.323.478h3.105a1.776,1.776,0,0,0,1.268-.5,1.615,1.615,0,0,0,.533-1.213,1.716,1.716,0,0,0-.514-1.3,1.793,1.793,0,0,0-1.268-.514H42.6a1.786,1.786,0,0,0-1.323.514A1.675,1.675,0,0,0,40.748,23.91Z" transform="translate(-3.208 -0.94)" fill="#53BFD2" stroke="#fcfcfc" stroke-width="1"/>
</svg>
