<svg xmlns="http://www.w3.org/2000/svg" width="18.25" height="16.86" viewBox="0 0 18.25 16.86">
  <path id="Early_bird" data-name="Early bird" d="M3.708,10.678a.662.662,0,0,0,.211.506.754.754,0,0,0,.544.2H5.74a.73.73,0,0,0,.521-.2.664.664,0,0,0,.219-.5.706.706,0,0,0-.211-.536.737.737,0,0,0-.521-.212H4.463a.734.734,0,0,0-.544.212A.684.684,0,0,0,3.708,10.678Zm1.337,4.668a2.734,2.734,0,0,0,2.7,2.7h5.182a2.546,2.546,0,0,0,1.881-.793,2.623,2.623,0,0,0,.786-1.911,2.438,2.438,0,0,0-.159-.929,4.333,4.333,0,0,0,1.488-1.6,4.45,4.45,0,0,0,.189-3.905A4.482,4.482,0,0,0,14.7,6.5a4.361,4.361,0,0,0-1.752-.363,4.432,4.432,0,0,0-2.281.612A4.529,4.529,0,0,0,9.018,8.4a4.466,4.466,0,0,0-.6,2.274v.257a3.1,3.1,0,0,0-1.5,1.881,2.627,2.627,0,0,0-1.367.959A2.6,2.6,0,0,0,5.045,15.346ZM6.223,4.65a.671.671,0,0,0,.2.506L7.636,6.433a.8.8,0,0,0,1.065,0A.712.712,0,0,0,8.912,5.9.736.736,0,0,0,8.7,5.375L7.455,4.129a.784.784,0,0,0-.529-.219.656.656,0,0,0-.514.211A.757.757,0,0,0,6.223,4.65Zm.317,10.7a1.174,1.174,0,0,1,.3-.816,1.151,1.151,0,0,1,.77-.385l.468-.06c.1,0,.151-.06.151-.174l.068-.423A1.687,1.687,0,0,1,8.852,12.4a1.582,1.582,0,0,1,1.118-.438,1.623,1.623,0,0,1,1.141.438,1.706,1.706,0,0,1,.567,1.088l.06.491c.045.113.106.174.181.174h1a1.177,1.177,0,0,1,.846.355,1.124,1.124,0,0,1,.355.846,1.2,1.2,0,0,1-.355.869,1.143,1.143,0,0,1-.846.363H7.742a1.125,1.125,0,0,1-.854-.363A1.214,1.214,0,0,1,6.541,15.346Zm3.339-4.827a3.064,3.064,0,0,1,.959-2.085,2.95,2.95,0,0,1,2.107-.846,2.91,2.91,0,0,1,2.145.9,3,3,0,0,1,.884,2.183,2.938,2.938,0,0,1-.385,1.473,3.082,3.082,0,0,1-1.042,1.1,2.333,2.333,0,0,0-1.533-.551,3.069,3.069,0,0,0-1.163-1.579,3.155,3.155,0,0,0-1.873-.589h-.1ZM12.213,3.91a.73.73,0,0,0,.219.529A.744.744,0,0,0,13.7,3.91V2.142a.664.664,0,0,0-.219-.5.778.778,0,0,0-1.05,0,.664.664,0,0,0-.219.5Zm4.774,11.5a.761.761,0,0,0,.2.529l1.239,1.224a.714.714,0,0,0,1.065,0,.661.661,0,0,0,.2-.514.707.707,0,0,0-.2-.506l-1.277-1.261A.72.72,0,0,0,17.7,14.7a.689.689,0,0,0-.514.2A.7.7,0,0,0,16.987,15.414Zm0-9.525a.785.785,0,0,0,.2.544.749.749,0,0,0,1.027,0l1.277-1.277a.655.655,0,0,0,.2-.506.689.689,0,0,0-.219-.521.742.742,0,0,0-.529-.211.709.709,0,0,0-.514.219L17.191,5.368A.706.706,0,0,0,16.987,5.889Zm1.949,4.789a.662.662,0,0,0,.211.506.754.754,0,0,0,.544.2h1.277a.73.73,0,0,0,.521-.2.664.664,0,0,0,.219-.5.706.706,0,0,0-.211-.536.737.737,0,0,0-.521-.212H19.7a.734.734,0,0,0-.544.212A.689.689,0,0,0,18.936,10.678Z" transform="translate(-3.583 -1.315)" fill="#53bfd2" stroke="#f8f8f8" stroke-width="0.25"/>
</svg>
