<svg xmlns="http://www.w3.org/2000/svg" width="125" height="125" viewBox="0 0 125 125">
  <g id="Icon_4" data-name="Icon 4" transform="translate(-1301 -1520)">
    <circle id="Ellipse_2842" data-name="Ellipse 2842" cx="62.5" cy="62.5" r="62.5" transform="translate(1301 1520)" fill="#f8f8f8"/>
    <path id="Path_14209" data-name="Path 14209" d="M205.353,65.714h-.012a.847.847,0,0,1-.621-.274l-5.477-5.994-7.613.559a.831.831,0,0,1-.647-.235.845.845,0,0,1-.254-.64l.05-1.122a.84.84,0,0,1,1.678.074l-.008.18,7.076-.521a.843.843,0,0,1,.682.272l5.116,5.6,4.635-5.369a.834.834,0,0,1,.673-.291l7.578.338-.519-7.077a.834.834,0,0,1,.27-.68l5.6-5.121-5.371-4.635a.833.833,0,0,1-.289-.673l.338-7.575-7.077.521a.841.841,0,0,1-.682-.27l-5.119-5.6-4.635,5.373a.841.841,0,0,1-.673.291l-7.575-.338L193,39.578a.841.841,0,0,1-.272.682l-5.6,5.114,3.352,2.892a.841.841,0,0,1,.087,1.184l-.01.01a.109.109,0,0,1-.013.015l0,0a.838.838,0,0,1-1.161.06l-4.068-3.51a.84.84,0,0,1-.018-1.255l6-5.479-.559-7.613a.833.833,0,0,1,.235-.647.843.843,0,0,1,.64-.254l8.11.363,4.988-5.783a.84.84,0,0,1,.623-.291h.013a.844.844,0,0,1,.62.272l5.482,6,7.613-.559a.834.834,0,0,1,.647.235.846.846,0,0,1,.254.64l-.363,8.11,5.777,4.988a.842.842,0,0,1,.018,1.256L219.4,51.494l.559,7.613a.839.839,0,0,1-.875.9l-8.115-.361-4.988,5.776A.841.841,0,0,1,205.353,65.714Zm-13.51-11.862h-.037a.858.858,0,1,1,.037,0Z" transform="translate(1158.481 1511.608)" fill="#53bfd2" stroke="#53bfd2" stroke-width="0.6"/>
    <path id="Path_14371" data-name="Path 14371" d="M53.579,45.809H51.794a1.4,1.4,0,1,1,0-2.794h1.785a1.388,1.388,0,0,1,1.243.776,1.133,1.133,0,0,0,1.474.467,1.05,1.05,0,0,0,.467-1.476,3.542,3.542,0,0,0-2.95-1.863v-1.24a1.087,1.087,0,0,0-2.174,0v1.24A3.521,3.521,0,0,0,48.3,44.491a3.613,3.613,0,0,0,3.573,3.57h1.785a1.4,1.4,0,0,1,0,2.794H51.872a1.372,1.372,0,0,1-1.165-.62,1.107,1.107,0,0,0-1.009-.7,1.063,1.063,0,0,0-1.087,1.087,1.106,1.106,0,0,0,.156.467,3.535,3.535,0,0,0,2.95,1.863v1.24a1.087,1.087,0,1,0,2.174,0v-1.24a3.5,3.5,0,0,0,3.336-3.495A3.693,3.693,0,0,0,53.579,45.809Z" transform="translate(1310.907 1509.409)" fill="#53bfd2"/>
    <path id="Path_14373" data-name="Path 14373" d="M65.438,87.084h-.4l-1.821-9.662a13.009,13.009,0,0,0-3.962-7.288l-7.6-7.13a3.866,3.866,0,0,0-1.583-.872L48.327,48.51a4.946,4.946,0,0,0-1.9-3.248,4.634,4.634,0,0,0-3.643-.872A4.809,4.809,0,0,0,38.9,48.271L35.653,66.1a11.244,11.244,0,0,0,1.821,8.237l8.951,12.832a1.242,1.242,0,0,0-.711,1.108v9.19A1.217,1.217,0,0,0,46.9,98.65H65.438a1.219,1.219,0,0,0,1.188-1.188V88.353A1.146,1.146,0,0,0,65.438,87.084Zm-25.981-14.1a8.583,8.583,0,0,1-1.427-6.5l3.248-17.741a2.358,2.358,0,0,1,1.9-1.9A2.5,2.5,0,0,1,45,47.241a2.252,2.252,0,0,1,.95,1.585l1.743,13.387a4.575,4.575,0,0,0-1.5,1.03,3.7,3.7,0,0,0-.317,4.673L52.367,77.5a1.2,1.2,0,1,0,1.98-1.347L47.852,66.57a1.331,1.331,0,0,1,.158-1.743,1.275,1.275,0,0,1,1.03-.475,1.667,1.667,0,0,1,1.03.4l7.6,7.127a11.048,11.048,0,0,1,3.246,5.941l1.743,9.267H49.277ZM64.249,96.274H48.088V89.461H64.249Z" transform="translate(1290.5 1518.533)" fill="#2c2c2c"/>
    <path id="Path_14374" data-name="Path 14374" d="M83.523,66.047,80.275,48.3a4.806,4.806,0,0,0-3.881-3.881,4.613,4.613,0,0,0-3.643.872,4.766,4.766,0,0,0-1.9,3.248L69.028,62.085a4.446,4.446,0,0,0-1.585.872l-7.6,7.13a13.005,13.005,0,0,0-3.959,7.288l-1.821,9.662h-.4a1.219,1.219,0,0,0-1.188,1.188v9.19A1.219,1.219,0,0,0,53.661,98.6H72.2a1.219,1.219,0,0,0,1.188-1.188V88.3a1.345,1.345,0,0,0-.713-1.11L81.7,74.284A11.244,11.244,0,0,0,83.523,66.047ZM71.088,96.225H54.927V89.412H71.088ZM79.72,72.937l-9.82,14.1H56.513l1.743-9.267A10.514,10.514,0,0,1,61.5,71.827l7.6-7.127a1.667,1.667,0,0,1,1.03-.4,1.394,1.394,0,0,1,1.03.475,1.434,1.434,0,0,1,.158,1.743L64.83,76.105a1.2,1.2,0,1,0,1.98,1.347L73.3,67.868a3.809,3.809,0,0,0-.317-4.673,3.877,3.877,0,0,0-1.5-1.03l1.743-13.387a2.252,2.252,0,0,1,.95-1.585A2.184,2.184,0,0,1,76,46.8a2.358,2.358,0,0,1,1.9,1.9l3.248,17.741A8.583,8.583,0,0,1,79.72,72.937Z" transform="translate(1317.563 1518.582)" fill="#2c2c2c"/>
  </g>
</svg>
