<svg xmlns="http://www.w3.org/2000/svg" width="126.064" height="110" viewBox="0 0 126.064 110">
  <g id="Icon_1" data-name="Icon 1" transform="translate(232.263 -68.711)">
    <circle id="Ellipse_2815" data-name="Ellipse 2815" cx="55" cy="55" r="55" transform="translate(-232.263 68.71)" fill="#f6f6f6"/>
    <g id="Group_10012" data-name="Group 10012" transform="translate(-200.737 133.318)">
      <path id="Path_14188" data-name="Path 14188" d="M-144.3,154.588h-1.672V151.58a3.815,3.815,0,0,0-3.614-3.592,3.83,3.83,0,0,0-1.67.3l-.608.253v-2.433a3.817,3.817,0,0,0-3.813-3.813,3.818,3.818,0,0,0-3.813,3.813v8.478h-18.172v-8.479a3.815,3.815,0,0,0-3.614-3.592,3.835,3.835,0,0,0-4.025,3.615v2.178l-.606-.251a3.8,3.8,0,0,0-1.458-.291,3.818,3.818,0,0,0-3.813,3.813v3.051h-1.672a3.482,3.482,0,0,0-3.477,3.477,3.482,3.482,0,0,0,3.477,3.478h1.672v3.119a3.819,3.819,0,0,0,3.813,3.811h.114a3.791,3.791,0,0,0,1.344-.29l.607-.252v2.135a3.838,3.838,0,0,0,3.814,3.813,3.832,3.832,0,0,0,3.825-3.815v-8.52h18.172v8.523a3.819,3.819,0,0,0,3.813,3.813,3.818,3.818,0,0,0,3.813-3.814v-2.142l.608.253a3.8,3.8,0,0,0,1.471.3,3.837,3.837,0,0,0,3.813-3.814v-3.114l1.672,0a3.5,3.5,0,0,0,3.5-3.5A3.5,3.5,0,0,0-144.3,154.588Zm-46.88,5.253h-1.737c-.039,0-.078,0-.118,0s-.09,0-.135,0a1.758,1.758,0,0,1-1.615-1.887,1.747,1.747,0,0,1,.609-1.2,1.705,1.705,0,0,1,1.277-.415l1.718,0Zm1.747-4.781v-3.544a2.071,2.071,0,0,1,2.066-2.066,2.064,2.064,0,0,1,2.066,2.057v13.14a2.07,2.07,0,0,1-2.065,2.057,2.069,2.069,0,0,1-2.066-2.066l.026-3.629Zm10.023,15.049a2.082,2.082,0,0,1-1.893,1.93h0c-.061.005-.121.008-.181.008a2.08,2.08,0,0,1-2.069-1.9l0-5.432V146.109a2.09,2.09,0,0,1,2.061-2.066h0a2.084,2.084,0,0,1,2.081,2.063Zm19.919-10.269h-18.172v-3.5h18.172Zm5.88,10.269a2.069,2.069,0,0,1-2.066,2.066,2.069,2.069,0,0,1-2.066-2.066v-24a2.091,2.091,0,0,1,1.873-2.056l.011-.011h.184a2.069,2.069,0,0,1,2.065,2.067Zm5.891-5.472a2.083,2.083,0,0,1-1.893,1.929c-.061.005-.121.008-.181.008a2.082,2.082,0,0,1-2.07-1.9l0-13.174a2.071,2.071,0,0,1,2.066-2.052h.016a2.068,2.068,0,0,1,2.063,2.066Zm4.651-5.406a1.74,1.74,0,0,1-1.2.607l-.017,0h-1.689v-3.5h1.672a1.75,1.75,0,0,1,1.648,1.615A1.748,1.748,0,0,1-143.072,159.231Z" transform="translate(196.334 -142.296)" fill="#222" stroke="#222" stroke-width="0.25"/>
    </g>
    <g id="Group_10013" data-name="Group 10013" transform="translate(-228.753 82.183)">
      <path id="Path_14189" data-name="Path 14189" d="M-164.19,91.916h-5.695a1.317,1.317,0,0,0-1.21,1.211,1.315,1.315,0,0,0,1.21,1.414h5.695a2.008,2.008,0,0,1,1.994,2.008v8.883h-63.443V96.551a2.009,2.009,0,0,1,1.994-2.008h5.695a1.316,1.316,0,0,0,1.211-1.21,1.317,1.317,0,0,0-1.211-1.414h-5.695a4.633,4.633,0,0,0-4.619,4.63V148.88a4.634,4.634,0,0,0,4.619,4.619h19v0a1.316,1.316,0,0,0,1.211-1.21,1.317,1.317,0,0,0-1.211-1.414h-4.5V138.351H-198.3a1.316,1.316,0,0,0,1.211-1.21,1.317,1.317,0,0,0-1.211-1.414h-10.836V123.2h13.929v7.813a1.294,1.294,0,0,0,1.294,1.294h0a1.294,1.294,0,0,0,1.294-1.294V123.2h13.928v14.546a1.3,1.3,0,0,0,1.3,1.294,1.294,1.294,0,0,0,1.294-1.294V123.2H-162.2v9.27a1.316,1.316,0,0,0,1.316,1.316h0a1.306,1.306,0,0,0,1.308-1.313V96.548A4.631,4.631,0,0,0-164.19,91.916Zm-47.538,16.14v12.523h-13.911V108.056Zm0,42.821h-11.917a2,2,0,0,1-1.994-1.994V138.351h13.911Zm0-15.151h-13.911V123.2h13.911Zm2.589-15.147V108.056h13.929v12.523Zm16.518,0V108.056h13.928v12.523Zm16.517,0V108.056H-162.2v12.523Z" transform="translate(228.263 -84.987)" fill="#53bfd2"/>
      <path id="Path_14190" data-name="Path 14190" d="M-209.016,100.672a4.514,4.514,0,0,0,4.514-4.5v-2.6h24.788v2.6a4.514,4.514,0,0,0,4.514,4.5,4.513,4.513,0,0,0,4.5-4.5V88.3a4.512,4.512,0,0,0-4.271-4.271,4.513,4.513,0,0,0-4.744,4.271v2.643H-204.5V88.3a4.512,4.512,0,0,0-4.271-4.271,4.513,4.513,0,0,0-4.744,4.271V96.17A4.515,4.515,0,0,0-209.016,100.672Zm31.925-12.321h0a1.878,1.878,0,0,1,1.89-1.864h0a1.876,1.876,0,0,1,1.875,1.877v7.873a1.889,1.889,0,0,1-1.72,1.721,1.891,1.891,0,0,1-2.046-1.721Zm-33.806.013v0a1.878,1.878,0,0,1,1.881-1.873h.01a1.876,1.876,0,0,1,1.875,1.877v7.873a1.889,1.889,0,0,1-1.72,1.721,1.891,1.891,0,0,1-2.046-1.721Z" transform="translate(226.456 -84.02)" fill="#53bfd2"/>
    </g>
    <path id="Path_14177" data-name="Path 14177" d="M-95.35,176.725a.9.9,0,0,1-1.257-.133l-2.567-3.17a.882.882,0,0,1-.169-.766.823.823,0,0,1,.476-.585l4.98-2.431-12.047-5.99,3.351,13.032,1.5-1.913a.877.877,0,0,1,1.236-.1.877.877,0,0,1,.141,1.187l-2.587,3.347a.893.893,0,0,1-1.255.148.885.885,0,0,1-.312-.478l-4.238-16.658a.891.891,0,0,1,.286-.882.85.85,0,0,1,.921-.1l15.382,7.634a.9.9,0,0,1,.5.8.854.854,0,0,1-.5.8l-5.595,2.727,1.882,2.324A.863.863,0,0,1-95.35,176.725Z" transform="translate(-15.212 -11.287)" fill="#222" stroke="#222" stroke-width="0.05"/>
    <path id="Path_9284" data-name="Path 9284" d="M-122.858,156.934a4.516,4.516,0,0,1,.92.121q3.1,1.07,6.193,2.186a1.3,1.3,0,0,1,.9,1.6,1.3,1.3,0,0,1-1.6.9,1.386,1.386,0,0,1-.132-.046q-3.158-1.1-6.3-2.229a1.257,1.257,0,0,1-.882-1.292A1.442,1.442,0,0,1-122.858,156.934Z" transform="translate(-13.295 -10.772)" fill="#53bfd2"/>
    <path id="Path_9285" data-name="Path 9285" d="M-111.84,157.37a1.187,1.187,0,0,1-1.274-.479q-1.752-2.23-3.473-4.484a1.279,1.279,0,0,1,.173-1.8l.063-.048a1.275,1.275,0,0,1,1.787.233l.015.019c1.171,1.482,2.334,2.973,3.471,4.481a1.293,1.293,0,0,1-.2,1.817A1.289,1.289,0,0,1-111.84,157.37Z" transform="translate(-14.139 -9.958)" fill="#53bfd2"/>
    <path id="Path_9286" data-name="Path 9286" d="M-105.339,148.122c0,.091.025.3.019.5q-.067,2.1-.146,4.2a1.309,1.309,0,0,1-1.214,1.4,1.308,1.308,0,0,1-1.4-1.213,1.333,1.333,0,0,1,.009-.271c.045-1.457.091-2.916.159-4.372a1.275,1.275,0,0,1,1.172-1.285A1.317,1.317,0,0,1-105.339,148.122Z" transform="translate(-15.217 -9.564)" fill="#53bfd2"/>
    <rect id="Rectangle_6296" data-name="Rectangle 6296" width="2.625" height="2.625" transform="translate(-207.352 113.073)" fill="#222"/>
    <rect id="Rectangle_6297" data-name="Rectangle 6297" width="2.625" height="2.625" transform="translate(-167.989 113.073)" fill="#222"/>
    <rect id="Rectangle_6298" data-name="Rectangle 6298" width="2.625" height="2.625" transform="translate(-173.238 113.073)" fill="#222"/>
    <rect id="Rectangle_6299" data-name="Rectangle 6299" width="2.625" height="2.625" transform="translate(-216.913 143.85)" fill="#222"/>
  </g>
</svg>
