<svg xmlns="http://www.w3.org/2000/svg" width="125" height="125" viewBox="0 0 125 125">
  <g id="Icon_2" data-name="Icon 2" transform="translate(-1301 -1330)">
    <circle id="Ellipse_2840" data-name="Ellipse 2840" cx="62.5" cy="62.5" r="62.5" transform="translate(1301 1330)" fill="#f8f8f8"/>
    <path id="Path_14375" data-name="Path 14375" d="M49.219,29.55v-7.5A12.108,12.108,0,0,0,37.165,10h-.808A12.124,12.124,0,0,0,24.23,22.054v7.423a11.941,11.941,0,0,0,5.145,9.849h0v5.88c0,1.1-1.984,2.5-4.336,3.087a35.7,35.7,0,0,0-6.762,2.5C13.425,53.216,11,56.009,11,59.243v5.88a1.474,1.474,0,0,0,1.47,1.47H41.281a1.47,1.47,0,1,0,0-2.94H13.94v-4.41c0-4.189,8.746-7.276,11.76-8.085,3.307-.808,6.615-2.94,6.615-5.88V40.942a11.837,11.837,0,0,0,3.969.661h.808a11.837,11.837,0,0,0,3.969-.661v4.336a4.353,4.353,0,0,0,1.323,3.087,1.5,1.5,0,0,0,1.1.441,1.756,1.756,0,0,0,1.029-.367,1.489,1.489,0,0,0,.074-2.058,1.65,1.65,0,0,1-.588-1.1V39.472A12.154,12.154,0,0,0,49.219,29.55ZM37.165,38.664h-.808a9.175,9.175,0,0,1-9.187-9.114v-7.5a9.16,9.16,0,0,1,9.114-9.114h.808a9.175,9.175,0,0,1,9.187,9.114v7.423A9.175,9.175,0,0,1,37.165,38.664Z" transform="translate(1325 1348)" fill="#2c2c2c"/>
    <path id="Path_14376" data-name="Path 14376" d="M74.521,49a6.3,6.3,0,0,0-6.282,6.282,6.19,6.19,0,0,0,.209,1.557L60.793,62.06a6.283,6.283,0,1,0,.013,9.88l7.642,5.221a6.189,6.189,0,0,0-.209,1.57,6.3,6.3,0,1,0,1.335-3.86l-7.132-4.855a6.234,6.234,0,0,0-.013-6.033l7.145-4.855A6.275,6.275,0,1,0,74.521,49Zm0,2.513a3.769,3.769,0,1,1-3.769,3.769A3.75,3.75,0,0,1,74.521,51.513ZM56.933,63.238a3.769,3.769,0,1,1-3.769,3.769A3.75,3.75,0,0,1,56.933,63.238ZM74.521,74.964a3.769,3.769,0,1,1-3.769,3.768A3.75,3.75,0,0,1,74.521,74.964Z" transform="translate(1314.491 1337.664)" fill="#53bfd2"/>
  </g>
</svg>
