<svg xmlns="http://www.w3.org/2000/svg" width="125" height="125" viewBox="0 0 125 125">
  <g id="Icon_5" data-name="Icon 5" transform="translate(-797 -1710)">
    <circle id="Ellipse_2843" data-name="Ellipse 2843" cx="62.5" cy="62.5" r="62.5" transform="translate(797 1710)" fill="#f8f8f8"/>
    <path id="Path_14377" data-name="Path 14377" d="M55.51,39.439V31.858A12.246,12.246,0,0,0,43.32,19.667H42.5A12.262,12.262,0,0,0,30.236,31.858v7.508a12.076,12.076,0,0,0,5.2,9.96h0v5.948c0,1.115-2.007,2.527-4.386,3.122a36.122,36.122,0,0,0-6.839,2.527c-4.906,2.452-7.36,5.278-7.36,8.548v5.946A1.491,1.491,0,0,0,18.342,76.9h29.14a1.486,1.486,0,1,0,0-2.972H19.829V69.471c0-4.237,8.847-7.36,11.894-8.177,3.346-.818,6.69-2.974,6.69-5.948V50.961a11.958,11.958,0,0,0,4.014.67h.818a11.958,11.958,0,0,0,4.014-.67v4.386A4.4,4.4,0,0,0,48.6,58.469a1.509,1.509,0,0,0,1.115.447,1.775,1.775,0,0,0,1.04-.372,1.505,1.505,0,0,0,.074-2.082,1.667,1.667,0,0,1-.594-1.115V49.474A12.292,12.292,0,0,0,55.51,39.439ZM43.32,48.658H42.5a9.28,9.28,0,0,1-9.292-9.218V31.858a9.265,9.265,0,0,1,9.217-9.218h.818a9.28,9.28,0,0,1,9.292,9.218v7.508A9.279,9.279,0,0,1,43.32,48.658Z" transform="translate(807.119 1720.888)" fill="#53bfd2"/>
    <path id="Path_14378" data-name="Path 14378" d="M75.2,42.342V35.783A10.594,10.594,0,0,0,64.659,25.237h-.707A10.608,10.608,0,0,0,53.342,35.783v6.494a10.446,10.446,0,0,0,4.5,8.616h0v5.145c0,.964-1.735,2.186-3.794,2.7a31.2,31.2,0,0,0-5.916,2.186c-4.243,2.122-6.365,4.566-6.365,7.4v5.143a1.289,1.289,0,0,0,1.286,1.286H68.26a1.286,1.286,0,0,0,0-2.572H44.341V68.32c0-3.666,7.652-6.367,10.288-7.074,2.893-.707,5.788-2.572,5.788-5.145V52.308a10.357,10.357,0,0,0,3.472.58H64.6a10.357,10.357,0,0,0,3.472-.58V56.1a3.8,3.8,0,0,0,1.158,2.7,1.3,1.3,0,0,0,.964.387,1.535,1.535,0,0,0,.9-.322,1.3,1.3,0,0,0,.064-1.8,1.448,1.448,0,0,1-.513-.965V51.022A10.635,10.635,0,0,0,75.2,42.342ZM64.659,50.315h-.707a8.027,8.027,0,0,1-8.037-7.973V35.783a8.013,8.013,0,0,1,7.973-7.973H64.6a8.027,8.027,0,0,1,8.038,7.973v6.494A8.027,8.027,0,0,1,64.659,50.315Z" transform="translate(816.762 1723.044)" fill="#222"/>
  </g>
</svg>
