<svg xmlns="http://www.w3.org/2000/svg" width="481.793" height="125" viewBox="0 0 481.793 125">
  <g id="Group_10398" data-name="Group 10398" transform="translate(-712 -1090)">
    <g id="Icon_1" data-name="Icon 1" transform="translate(1066.971 1090.239)">
      <circle id="Ellipse_2816" data-name="Ellipse 2816" cx="62.5" cy="62.5" r="62.5" transform="translate(0.045 -0.239)" fill="#2c7683" opacity="0.15" style="mix-blend-mode: multiply;isolation: isolate"/>
    </g>
    <g id="noun_discover_1626805" transform="translate(1110.098 1111)">
      <path id="Path_14412" data-name="Path 14412" d="M63.306,6.529a1.306,1.306,0,0,0,1.306-1.306V1.306a1.306,1.306,0,0,0-2.612,0V5.223A1.306,1.306,0,0,0,63.306,6.529Z" transform="translate(-21.521)" fill="#161616" stroke="#53bfd2" stroke-width="0.25"/>
      <path id="Path_14413" data-name="Path 14413" d="M63.306,118A1.306,1.306,0,0,0,62,119.306v3.917a1.306,1.306,0,0,0,2.612,0v-3.917A1.306,1.306,0,0,0,63.306,118Z" transform="translate(-21.521 -40.958)" fill="#161616" stroke="#53bfd2" stroke-width="0.25"/>
      <path id="Path_14414" data-name="Path 14414" d="M123.223,62h-3.917a1.306,1.306,0,0,0,0,2.612h3.917a1.306,1.306,0,0,0,0-2.612Z" transform="translate(-40.958 -21.521)" fill="#161616" stroke="#53bfd2" stroke-width="0.25"/>
      <path id="Path_14415" data-name="Path 14415" d="M5.223,62H1.306a1.306,1.306,0,0,0,0,2.612H5.223a1.306,1.306,0,0,0,0-2.612Z" transform="translate(0 -21.521)" fill="#161616" stroke="#53bfd2" stroke-width="0.25"/>
      <path id="Path_14416" data-name="Path 14416" d="M21.312,23.159a1.306,1.306,0,0,0,1.846-1.846l-2.77-2.77a1.306,1.306,0,0,0-1.846,1.846Z" transform="translate(-6.303 -6.303)" fill="#161616" stroke="#53bfd2" stroke-width="0.25"/>
      <path id="Path_14417" data-name="Path 14417" d="M21.313,101.981l-2.77,2.77a1.306,1.306,0,1,0,1.846,1.846l2.77-2.77a1.306,1.306,0,1,0-1.846-1.846Z" transform="translate(-6.303 -35.266)" fill="#161616" stroke="#53bfd2" stroke-width="0.25"/>
      <path id="Path_14418" data-name="Path 14418" d="M102.9,23.541a1.3,1.3,0,0,0,.923-.383l2.77-2.77a1.306,1.306,0,1,0-1.847-1.846l-2.77,2.77a1.306,1.306,0,0,0,.923,2.229Z" transform="translate(-35.265 -6.303)" fill="#161616" stroke="#53bfd2" stroke-width="0.25"/>
      <path id="Path_14419" data-name="Path 14419" d="M75.86,68.727a1.305,1.305,0,0,0-.911-.428,1.35,1.35,0,0,0-.91.316L71.151,65.59a26.142,26.142,0,1,0-6.9,6.482L67.1,75.056l-.228.205.015.017a1.3,1.3,0,0,0,.038,1.7L79.263,90.614A4.064,4.064,0,0,0,82.274,91.9h0a4.535,4.535,0,0,0,3.066-1.209l2.471-2.264A4.518,4.518,0,0,0,89.286,85.3a4,4,0,0,0-1.057-2.9ZM26.612,50.116a23.5,23.5,0,1,1,23.5,23.5A23.531,23.531,0,0,1,26.612,50.116ZM66.389,70.534a26.307,26.307,0,0,0,3.1-2.9L72.2,70.467,69.04,73.308ZM86.048,86.5l-2.471,2.265a1.932,1.932,0,0,1-1.3.523,1.474,1.474,0,0,1-1.088-.441L69.737,76.195l5.158-4.642L86.307,84.165a1.409,1.409,0,0,1,.37,1.035A1.891,1.891,0,0,1,86.048,86.5Z" transform="translate(-8.331 -8.331)" fill="#161616" stroke="#53bfd2" stroke-width="0.25"/>
      <path id="Path_14420" data-name="Path 14420" d="M53.587,34A19.587,19.587,0,1,0,73.174,53.587,19.587,19.587,0,0,0,53.587,34Zm0,36.562A16.975,16.975,0,1,1,70.562,53.587,16.995,16.995,0,0,1,53.587,70.562Z" transform="translate(-11.802 -11.802)" fill="#161616" stroke="#53bfd2" stroke-width="0.25"/>
    </g>
    <path id="Path_14422" data-name="Path 14422" d="M458,220H661a16.3,16.3,0,0,1,16.3,16.3h0a16.3,16.3,0,0,1-16.338,16.3l-146.121-.3a16.3,16.3,0,0,0-16.338,16.3v2.623a16.3,16.3,0,0,0,16.3,16.3l311.9-.935" transform="translate(268 898.5)" fill="none" stroke="#161616" stroke-linecap="round" stroke-miterlimit="10" stroke-width="2" stroke-dasharray="8"/>
    <path id="Path_14423" data-name="Path 14423" d="M67.1,49.092,54.772,54a1.3,1.3,0,0,0-.689.636L48.135,66.7a1.306,1.306,0,0,0,1.654,1.79l12.333-4.9a1.3,1.3,0,0,0,.689-.636l5.948-12.073a1.306,1.306,0,0,0-1.654-1.79ZM55.49,57.684l4.1,4.1-7.616,3.027ZM61.4,59.9l-4.1-4.1,7.615-3.027Z" transform="translate(1093.438 1093.992)" fill="#fff" stroke="#53bfd2" stroke-width="1"/>
    <g id="Icon_feather-plus" data-name="Icon feather-plus" transform="translate(1103.746 1178.374) rotate(45)">
      <path id="Path_14194" data-name="Path 14194" d="M18,7.5V18.547" transform="translate(-12.476 -7.5)" fill="none" stroke="#fff" stroke-linecap="round" stroke-linejoin="round" stroke-width="2"/>
      <path id="Path_14195" data-name="Path 14195" d="M7.5,18H18.547" transform="translate(-7.5 -12.476)" fill="none" stroke="#fff" stroke-linecap="round" stroke-linejoin="round" stroke-width="2"/>
    </g>
    <g id="Ellipse_2885" data-name="Ellipse 2885" transform="translate(714 1113)" fill="none" stroke="#fff" stroke-width="2">
      <circle cx="5.5" cy="5.5" r="5.5" stroke="none"/>
      <circle cx="5.5" cy="5.5" r="6.5" fill="none"/>
    </g>
  </g>
</svg>
