<svg xmlns="http://www.w3.org/2000/svg" width="131.095" height="125" viewBox="0 0 131.095 125">
  <g id="Group_10394" data-name="Group 10394" transform="translate(-908.016 -1454.5)">
    <g id="Group_10393" data-name="Group 10393" transform="translate(908.014 1454.5)">
      <ellipse id="Ellipse_2816" data-name="Ellipse 2816" cx="62.535" cy="62.5" rx="62.535" ry="62.5" transform="translate(0.002)" fill="#2c7683" opacity="0.15" style="mix-blend-mode: multiply;isolation: isolate"/>
      <g id="noun_connect_636096" transform="translate(21.494 25.496)">
        <g id="Group_10214" data-name="Group 10214" transform="translate(0 0)">
          <path id="Path_14388" data-name="Path 14388" d="M71.267,62.491a8.723,8.723,0,0,0-4.84,1.453L58.785,56.3a15.816,15.816,0,0,0,0-19.707l7.642-7.644a8.77,8.77,0,1,0-2.481-2.48L56.3,34.116a15.768,15.768,0,0,0-19.707,0l-7.644-7.644a8.782,8.782,0,1,0-2.483,2.481L34.114,36.6a15.816,15.816,0,0,0,0,19.707l-7.642,7.642a8.775,8.775,0,1,0,2.481,2.481L36.6,58.787a15.771,15.771,0,0,0,19.7-.005l7.642,7.642a8.78,8.78,0,1,0,7.323-3.933ZM67.543,17.907a5.265,5.265,0,1,1,7.446,7.446,5.391,5.391,0,0,1-7.446,0A5.273,5.273,0,0,1,67.543,17.907ZM17.908,25.353a5.266,5.266,0,1,1,7.447,0A5.393,5.393,0,0,1,17.908,25.353Zm7.446,49.635a5.393,5.393,0,0,1-7.446,0,5.265,5.265,0,1,1,7.446,0ZM37.762,55.133a12.286,12.286,0,1,1,8.686,3.6A12.3,12.3,0,0,1,37.762,55.133ZM74.989,74.987a5.393,5.393,0,0,1-7.446,0,5.265,5.265,0,1,1,7.446,0Z" transform="translate(-12.858 -12.86)" fill="#161616" stroke="#53bfd2" stroke-width="0.75"/>
        </g>
      </g>
      <g id="Icon_1" data-name="Icon 1" transform="translate(98.785 70.076)">
        <path id="Path_14177" data-name="Path 14177" d="M-94.75,177.457a.945.945,0,0,1-1.316-.139L-98.752,174a.924.924,0,0,1-.177-.8.862.862,0,0,1,.5-.613l5.214-2.546-12.613-6.271,3.508,13.644,1.569-2a.919.919,0,0,1,1.294-.107.918.918,0,0,1,.148,1.243l-2.708,3.5a.934.934,0,0,1-1.314.155.926.926,0,0,1-.327-.5l-4.437-17.44a.933.933,0,0,1,.3-.923.89.89,0,0,1,.965-.1l16.1,7.993a.945.945,0,0,1,.52.835.894.894,0,0,1-.523.842l-5.858,2.855,1.971,2.434A.9.9,0,0,1-94.75,177.457Z" transform="translate(122.494 -148.223)" fill="#161616" stroke="#161616" stroke-width="0.05"/>
        <path id="Path_9284" data-name="Path 9284" d="M-122.815,156.934a4.729,4.729,0,0,1,.963.127q3.248,1.12,6.484,2.288a1.361,1.361,0,0,1,.941,1.679,1.361,1.361,0,0,1-1.679.942,1.449,1.449,0,0,1-.139-.048q-3.306-1.147-6.593-2.333a1.316,1.316,0,0,1-.923-1.352A1.509,1.509,0,0,1-122.815,156.934Z" transform="translate(123.766 -147.881)" fill="#fff"/>
        <path id="Path_9285" data-name="Path 9285" d="M-111.6,157.7a1.243,1.243,0,0,1-1.334-.5q-1.834-2.334-3.636-4.694a1.339,1.339,0,0,1,.181-1.885c.022-.017.043-.034.066-.051a1.334,1.334,0,0,1,1.871.244l.016.02c1.226,1.552,2.444,3.113,3.634,4.692a1.353,1.353,0,0,1-.209,1.9A1.35,1.35,0,0,1-111.6,157.7Z" transform="translate(123.206 -147.341)" fill="#fff"/>
        <path id="Path_9286" data-name="Path 9286" d="M-105.21,148.17c0,.1.027.313.02.525q-.07,2.2-.153,4.4a1.37,1.37,0,0,1-1.271,1.463,1.37,1.37,0,0,1-1.463-1.27,1.4,1.4,0,0,1,.009-.284c.047-1.526.1-3.053.166-4.578a1.335,1.335,0,0,1,1.227-1.345A1.378,1.378,0,0,1-105.21,148.17Z" transform="translate(122.491 -147.08)" fill="#fff"/>
      </g>
    </g>
  </g>
</svg>
