<svg xmlns="http://www.w3.org/2000/svg" width="143.903" height="125" viewBox="0 0 143.903 125">
  <g id="Icon_1" data-name="Icon 1" transform="translate(-0.045 0.239)">
    <circle id="Ellipse_2816" data-name="Ellipse 2816" cx="62.5" cy="62.5" r="62.5" transform="translate(0.045 -0.239)" fill="#2c7683" opacity="0.15" style="mix-blend-mode: multiply;isolation: isolate"/>
    <g id="Group_10132" data-name="Group 10132" transform="translate(43.607 24.762)">
      <path id="Path_13903" data-name="Path 13903" d="M315.832,260.121a1.487,1.487,0,0,0-.036-.314,14.656,14.656,0,0,0-.682-4.24,14.853,14.853,0,0,0-1.085-2.523l-.007-.015c-.041-.074-.082-.15-.125-.223s-.084-.149-.128-.222q-.209-.354-.434-.693l-.178-.26a14.894,14.894,0,0,0-12.239-6.4h-7.282a1.266,1.266,0,0,1-.479-.094c-.038-.016-.075-.034-.111-.052a1.271,1.271,0,0,1-.679-1.123v-3.039a12.083,12.083,0,0,0,3.023-2.519,15.714,15.714,0,0,0,.893-26.753,17.167,17.167,0,0,0-2.937-1.625c-.19-.083-.381-.162-.575-.238l-.015-.006a6.548,6.548,0,0,0-3.022-6.817c-.18-.11-.366-.21-.556-.3l-.143-.067c-.048-.023-.1-.046-.146-.064a6.479,6.479,0,0,0-2.559-.522,6.538,6.538,0,0,0-6.424,7.773,16.2,16.2,0,0,0-10.566,14.954,15.886,15.886,0,0,0,7.933,13.668,11.961,11.961,0,0,0,2.614,2.265c.134.088.27.173.409.253v3.039a1.271,1.271,0,0,1-1.271,1.269h-7.281a14.83,14.83,0,0,0-8.294,2.528q-.491.329-.952.7l.009,0a11.909,11.909,0,0,1,3.252,1.271c.011.008.023.014.035.021.082.046.162.094.241.143a11.624,11.624,0,0,1,3.123-1.367c.1-.027.2-.054.3-.077a9.6,9.6,0,0,1,2.906-.3h3.712l0,.008a10.358,10.358,0,0,0,5.077,7.642,9.945,9.945,0,0,0,1.228.609l.216.088a.054.054,0,0,1,.015.006,10.339,10.339,0,0,0,13.97-8.352H300.3v7.613a8.8,8.8,0,0,0,2.106,5.712,8.4,8.4,0,0,1,.155,10.719c-.1.117-.192.231-.292.344l-1.076,1.2-.52.579a1.462,1.462,0,0,0,.679,2.379,1.493,1.493,0,0,0,.407.057,1.454,1.454,0,0,0,1.086-.484l.12-.135,1.476-1.643a11.709,11.709,0,0,0,.756-.937,11.545,11.545,0,0,0,.658-1.027,11.274,11.274,0,0,0,1.48-5.6,11.017,11.017,0,0,0-.057-1.119,11.32,11.32,0,0,0-2.653-6.23,5.877,5.877,0,0,1-1.407-3.816v-7.39a11.981,11.981,0,0,1,6.673,3.819q.1.1.186.214c.047.052.092.107.133.161s.084.1.124.154a.291.291,0,0,1,.034.044c.05.061.1.124.145.188.017.021.034.046.054.07a12.346,12.346,0,0,1,.888,1.4.848.848,0,0,0,.048.082l.008.014a11.884,11.884,0,0,1,1.4,5.531v0c0,.023,0,.048,0,.071s0,.061,0,.09v6.279a1.293,1.293,0,0,0-.015.2v8.6a1.459,1.459,0,0,0,2.627.874,1.443,1.443,0,0,0,.292-.874v-8.6l-.018-6.28A1.43,1.43,0,0,0,315.832,260.121Zm-29.5-55.192a3.59,3.59,0,0,1,1.423.292,3.392,3.392,0,0,1,.454.234,3.622,3.622,0,0,1,1.746,3.1,3.748,3.748,0,0,1-.022.4,17.9,17.9,0,0,0-7.19,0l-.014,0a3.561,3.561,0,0,1-.021-.4A3.628,3.628,0,0,1,286.332,204.929Zm-10.51,19.2a1.459,1.459,0,0,0-1.46,1.46v5c0,.4.022.8.059,1.192l0,.017a12.62,12.62,0,0,1-2.161-7.067c0-7.3,6.312-13.236,14.07-13.236a14.73,14.73,0,0,1,5.8,1.179c.2.086.4.176.6.272.1.047.2.1.295.146s.213.11.319.167a13.129,13.129,0,0,1,7.059,11.472,12.617,12.617,0,0,1-2.146,7.042.246.246,0,0,1-.016.025c.039-.4.059-.8.059-1.21v-4.63a1.458,1.458,0,0,0-1.46-1.46,16.3,16.3,0,0,1-10.5-3.819q-.248-.206-.487-.425a1.464,1.464,0,0,0-2.106.148A10.284,10.284,0,0,1,275.822,224.133Zm1.46,6.461v-3.622A13.191,13.191,0,0,0,285,223.353c.436.342.888.663,1.349.96a19.18,19.18,0,0,0,9.038,3.056v3.225a9.051,9.051,0,0,1-12.57,8.338c-.2-.087-.4-.18-.6-.281-.132-.067-.263-.137-.39-.211-.182-.1-.362-.217-.536-.336A9.042,9.042,0,0,1,277.281,230.594Zm16.351,17.564a7.417,7.417,0,0,1-10.03,5.6.308.308,0,0,0-.032-.013l-.131-.056a7.391,7.391,0,0,1-.845-.424c-.092-.054-.182-.11-.271-.168a.045.045,0,0,1-.015-.009,7.436,7.436,0,0,1-3.278-4.933,4.194,4.194,0,0,0,4.186-4.188V242.15a11.929,11.929,0,0,0,6.232,0v1.813a4.186,4.186,0,0,0,1.862,3.479,3.721,3.721,0,0,0,.332.2c.051.029.1.056.157.082a.371.371,0,0,0,.037.019,4.168,4.168,0,0,0,1.8.407Zm20.208,6.522.037-.042Zm.095-.122.025-.034Zm.081-.129.015-.026Zm.065-.136.008-.015Zm.052-.14,0-.007Zm-.35.591c-.016.016-.034.032-.051.047C313.75,254.777,313.768,254.761,313.783,254.745Zm-.222.186q-.061.041-.126.077Q313.5,254.973,313.561,254.931Z" transform="translate(-215.741 -202.01)" fill="#161616" stroke="#53bfd2" stroke-width="0.5"/>
      <g id="Group_9911" data-name="Group 9911">
        <path id="Path_13900" data-name="Path 13900" d="M209.545,275.6a1.46,1.46,0,0,0-1.46,1.461v8.6a1.46,1.46,0,0,0,2.92,0v-8.6A1.46,1.46,0,0,0,209.545,275.6Z" transform="translate(-208.073 -212.38)" fill="#fff" stroke="#53bfd2" stroke-width="0.5"/>
        <path id="Path_13901" data-name="Path 13901" d="M273.75,258.649h-4.38a4.925,4.925,0,0,0-2.08.459,14.926,14.926,0,0,0-5.533-10.582q-.5-.4-1.037-.766a14.839,14.839,0,0,0-8.3-2.528h-7.281a1.271,1.271,0,0,1-1.269-1.269v-3.039a12.042,12.042,0,0,0,3.023-2.518,15.884,15.884,0,0,0,7.931-13.668,16.2,16.2,0,0,0-10.564-14.954,6.662,6.662,0,0,0,.117-1.23,6.543,6.543,0,1,0-12.969,1.23,16.2,16.2,0,0,0-10.565,14.954,15.883,15.883,0,0,0,7.931,13.667,12.081,12.081,0,0,0,3.023,2.519v3.039a1.27,1.27,0,0,1-1.268,1.269h-7.282a14.9,14.9,0,0,0-13.1,7.8,1.459,1.459,0,1,0,2.565,1.393,11.993,11.993,0,0,1,8.236-6.048v7.39a5.881,5.881,0,0,1-1.406,3.816,11.318,11.318,0,0,0,.185,14.909l1.6,1.778a1.46,1.46,0,0,0,2.174-1.951l-1.6-1.777a8.4,8.4,0,0,1-.137-11.062,8.809,8.809,0,0,0,2.1-5.712v-7.613h3.714a10.335,10.335,0,0,0,20.507,0h3.714v7.613a8.794,8.794,0,0,0,.491,2.892c-.082,0-.165-.006-.248-.006h-4.318a4.969,4.969,0,0,0-4.964,4.964v8.174a4.969,4.969,0,0,0,4.964,4.964h4.318a4.969,4.969,0,0,0,4.908-4.233h7.5a4.97,4.97,0,0,0,4.909,4.233h4.38a4.969,4.969,0,0,0,4.963-4.964v-8.174A4.969,4.969,0,0,0,273.75,258.649Zm-35.911-53.72a3.627,3.627,0,0,1,3.623,3.624,3.554,3.554,0,0,1-.021.4,17.9,17.9,0,0,0-7.2,0,3.547,3.547,0,0,1-.022-.4A3.628,3.628,0,0,1,237.839,204.929Zm-10.511,19.576a1.459,1.459,0,0,0-1.46,1.46v4.63a11.991,11.991,0,0,0,.061,1.21,12.619,12.619,0,0,1-2.161-7.067c0-7.3,6.312-13.236,14.071-13.236s14.071,5.937,14.071,13.236a12.621,12.621,0,0,1-2.162,7.067,11.754,11.754,0,0,0,.061-1.21v-5a1.459,1.459,0,0,0-1.46-1.46,10.284,10.284,0,0,1-7.929-3.724,1.462,1.462,0,0,0-2.1-.148A16.31,16.31,0,0,1,227.328,224.505Zm1.46,6.089v-3.225a19.21,19.21,0,0,0,10.386-4.016,13.2,13.2,0,0,0,7.715,3.619v3.622a9.051,9.051,0,0,1-18.1,0Zm9.051,23.679a7.427,7.427,0,0,1-7.3-6.123,4.192,4.192,0,0,0,4.185-4.188V242.15a11.936,11.936,0,0,0,6.233,0v1.813a4.192,4.192,0,0,0,4.185,4.188A7.427,7.427,0,0,1,237.839,254.273Zm16.253,17.514a2.046,2.046,0,0,1-2.044,2.044h-4.318a2.046,2.046,0,0,1-2.044-2.044v-8.174a2.046,2.046,0,0,1,2.044-2.044h4.318a2.046,2.046,0,0,1,2.044,2.044Zm10.315-2.189h-7.4v-3.8h7.4Zm0-6.716h-6.313a11.416,11.416,0,0,0-1.961-3.3,5.6,5.6,0,0,1-.391-.515,5.872,5.872,0,0,1-1.015-3.162c0-.046,0-.092,0-.138v-7.388c.125.025.248.051.373.08a11.9,11.9,0,0,1,3.261,1.273c.094.052.186.107.276.164a12.014,12.014,0,0,1,5.772,10.24Zm11.386,8.9a2.046,2.046,0,0,1-2.044,2.044h-4.38a2.046,2.046,0,0,1-2.044-2.044v-8.174a2.046,2.046,0,0,1,2.044-2.044h4.38a2.046,2.046,0,0,1,2.044,2.044Z" transform="translate(-208.339 -202.01)" fill="#161616" stroke="#53bfd2" stroke-width="0.5"/>
        <path id="Path_13902" data-name="Path 13902" d="M209.531,270.873a1.461,1.461,0,1,0-1.033-.428A1.468,1.468,0,0,0,209.531,270.873Z" transform="translate(-208.071 -211.303)" fill="#fff" stroke="#53bfd2" stroke-width="0.5"/>
      </g>
    </g>
  </g>
</svg>
