<svg id="Icon_2" data-name="Icon 2" xmlns="http://www.w3.org/2000/svg" width="139.114" height="124.757" viewBox="0 0 139.114 124.757">
  <circle id="Ellipse_2816" data-name="Ellipse 2816" cx="62.379" cy="62.379" r="62.379" transform="translate(0 0)" fill="#2c7683" opacity="0.15" style="mix-blend-mode: multiply;isolation: isolate"/>
  <path id="Path_14191" data-name="Path 14191" d="M6.226,300.064l-39.916,0V301.9H6.225a3.061,3.061,0,0,1,.007,6.122H-38.777l.316-.9a4.175,4.175,0,0,0,.241-1.371V292.38a2.376,2.376,0,0,1,.362-1.236L-36,288.361l1.9,1.082,7.65-10.94,6.2,7.76,1.87-1.253,4.6,5.756a4.041,4.041,0,0,0,3.182,1.538H-.223l.16.448A4.1,4.1,0,0,0,7.9,291.385v-4.771a4.126,4.126,0,0,0-4.1-4.1H-7.225a2.327,2.327,0,0,1-1.9-1.023l-1.249-1.851,1.145-.758-9.19-12.258.223-.385a4.737,4.737,0,0,0,.628-2.311v-.155a2.942,2.942,0,0,1,.36-1.4l4.8-8.408a4.056,4.056,0,0,0-.358-4.6L-23.42,236.046l.675-.393a10.462,10.462,0,0,0,5.177-9.027v-.458A10.49,10.49,0,0,0-28.036,215.7H-43.53l.668,2.687a7.266,7.266,0,0,0,2.511,3.912l.255.2v6.472a4.079,4.079,0,0,0,2.273,3.676l1.086.543,1.35,4.052-.033.065-2.788,5.554-5.434,1.076a2.277,2.277,0,0,1-2.322-.961l-4.477-6.707a3.389,3.389,0,0,1-.552-1.82v-.643a5.148,5.148,0,0,0-5.142-5.137,5.185,5.185,0,0,0-3.074,1.021l-.346.269a5.112,5.112,0,0,0-1.8,5.742l.08.24a5.145,5.145,0,0,0,2.568,2.973l.357.179a3.371,3.371,0,0,1,1.474,1.476l6.15,12.3a4.13,4.13,0,0,0,4.8,2.1l7.431-2.119-.022,14.5-8.225,14.874,1.384.8-2.367,5.914a4.2,4.2,0,0,0-.29,1.523v11.278l-.449.16a4.1,4.1,0,0,0-2.5,5.222l.316.9-.949.009H-78.136a3.066,3.066,0,0,1-3.063-3.057,3.04,3.04,0,0,1,.893-2.167,3.043,3.043,0,0,1,2.164-.9h24v-1.836H-65.28v-30h16.591a4.127,4.127,0,0,0,4.1-4.1v-1.59a4.128,4.128,0,0,0-4.1-4.1h-16.95a2.243,2.243,0,0,1-2.1-1.422l-4.776-11.914a4.056,4.056,0,0,0-3.792-2.581h-2.706a4.069,4.069,0,0,0-2.9,1.192,4.063,4.063,0,0,0-1.2,2.888,4.178,4.178,0,0,0,.291,1.543l7,17.507a4.137,4.137,0,0,0,.6,1.028l.147.185v31.371h-3.063a4.9,4.9,0,0,0-4.9,4.9,4.9,4.9,0,0,0,4.9,4.9H6.226a4.9,4.9,0,1,0,0-9.795ZM3.844,284.388a2.277,2.277,0,0,1,2.265,2.264v4.777a2.266,2.266,0,1,1-4.531,0l-.006-7.04Zm-70.96,15.672h-6.122V269.931l.759.1a4.6,4.6,0,0,0,.483.035h4.881ZM-81.111,249.3a2.275,2.275,0,0,1,1.277-2.942,2.17,2.17,0,0,1,.84-.167H-76.3a2.244,2.244,0,0,1,2.1,1.423l4.775,11.916a4.058,4.058,0,0,0,3.792,2.581h16.948a2.277,2.277,0,0,1,2.266,2.263v1.6a2.277,2.277,0,0,1-2.264,2.265H-72.01a2.242,2.242,0,0,1-2.1-1.423Zm73.905,35.093H-.263v6.122H-10.547a2.236,2.236,0,0,1-1.763-.855l-4.517-5.615,5-3.332,1.229,1.853A4.062,4.062,0,0,0-7.206,284.388Zm-6.933-33.871a2.262,2.262,0,0,1,.2,2.547l-4.792,8.4a4.7,4.7,0,0,0-.61,2.312v.179a2.822,2.822,0,0,1-1.254,2.349l-1.033.7a2.856,2.856,0,0,1-1.572.473A2.841,2.841,0,0,1-24.76,267l-1.041-.7a2.822,2.822,0,0,1-1.252-2.348v-.458a2.834,2.834,0,0,1,1.574-2.534,4.69,4.69,0,0,0,2.064-2.048l1.45-2.9a4.075,4.075,0,0,0-1.212-5.107l-.855-.637a5.48,5.48,0,0,1-2.023-5.676l1.7-6.835Zm-26.75-32.087-.312-.9H-28a8.576,8.576,0,0,1,6.1,2.526,8.576,8.576,0,0,1,2.529,6.1v.461a8.633,8.633,0,0,1-3.455,6.9l-1.077.8V229.35a7.235,7.235,0,0,0-2.132-5.15,7.233,7.233,0,0,0-5.149-2.135h-4.58A5.426,5.426,0,0,1-40.888,218.431Zm3.917,12.579a2.262,2.262,0,0,1-1.25-2.044v-5.434l.825.19a6.257,6.257,0,0,0,1.632.183h4.583a5.479,5.479,0,0,1,5.448,5.445l-.05,6.468-.112.576h-7.8l-1.5-4.512Zm.36,12.85,2.809-5.632h7.41l-1.484,5.893a7.252,7.252,0,0,0,2.695,7.593l.853.635a2.278,2.278,0,0,1,.68,2.828l-1.454,2.909a2.72,2.72,0,0,1-1.2,1.2,4.7,4.7,0,0,0-2.636,4.21l.016.451a4.62,4.62,0,0,0,.349,1.761l.381.928h-8.441ZM-56,238.589a4.917,4.917,0,0,0-1.487-1.133l-.36-.182a3.313,3.313,0,0,1-1.65-1.9l-.081-.244a3.3,3.3,0,0,1,1.15-3.682l.349-.271a3.241,3.241,0,0,1,2.438-.648,3.266,3.266,0,0,1,2.175,1.266,3.308,3.308,0,0,1,.672,2.005v.635a5.1,5.1,0,0,0,.474,2.142l.277.6-3.615,1.793Zm9.6,14.629a2.216,2.216,0,0,1-.618.086,2.275,2.275,0,0,1-2.035-1.242l-5.735-11.471,3.779-1.9L-47.471,244a4.044,4.044,0,0,0,4.217,1.744l4.77-.963v6.166Zm2.212,28.169,7.177-12.917H-25.89l.166.106a4.678,4.678,0,0,0,5.1-.052l.9-.62.1.134,7.818,10.424-8.052,5.354-5.49-6.864,2.49-3.563-1.5-1.056L-34.64,287l-.139-.079-9.491-5.388Zm4.128,24.369a2.277,2.277,0,0,1-2.264,2.264H-47.1a2.268,2.268,0,0,1-2.266-2.266,2.268,2.268,0,0,1,2.266-2.266h7.04Zm0-13.372v9.268h-6.121v-11.2a2.267,2.267,0,0,1,.169-.854l2.277-5.666,6.156,3.506-1.8,2.673A4.112,4.112,0,0,0-40.057,292.384Z" transform="translate(127.565 -200.146)" fill="#161616" stroke="#161616" stroke-width="0.5"/>
  <path id="Path_14411" data-name="Path 14411" d="M0,0H19.34V1.886H0Z" transform="translate(113.06 36.154)" fill="#fff" stroke="#fff" stroke-width="0.5"/>
  <rect id="Rectangle_6301" data-name="Rectangle 6301" width="1.886" height="1.886" transform="translate(136.978 36.154)" fill="#f8f8f8" stroke="#f8f8f8" stroke-width="0.25"/>
  <rect id="Rectangle_6302" data-name="Rectangle 6302" width="8.35" height="1.886" transform="translate(116.291 25.164)" fill="#161616" stroke="#161616" stroke-width="0.5"/>
  <rect id="Rectangle_6303" data-name="Rectangle 6303" width="1.886" height="1.886" transform="translate(128.575 25.164)" fill="#f8f8f8" stroke="#f8f8f8" stroke-width="0.25"/>
  <rect id="Rectangle_6304" data-name="Rectangle 6304" width="12.875" height="1.886" transform="translate(122.756 49.082)" fill="#161616" stroke="#161616" stroke-width="0.5"/>
  <rect id="Rectangle_6305" data-name="Rectangle 6305" width="19.34" height="1.886" transform="translate(119.524 63.305)" fill="#fff" stroke="#fff" stroke-width="0.5"/>
</svg>
