<svg xmlns="http://www.w3.org/2000/svg" width="18.873" height="18.873" viewBox="0 0 18.873 18.873">
  <g id="Insta_Icon" data-name="Insta Icon" transform="translate(-1501.806 -956.064)">
    <path id="Path_14" data-name="Path 14" d="M364.374,58.545h-8.456a5.214,5.214,0,0,0-5.208,5.208V72.21a5.214,5.214,0,0,0,5.208,5.208h8.456a5.214,5.214,0,0,0,5.208-5.208V63.753A5.214,5.214,0,0,0,364.374,58.545Zm3.534,13.665a3.538,3.538,0,0,1-3.534,3.534h-8.456a3.538,3.538,0,0,1-3.534-3.534V63.753a3.538,3.538,0,0,1,3.534-3.534h8.456a3.538,3.538,0,0,1,3.534,3.534V72.21Z" transform="translate(1151.097 897.519)" fill="#bcbcbc"/>
    <path id="Path_15" data-name="Path 15" d="M359.536,62.509a4.863,4.863,0,1,0,4.863,4.863A4.868,4.868,0,0,0,359.536,62.509Zm0,8.051a3.189,3.189,0,1,1,3.188-3.189A3.193,3.193,0,0,1,359.536,70.56Z" transform="translate(1151.706 898.128)" fill="#bcbcbc"/>
    <path id="Path_16" data-name="Path 16" d="M363.443,61.278a1.228,1.228,0,0,0,0,2.457,1.228,1.228,0,1,0,0-2.457Z" transform="translate(1152.866 897.938)" fill="#bcbcbc"/>
  </g>
</svg>
