<svg xmlns="http://www.w3.org/2000/svg" width="26.254" height="26.254" viewBox="0 0 26.254 26.254">
  <path id="Location_Icon" data-name="Location Icon" d="M24.843,13.206a10.529,10.529,0,0,0-9.295-9.295V1.5H13.206V3.912a10.529,10.529,0,0,0-9.295,9.295H1.5v2.341H3.912a10.529,10.529,0,0,0,9.295,9.295v2.412h2.341V24.843a10.529,10.529,0,0,0,9.295-9.295h2.412V13.206ZM14.377,22.572a8.195,8.195,0,1,1,8.195-8.195A8.189,8.189,0,0,1,14.377,22.572Z" transform="translate(-1.25 -1.25)" fill="#53bfd2" stroke="#f8f8f8" stroke-width="0.5"/>
</svg>
