<svg xmlns="http://www.w3.org/2000/svg" width="276.359" height="365.029" viewBox="0 0 276.359 365.029">
  <path id="M_Watermark" data-name="M Watermark" d="M533.462,252.9H482.2l3.806,21.224c.482,3.372,1,6.649,1.5,9.861,1.075,6.924,2.1,13.466,2.722,19.951.363,3.762.914,7.487,1.466,11.212,1.421,9.549,2.764,18.563.515,27.611-7.748,31.06-14.952,62.761-21.934,93.411q-4.461,19.621-8.971,39.229-4.542,19.627-9.165,39.229L367.143,252.454h-52.3l19.648,60.581q13.376,41.324,26.567,82.717a18.856,18.856,0,0,1,.873,8.788l-.774,3.561c-9.581,44.256-19.487,90.019-30.052,134.8-3.341,14.169-7.5,27.91-11.9,42.461-1.99,6.575-3.983,13.171-5.9,19.815l-3.312,11.45h52.958l.461-8.48a1045.468,1045.468,0,0,1,18.832-147.368L433,617.483l23.874-1.2L505.4,408.775,535.484,616.39h50.862Z" transform="translate(-309.987 -252.454)" fill="#f8f8f8"/>
</svg>
