<svg id="Mid_day_break" data-name="Mid day break" xmlns="http://www.w3.org/2000/svg" width="16.776" height="16.776" viewBox="0 0 16.776 16.776">
  <g id="Group_10295" data-name="Group 10295" transform="translate(4.172 4.172)">
    <g id="Group_10294" data-name="Group 10294">
      <path id="Path_14391" data-name="Path 14391" d="M82.39,76.443A4.231,4.231,0,0,0,79.416,75.2a4.139,4.139,0,0,0-2.974,1.243,4.216,4.216,0,0,0,2.974,7.19A4.139,4.139,0,0,0,82.39,82.39a4.231,4.231,0,0,0,1.243-2.974A4.139,4.139,0,0,0,82.39,76.443Zm-.8,5.148a3.108,3.108,0,1,1,.888-2.175A3.069,3.069,0,0,1,81.591,81.591Z" transform="translate(-75.2 -75.2)" fill="#2c2c2c"/>
    </g>
  </g>
  <g id="Group_10297" data-name="Group 10297" transform="translate(13.914 7.811)">
    <g id="Group_10296" data-name="Group 10296">
      <path id="Path_14392" data-name="Path 14392" d="M253.086,140.8h-1.709a.577.577,0,0,0,0,1.154h1.709a.577.577,0,0,0,0-1.154Z" transform="translate(-250.8 -140.8)" fill="#2c2c2c"/>
    </g>
  </g>
  <g id="Group_10299" data-name="Group 10299" transform="translate(7.811 13.914)">
    <g id="Group_10298" data-name="Group 10298">
      <path id="Path_14393" data-name="Path 14393" d="M141.377,250.8a.588.588,0,0,0-.577.577v1.709a.577.577,0,1,0,1.154,0v-1.709A.587.587,0,0,0,141.377,250.8Z" transform="translate(-140.8 -250.8)" fill="#2c2c2c"/>
    </g>
  </g>
  <g id="Group_10301" data-name="Group 10301" transform="translate(12.127 12.127)">
    <g id="Group_10300" data-name="Group 10300">
      <path id="Path_14394" data-name="Path 14394" d="M220.786,219.987l-1.221-1.221a.565.565,0,0,0-.8.8l1.221,1.221a.565.565,0,1,0,.8-.8Z" transform="translate(-218.6 -218.6)" fill="#2c2c2c"/>
    </g>
  </g>
  <g id="Group_10303" data-name="Group 10303" transform="translate(7.811)">
    <g id="Group_10302" data-name="Group 10302">
      <path id="Path_14395" data-name="Path 14395" d="M141.377,0a.588.588,0,0,0-.577.577V2.286a.577.577,0,0,0,1.154,0V.577A.587.587,0,0,0,141.377,0Z" transform="translate(-140.8)" fill="#2c2c2c"/>
    </g>
  </g>
  <g id="Group_10305" data-name="Group 10305" transform="translate(12.15 2.297)">
    <g id="Group_10304" data-name="Group 10304">
      <path id="Path_14396" data-name="Path 14396" d="M221.186,41.566a.563.563,0,0,0-.8,0l-1.22,1.221a.565.565,0,1,0,.8.8l1.221-1.221A.563.563,0,0,0,221.186,41.566Z" transform="translate(-219 -41.4)" fill="#2c2c2c"/>
    </g>
  </g>
  <g id="Group_10307" data-name="Group 10307" transform="translate(0 7.811)">
    <g id="Group_10306" data-name="Group 10306">
      <path id="Path_14397" data-name="Path 14397" d="M2.286,140.8H.577a.588.588,0,0,0-.577.577.573.573,0,0,0,.577.577H2.286a.577.577,0,0,0,0-1.154Z" transform="translate(0 -140.8)" fill="#2c2c2c"/>
    </g>
  </g>
  <g id="Group_10309" data-name="Group 10309" transform="translate(2.275 12.127)">
    <g id="Group_10308" data-name="Group 10308">
      <path id="Path_14398" data-name="Path 14398" d="M43.186,218.766a.562.562,0,0,0-.8,0l-1.221,1.221a.565.565,0,1,0,.8.8l1.221-1.221A.563.563,0,0,0,43.186,218.766Z" transform="translate(-41 -218.6)" fill="#2c2c2c"/>
    </g>
  </g>
  <g id="Group_10311" data-name="Group 10311" transform="translate(2.275 2.297)">
    <g id="Group_10310" data-name="Group 10310">
      <path id="Path_14399" data-name="Path 14399" d="M43.186,42.787l-1.221-1.221a.565.565,0,1,0-.8.8l1.221,1.221a.565.565,0,0,0,.8-.8Z" transform="translate(-41 -41.4)" fill="#2c2c2c"/>
    </g>
  </g>
</svg>
