<svg xmlns="http://www.w3.org/2000/svg" width="57.801" height="56.308" viewBox="0 0 57.801 56.308">
  <g id="Motto_Pass_Icon" data-name="Motto Pass Icon" transform="translate(-923.647 -155.647)">
    <path id="Path_14261" data-name="Path 14261" d="M45.323,0H2.183A2.367,2.367,0,0,0,0,2.51v7.526a2.15,2.15,0,0,0,.833,1.748,5.36,5.36,0,0,1,2.142,4.405A5.359,5.359,0,0,1,.833,20.594,2.15,2.15,0,0,0,0,22.342v7.526a2.366,2.366,0,0,0,2.183,2.51H45.323a2.366,2.366,0,0,0,2.183-2.51V2.51A2.367,2.367,0,0,0,45.323,0Zm.792,29.868a.858.858,0,0,1-.792.91H11.061c0-.5-1.392-.5-1.392,0H2.183a.858.858,0,0,1-.792-.91V22.342a.474.474,0,0,1,.173-.387,7.014,7.014,0,0,0,2.8-5.766,7.014,7.014,0,0,0-2.8-5.766.474.474,0,0,1-.173-.387V2.51a.858.858,0,0,1,.792-.91H9.669v.055a.753.753,0,0,0,.7.8.753.753,0,0,0,.7-.8V1.6H45.323a.858.858,0,0,1,.792.91Z" transform="translate(959.854 211.603) rotate(-139)" fill="#898989" stroke="#898989" stroke-width="0.5"/>
    <path id="Path_14357" data-name="Path 14357" d="M5049-1428.366l19.986-22.661" transform="translate(-4096.452 1632.311)" fill="none" stroke="#898989" stroke-width="2" stroke-dasharray="3.5"/>
    <path id="Path_14197" data-name="Path 14197" d="M29.374,21.945a.362.362,0,0,0-.237.17l-2.814,4.577-5.266,1.051a.362.362,0,0,0-.192.61l3.854,3.854-.7,5.244a.362.362,0,0,0,.509.373l4.916-2.1,4.916,2.1a.362.362,0,0,0,.509-.373l-.441-3.266a.362.362,0,1,0-.712.09l.35,2.644L29.589,35a.362.362,0,0,0-.294,0L24.82,36.918l.644-4.8a.362.362,0,0,0-.1-.305l-3.5-3.5,4.758-.949a.362.362,0,0,0,.237-.158L29.442,23l2.588,4.2a.362.362,0,0,0,.237.158l4.758.949-3.5,3.5a.368.368,0,0,0,.52.52l3.978-3.978a.362.362,0,0,0-.192-.61l-5.266-1.051-2.814-4.577a.362.362,0,0,0-.339-.17Z" transform="translate(917.854 148.394)" fill="#898989" stroke="#898989" stroke-width="0.75"/>
  </g>
</svg>
