<svg xmlns="http://www.w3.org/2000/svg" width="20.471" height="18.624" viewBox="0 0 20.471 18.624">
  <g id="My_Earnings_Icon" data-name="My Earnings Icon" transform="translate(-201.85 -695.825)">
    <g id="noun_Hand_2215342" transform="translate(202 705.049)">
      <g id="Group_9948" data-name="Group 9948" transform="translate(0 0)">
        <path id="Path_14375" data-name="Path 14375" d="M25.632,49.248a1,1,0,0,0-.467-.661l-.029-.017a2.156,2.156,0,0,0-.946-.207,2.411,2.411,0,0,0-1.534.566L18.8,52.086a.516.516,0,0,1-.307.075H15.232c-.041-.011-.139-.045-.139-.118.005-.13.084-.13.136-.13h2.9c.4-.038,1.157-.313,1.165-1.082a1.076,1.076,0,0,0-.265-.764,1.248,1.248,0,0,0-.967-.365l-5.674-.094A8.17,8.17,0,0,0,8.448,50.7l-.027.019-2.828,2.21a.305.305,0,0,0-.026.459L9.8,57.527a.306.306,0,0,0,.429,0l1.105-1.1a.365.365,0,0,0,.04-.05.273.273,0,0,1,.2-.114h6.784A3.747,3.747,0,0,0,20.8,55.187l4.646-5.233.015-.019A.948.948,0,0,0,25.632,49.248Zm-.652.315-4.634,5.219a3.173,3.173,0,0,1-2,.869H11.574a.872.872,0,0,0-.694.36l-.872.868L6.245,53.192l2.54-1.984a7.664,7.664,0,0,1,3.614-.99h0l5.662.094a.69.69,0,0,1,.516.161.477.477,0,0,1,.111.316h0c0,.01,0,.019,0,.029,0,.39-.514.473-.6.484H15.229a.72.72,0,0,0-.748.736.767.767,0,0,0,.667.731.314.314,0,0,0,.051,0h3.294a1.048,1.048,0,0,0,.7-.218l3.848-3.149a1.812,1.812,0,0,1,1.15-.43,1.64,1.64,0,0,1,.65.131.407.407,0,0,1,.188.239A.333.333,0,0,1,24.98,49.563Z" transform="translate(-5.476 -48.364)" fill="#161616" stroke="#161616" stroke-width="0.3"/>
      </g>
    </g>
    <g id="noun_Money_59752" transform="translate(208.617 696)">
      <g id="Group_9949" data-name="Group 9949" transform="translate(0 0)">
        <path id="Path_14376" data-name="Path 14376" d="M9.255,5a4.255,4.255,0,1,0,4.255,4.255A4.26,4.26,0,0,0,9.255,5Zm0,7.937a3.682,3.682,0,1,1,3.682-3.682A3.686,3.686,0,0,1,9.255,12.937Z" transform="translate(-5 -5)" fill="#53bfd2" stroke="#53bfd2" stroke-width="0.35"/>
        <path id="Path_14377" data-name="Path 14377" d="M36.137,23.426c-.67-.132-.986-.231-.986-.567a.529.529,0,0,1,.321-.516,1.428,1.428,0,0,1,1.333.152.287.287,0,1,0,.355-.451,1.847,1.847,0,0,0-.838-.346v-.51a.287.287,0,0,0-.574,0v.493a1.635,1.635,0,0,0-.527.144,1.1,1.1,0,0,0-.644,1.032c0,.844.838,1.009,1.449,1.13.66.129.894.219.894.459a.527.527,0,0,1-.3.508,1.416,1.416,0,0,1-1.317-.119.287.287,0,0,0-.332.468,1.881,1.881,0,0,0,.781.3v.686a.287.287,0,0,0,.574,0v-.678a1.611,1.611,0,0,0,.558-.149,1.1,1.1,0,0,0,.614-1.018C37.494,23.693,36.742,23.545,36.137,23.426Z" transform="translate(-31.78 -19.399)" fill="#53bfd2" stroke="#53bfd2" stroke-width="0.35"/>
      </g>
    </g>
  </g>
</svg>
