<svg xmlns="http://www.w3.org/2000/svg" width="16.929" height="16.929" viewBox="0 0 16.929 16.929">
  <g id="Never_too_Late" data-name="Never too Late" transform="translate(0.075 0.077)">
    <path id="Path_14411" data-name="Path 14411" d="M333.457,4.949a.492.492,0,0,0,.492-.491,1.476,1.476,0,0,1,1.474-1.474.491.491,0,1,0,0-.983A1.511,1.511,0,0,1,333.949.493a.491.491,0,1,0-.983,0A1.511,1.511,0,0,1,331.491,2a.491.491,0,0,0,0,.983,1.476,1.476,0,0,1,1.475,1.474A.491.491,0,0,0,333.457,4.949Zm-.5-2.462a2.531,2.531,0,0,0,.5-.507,2.531,2.531,0,0,0,.5.507,2.479,2.479,0,0,0-.5.5A2.479,2.479,0,0,0,332.958,2.486Z" transform="translate(-320.154 0)" fill="#2c2c2c" stroke="#f6f6f6" stroke-width="0.15"/>
    <path id="Path_14412" data-name="Path 14412" d="M184.932,91.492a.492.492,0,0,0-.983,0,2.46,2.46,0,0,1-2.457,2.457.491.491,0,1,0,0,.983,2.46,2.46,0,0,1,2.457,2.457.492.492,0,1,0,.983,0,2.46,2.46,0,0,1,2.457-2.457.491.491,0,0,0,0-.983A2.46,2.46,0,0,1,184.932,91.492Zm-.491,4.128a3.467,3.467,0,0,0-1.179-1.179,3.467,3.467,0,0,0,1.179-1.179,3.467,3.467,0,0,0,1.179,1.179A3.467,3.467,0,0,0,184.44,95.62Z" transform="translate(-175.069 -88.019)" fill="#2c2c2c" stroke="#f6f6f6" stroke-width="0.15"/>
    <path id="Path_14413" data-name="Path 14413" d="M8.388,16.777a8.5,8.5,0,0,0,8.384-7.251.492.492,0,0,0-.9-.338,6.077,6.077,0,0,1-5.03,2.642,5.9,5.9,0,0,1-5.9-5.9A6.077,6.077,0,0,1,7.589.9a.492.492,0,0,0-.338-.9A8.5,8.5,0,0,0,0,8.389a8.406,8.406,0,0,0,8.388,8.388ZM5.512,1.5A7.17,7.17,0,0,0,3.965,5.931a6.889,6.889,0,0,0,6.881,6.881,7.17,7.17,0,0,0,4.435-1.547,7.511,7.511,0,0,1-6.892,4.529A7.414,7.414,0,0,1,.983,8.389,7.511,7.511,0,0,1,5.512,1.5Z" fill="#2c2c2c" stroke="#f6f6f6" stroke-width="0.15"/>
  </g>
</svg>
