<svg xmlns="http://www.w3.org/2000/svg" width="18.888" height="18.923" viewBox="0 0 18.888 18.923">
  <path id="Phone_Icon" data-name="Phone Icon" d="M20.554,16.043v2.623a1.748,1.748,0,0,1-1.906,1.748A17.3,17.3,0,0,1,11.1,17.731a17.047,17.047,0,0,1-5.245-5.245,17.3,17.3,0,0,1-2.684-7.58A1.748,1.748,0,0,1,4.915,3H7.537A1.748,1.748,0,0,1,9.286,4.5,11.225,11.225,0,0,0,9.9,6.96,1.748,1.748,0,0,1,9.5,8.8l-1.11,1.11a13.988,13.988,0,0,0,5.245,5.245l1.11-1.11a1.748,1.748,0,0,1,1.845-.393,11.225,11.225,0,0,0,2.457.612,1.748,1.748,0,0,1,1.5,1.775Z" transform="translate(-2.417 -2.25)" fill="none" stroke="#c1c1c1" stroke-linecap="round" stroke-linejoin="round" stroke-width="1.5"/>
</svg>
