<svg id="Pilates_Icon" data-name="Pilates Icon" xmlns="http://www.w3.org/2000/svg" width="58" height="58" viewBox="0 0 58 58">
  <path id="Path_14083" data-name="Path 14083" d="M29,58A29,29,0,1,1,58,29,29,29,0,0,1,29,58ZM29,1.813A27.188,27.188,0,1,0,56.188,29,27.188,27.188,0,0,0,29,1.813Z" fill="#e3e3e3"/>
  <path id="Path_14084" data-name="Path 14084" d="M30.355,11.352A28.892,28.892,0,0,1,14.448,6.605l1-1.515a27.073,27.073,0,0,0,14.91,4.45A27.071,27.071,0,0,0,45.263,5.091l1,1.515a28.889,28.889,0,0,1-15.906,4.746Z" transform="translate(-1.354 -0.477)" fill="#e3e3e3"/>
  <path id="Path_14085" data-name="Path 14085" d="M11.213,26.139c-.657-.485-1.3-1-1.9-1.528l1.2-1.359c.564.5,1.161.976,1.775,1.428Z" transform="translate(-0.873 -2.18)" fill="#e3e3e3"/>
  <path id="Path_14086" data-name="Path 14086" d="M8.267,20.971a23.5,23.5,0,0,1-3.158-4.216L3.79,18.074a25.494,25.494,0,0,0,3.156,4.14Z" transform="translate(-0.355 -1.571)" fill="#e3e3e3"/>
  <path id="Path_14087" data-name="Path 14087" d="M48.485,33.219a29.2,29.2,0,0,1-19.362,7.024c-12.1,0-22.732-6.959-26.092-16.98l-1.722.573c3.609,10.752,14.94,18.219,27.814,18.219A31.007,31.007,0,0,0,49.682,34.58Z" transform="translate(-0.123 -2.181)" fill="#e3e3e3"/>
  <path id="Path_14088" data-name="Path 14088" d="M60.282,23.267a22.461,22.461,0,0,1-5.011,8.282l1.32,1.241A24.254,24.254,0,0,0,62,23.841Z" transform="translate(-5.182 -2.181)" fill="#e3e3e3"/>
  <path id="Path_14089" data-name="Path 14089" d="M54.609,16.576C49.973,24.64,40.653,29.648,30.263,29.648a29.906,29.906,0,0,1-15.836-4.409l-.958,1.541A31.707,31.707,0,0,0,30.263,31.46c10.993,0,20.875-5.315,25.854-13.879Z" transform="translate(-1.263 -1.554)" fill="#e3e3e3"/>
  <path id="Path_14090" data-name="Path 14090" d="M29.682,19.1A28.878,28.878,0,0,1,8.593,10.408l-1.32,1.241a30.692,30.692,0,0,0,22.409,9.265,30.877,30.877,0,0,0,21.53-8.376L49.93,11.255A29.068,29.068,0,0,1,29.682,19.1Z" transform="translate(-0.682 -0.976)" fill="#e3e3e3"/>
  <path id="Path_14091" data-name="Path 14091" d="M56.178,31.315c-.227,10.5-12.824,19.65-27.177,19.65S2.039,41.813,1.824,31.3H.011C.214,42.971,13.4,52.778,29,52.778s28.776-9.8,28.99-21.463Z" transform="translate(-0.001 -2.934)" fill="#e3e3e3"/>
</svg>
