<svg xmlns="http://www.w3.org/2000/svg" width="118.328" height="110.779" viewBox="0 0 118.328 110.779">
  <path id="Path_14220" data-name="Path 14220" d="M-172.664,315.644c-9.149,2.341-13.617,10.852-12.766,23.618l7.022-.426c-.426-5.319.213-14.469,7.447-16.171,23.831-5.958,31.7-14.256,34.256-19.575a30.6,30.6,0,0,0,7.873,1.064h.851a28.822,28.822,0,0,0,8.724-1.277c2.553,5.107,10.213,13.617,34.469,19.788,7.447,1.915,7.873,11.064,7.447,16.384l7.021.426c.851-12.766-3.83-21.277-12.766-23.618-22.979-5.745-28.512-12.979-29.788-15.958a20.25,20.25,0,0,0,4.468-4.043c10.851-12.128,8.936-32.98,8.724-34.895-1.064-23.831-18.511-29.576-28.724-29.15-10.213-.426-27.66,5.319-28.724,29.15-.213,1.915-1.915,22.767,8.724,34.895a26.945,26.945,0,0,0,5.319,4.468C-144.79,303.3-150.961,310.112-172.664,315.644Zm22.554-54.257v-.213c1.064-20.852,16.384-22.554,20.852-22.554h.851c3.4-.213,20.639.213,21.7,22.554v.213c0,.213,1.915,19.362-7.022,29.576-3.617,4.043-8.3,5.958-14.681,6.17h-.426c-6.17,0-11.064-2.128-14.681-6.17C-152.025,280.962-150.11,261.6-150.11,261.387Z" transform="translate(187.047 -230.284)" fill="#fff" stroke="#53bfd2" stroke-width="3"/>
</svg>
