<svg xmlns="http://www.w3.org/2000/svg" width="17.708" height="17.026" viewBox="0 0 17.708 17.026">
  <g id="Rise_and_Shine" data-name="Rise and Shine" transform="translate(0.125 -9.875)">
    <path id="Path_14390" data-name="Path 14390" d="M15.435,18.047h1.341a.682.682,0,1,1,0,1.364H15.435a.682.682,0,1,1,0-1.364ZM.682,19.411H2.023a.682.682,0,1,0,0-1.364H.682a.682.682,0,1,0,0,1.364Zm8.047-6.706a.682.682,0,0,0,.682-.682V10.682a.682.682,0,0,0-1.364,0v1.341A.682.682,0,0,0,8.729,12.705ZM3.505,14.47a.682.682,0,0,0,.964-.964l-.948-.948a.682.682,0,0,0-.964.964Zm10.448,0,.948-.948a.682.682,0,0,0-.964-.964l-.948.948a.682.682,0,0,0,.964.964Zm3.505,8.283a.682.682,0,0,1-.682.682H.682a.682.682,0,1,1,0-1.364h4.73a4.711,4.711,0,1,1,6.635,0h4.73A.682.682,0,0,1,17.458,22.753Zm-8.922-.682h.386a3.347,3.347,0,1,0-.386,0Zm5.558,3.342H3.364a.682.682,0,0,0,0,1.364h10.73a.682.682,0,0,0,0-1.364Z" fill="#2c2c2c" stroke="#f8f8f8" stroke-width="0.25"/>
  </g>
</svg>
