<svg xmlns="http://www.w3.org/2000/svg" width="50.836" height="55.603" viewBox="0 0 50.836 55.603">
  <g id="Schedule_Slot_Icon" data-name="Schedule Slot Icon" transform="translate(-1015.509 -421.472)">
    <path id="Path_14189" data-name="Path 14189" d="M-183.539,91.916h-3.975a.917.917,0,0,0-.845.841.915.915,0,0,0,.845.982h3.975a1.4,1.4,0,0,1,1.392,1.395v6.17h-44.284V95.135a1.4,1.4,0,0,1,1.392-1.395h3.975a.916.916,0,0,0,.845-.84.916.916,0,0,0-.845-.982h-3.975a3.226,3.226,0,0,0-3.224,3.216v36.35a3.227,3.227,0,0,0,3.224,3.208h23.733v0a.916.916,0,0,0,.845-.84.916.916,0,0,0-.845-.982h-13.608v-8.7h16.638a.916.916,0,0,0,.845-.84.916.916,0,0,0-.845-.982h-16.638v-8.7h9.722v20.013a.9.9,0,0,0,.9.9h0a.9.9,0,0,0,.9-.9V113.648h9.722v5.241a.9.9,0,0,0,.9.9.9.9,0,0,0,.9-.9v-5.241h9.707v6.439a.916.916,0,0,0,.919.914h0a.909.909,0,0,0,.913-.912V95.133A3.225,3.225,0,0,0-183.539,91.916Zm-33.182,11.211v8.7h-9.71v-8.7Zm0,29.743h-8.318a1.389,1.389,0,0,1-1.392-1.385v-7.316h9.71Zm0-10.524h-9.71v-8.7h9.71Zm1.807-10.521v-8.7h9.722v8.7Zm11.53,0v-8.7h9.722v8.7Zm11.529,0v-8.7h9.707v8.7Z" transform="translate(1243.771 334.603)" fill="#53bfd2"/>
    <path id="Path_14190" data-name="Path 14190" d="M-210.457,96.148a3.183,3.183,0,0,0,3.068-3.278V90.978h16.848v1.892a3.183,3.183,0,0,0,3.068,3.278,3.183,3.183,0,0,0,3.06-3.278V87.135a3.183,3.183,0,0,0-2.9-3.111,3.155,3.155,0,0,0-3.224,3.111V89.06H-207.39V87.135a3.183,3.183,0,0,0-2.9-3.111,3.155,3.155,0,0,0-3.224,3.111v5.734A3.184,3.184,0,0,0-210.457,96.148Zm21.7-8.974h0a1.323,1.323,0,0,1,1.285-1.357h0a1.323,1.323,0,0,1,1.275,1.367v5.734a1.333,1.333,0,0,1-1.169,1.253,1.315,1.315,0,0,1-1.391-1.253Zm-22.978.01v0a1.324,1.324,0,0,1,1.279-1.364h.007a1.323,1.323,0,0,1,1.274,1.367v5.734a1.333,1.333,0,0,1-1.169,1.253,1.315,1.315,0,0,1-1.391-1.253Z" transform="translate(1238.449 337.453)" fill="#53bfd2"/>
    <rect id="Rectangle_6296" data-name="Rectangle 6296" width="1.912" height="1.912" transform="translate(1030.421 442.996)" fill="#53bfd2"/>
    <rect id="Rectangle_6297" data-name="Rectangle 6297" width="1.912" height="1.912" transform="translate(1057.682 442.996)" fill="#53bfd2"/>
    <rect id="Rectangle_6298" data-name="Rectangle 6298" width="1.912" height="1.912" transform="translate(1053.859 442.996)" fill="#53bfd2"/>
    <rect id="Rectangle_6299" data-name="Rectangle 6299" width="1.912" height="1.912" transform="translate(1023.759 464.309)" fill="#53bfd2"/>
    <g id="Ellipse_2855" data-name="Ellipse 2855" transform="translate(1045.952 456.682)" fill="none" stroke="#53bfd2" stroke-width="1.75">
      <circle cx="10.197" cy="10.197" r="10.197" stroke="none"/>
      <circle cx="10.197" cy="10.197" r="9.322" fill="none"/>
    </g>
    <path id="Path_3057" data-name="Path 3057" d="M7.432,0,1.715,5.9,0,4.13" transform="matrix(0.996, 0.087, -0.087, 0.996, 1052.965, 463.579)" fill="none" stroke="#53bfd2" stroke-linecap="round" stroke-linejoin="round" stroke-width="2"/>
  </g>
</svg>
