<svg xmlns="http://www.w3.org/2000/svg" width="24.376" height="26.862" viewBox="0 0 24.376 26.862">
  <g id="Icon_feather-share-2" data-name="Icon feather-share-2" transform="translate(-3.5 -2)">
    <path id="Path_14406" data-name="Path 14406" d="M29.959,6.729A3.729,3.729,0,1,1,26.229,3a3.729,3.729,0,0,1,3.729,3.729Z" transform="translate(-3.083 0)" fill="none" stroke="#53bfd2" stroke-linecap="round" stroke-linejoin="round" stroke-width="2"/>
    <path id="Path_14407" data-name="Path 14407" d="M11.959,17.229A3.729,3.729,0,1,1,8.229,13.5,3.729,3.729,0,0,1,11.959,17.229Z" transform="translate(0 -1.798)" fill="none" stroke="#53bfd2" stroke-linecap="round" stroke-linejoin="round" stroke-width="2"/>
    <path id="Path_14408" data-name="Path 14408" d="M29.959,27.729A3.729,3.729,0,1,1,26.229,24,3.729,3.729,0,0,1,29.959,27.729Z" transform="translate(-3.083 -3.596)" fill="none" stroke="#53bfd2" stroke-linecap="round" stroke-linejoin="round" stroke-width="2"/>
    <path id="Path_14409" data-name="Path 14409" d="M12.885,20.265l8.49,4.948" transform="translate(-1.436 -2.957)" fill="none" stroke="#53bfd2" stroke-linecap="round" stroke-linejoin="round" stroke-width="2"/>
    <path id="Path_14410" data-name="Path 14410" d="M21.363,9.765l-8.478,4.948" transform="translate(-1.436 -1.159)" fill="none" stroke="#53bfd2" stroke-linecap="round" stroke-linejoin="round" stroke-width="2"/>
  </g>
</svg>
