<svg xmlns="http://www.w3.org/2000/svg" width="179.984" height="133.302" viewBox="0 0 179.984 133.302">
  <g id="social" transform="translate(0.375 0.375)">
    <g id="noun_connect_636096" transform="translate(0 0)">
      <g id="Group_10214" data-name="Group 10214" transform="translate(0 0)">
        <path id="Path_14388" data-name="Path 14388" d="M113.914,98.73a15.093,15.093,0,0,0-8.374,2.514L92.318,88.021a27.364,27.364,0,0,0,0-34.1L105.541,40.7a15.174,15.174,0,1,0-4.293-4.29L88.025,49.636a27.28,27.28,0,0,0-34.1,0L40.7,36.414a15.195,15.195,0,1,0-4.3,4.293L49.634,53.932a27.364,27.364,0,0,0,0,34.1L36.412,101.25a15.182,15.182,0,1,0,4.293,4.293L53.93,92.32a27.287,27.287,0,0,0,34.092-.009l13.222,13.222a15.19,15.19,0,1,0,12.67-6.8Zm-6.443-77.138a9.109,9.109,0,0,1,12.882,12.882,9.327,9.327,0,0,1-12.882,0A9.124,9.124,0,0,1,107.472,21.592ZM21.6,34.474a9.111,9.111,0,1,1,12.885,0A9.331,9.331,0,0,1,21.6,34.474ZM34.478,120.35a9.33,9.33,0,0,1-12.882,0,9.109,9.109,0,1,1,12.882,0ZM55.946,86a21.256,21.256,0,1,1,15.029,6.224A21.276,21.276,0,0,1,55.946,86Zm64.408,34.35a9.33,9.33,0,0,1-12.882,0,9.109,9.109,0,1,1,12.882,0Z" transform="translate(-12.858 -12.86)" fill="#efefef" stroke="#f8f8f8" stroke-width="0.75"/>
      </g>
    </g>
    <g id="Icon_1" data-name="Icon 1" transform="translate(123.725 77.222)">
      <path id="Path_14177" data-name="Path 14177" d="M-84.986,189.37a1.634,1.634,0,0,1-2.276-.24l-4.649-5.743A1.6,1.6,0,0,1-92.218,182a1.491,1.491,0,0,1,.861-1.06l9.02-4.4-21.822-10.85,6.07,23.607,2.715-3.465a1.589,1.589,0,0,1,2.24-.186,1.589,1.589,0,0,1,.256,2.15l-4.686,6.062a1.617,1.617,0,0,1-2.273.269,1.6,1.6,0,0,1-.566-.866l-7.677-30.174a1.614,1.614,0,0,1,.518-1.6,1.539,1.539,0,0,1,1.669-.175l27.863,13.828a1.636,1.636,0,0,1,.9,1.445,1.546,1.546,0,0,1-.9,1.456l-10.134,4.94,3.409,4.21A1.563,1.563,0,0,1-84.986,189.37Z" transform="translate(132.987 -138.791)" fill="#efefef" stroke="#efefef" stroke-width="0.05"/>
      <path id="Path_9284" data-name="Path 9284" d="M-122.121,156.934a8.184,8.184,0,0,1,1.666.219q5.62,1.938,11.218,3.959a2.355,2.355,0,0,1,1.628,2.906,2.355,2.355,0,0,1-2.906,1.629,2.489,2.489,0,0,1-.24-.083q-5.72-1.984-11.408-4.037a2.276,2.276,0,0,1-1.6-2.34A2.612,2.612,0,0,1-122.121,156.934Z" transform="translate(123.766 -141.271)" fill="#efefef"/>
      <path id="Path_9285" data-name="Path 9285" d="M-107.751,163.112a2.15,2.15,0,0,1-2.308-.868q-3.173-4.039-6.291-8.122a2.317,2.317,0,0,1,.313-3.262c.038-.03.075-.059.114-.087a2.309,2.309,0,0,1,3.238.423l.027.035c2.122,2.685,4.228,5.385,6.288,8.117a2.341,2.341,0,0,1-.362,3.292A2.336,2.336,0,0,1-107.751,163.112Z" transform="translate(127.825 -145.185)" fill="#efefef"/>
      <path id="Path_9286" data-name="Path 9286" d="M-103.115,148.967c0,.165.046.542.035.909q-.122,3.808-.264,7.617a2.371,2.371,0,0,1-2.2,2.53,2.37,2.37,0,0,1-2.53-2.2,2.414,2.414,0,0,1,.016-.491c.081-2.64.165-5.282.288-7.92a2.309,2.309,0,0,1,2.124-2.327A2.385,2.385,0,0,1-103.115,148.967Z" transform="translate(133.013 -147.08)" fill="#efefef"/>
    </g>
  </g>
</svg>
