<svg xmlns="http://www.w3.org/2000/svg" width="65.983" height="58.25" viewBox="0 0 65.983 58.25">
  <g id="Strength_Icon" data-name="Strength Icon" transform="translate(0.133 -2.666)">
    <path id="Path_14073" data-name="Path 14073" d="M37.929,27.5l-6.178-2.852c-3.755-1.735-8.5.1-11.932,4.172l-5.392-2.947c-1.2-.557-2.881.462-3.681,2.188a4.458,4.458,0,0,0-.4,2.576A2.092,2.092,0,0,0,11.4,32.254l4.992,2.735c-2.066,6.233-.516,12.466,3.886,14.494l6.176,2.851A7.316,7.316,0,0,0,29.544,53a9.875,9.875,0,0,0,5.014-1.5,16.906,16.906,0,0,0,6.476-7.507C44.2,37.153,42.8,29.746,37.929,27.5ZM12.419,30.48a.767.767,0,0,1-.053-.187,2.472,2.472,0,0,1,.242-1.367,2.167,2.167,0,0,1,1.035-1.149l4.931,2.7a19.093,19.093,0,0,0-1.4,2.508c-.011.026-.021.052-.033.078Zm6.617,3.368c2.688-5.821,8-9.111,11.857-7.336l1.514.7a11.165,11.165,0,0,0-2.579,1.123,16.9,16.9,0,0,0-6.476,7.506,16.924,16.924,0,0,0-1.515,9.8,11.212,11.212,0,0,0,.82,2.69l-1.5-.7C17.292,45.848,16.347,39.665,19.035,33.848Zm20.137,9.3a14.866,14.866,0,0,1-5.661,6.6,6.61,6.61,0,0,1-6.2.733,6.615,6.615,0,0,1-3.458-5.2,14.859,14.859,0,0,1,1.354-8.591,14.853,14.853,0,0,1,5.661-6.6,7.865,7.865,0,0,1,3.965-1.21,5.29,5.29,0,0,1,2.225.476C40.916,31.136,41.861,37.32,39.173,43.146Z" transform="translate(3.779 7.789)" fill="#e3e3e3" stroke="#fff" stroke-width="0.25"/>
    <path id="Path_14074" data-name="Path 14074" d="M17.033,42.566a6.153,6.153,0,0,1-5.184.209c-2.226-1.028-3.581-3.658-3.624-7.035A1.026,1.026,0,0,0,7.2,34.728H7.187a1.026,1.026,0,0,0-1.012,1.039A12.127,12.127,0,0,0,7.2,40.628l-1.531-.706a6.619,6.619,0,0,1-3.459-5.2,14.87,14.87,0,0,1,1.355-8.591,14.861,14.861,0,0,1,5.661-6.6,6.624,6.624,0,0,1,6.194-.734.627.627,0,0,0,.063.027l1.486.684a15.481,15.481,0,0,0-9.089,8.614A18.848,18.848,0,0,0,6.54,32.147a1.026,1.026,0,0,0,.79,1.216,1.05,1.05,0,0,0,.215.022,1.024,1.024,0,0,0,1-.814,16.882,16.882,0,0,1,1.2-3.587c2.688-5.82,8.006-9.118,11.857-7.335a6.721,6.721,0,0,1,3.506,5.487,1.026,1.026,0,1,0,2.031-.293,8.8,8.8,0,0,0-4.676-7.057l-6.175-2.854a.727.727,0,0,0-.068-.029,8.614,8.614,0,0,0-8.035.861,16.91,16.91,0,0,0-6.476,7.506C-1.456,32.13-.064,39.534,4.812,41.786l6.178,2.851a7.294,7.294,0,0,0,3.075.659,9.364,9.364,0,0,0,3.807-.857,1.026,1.026,0,0,0-.838-1.873Z" transform="translate(0 4.958)" fill="#e3e3e3" stroke="#fff" stroke-width="0.25"/>
    <path id="Path_14075" data-name="Path 14075" d="M37.155,34.018a1.026,1.026,0,1,0,.025,2.051h.031A7.458,7.458,0,1,0,30.185,25.64a1.026,1.026,0,0,0,1.88.82,5.407,5.407,0,1,1,5.095,7.56Z" transform="translate(11.054 6.747)" fill="#e3e3e3" stroke="#fff" stroke-width="0.25"/>
    <path id="Path_14076" data-name="Path 14076" d="M55.663,7.875A10.969,10.969,0,0,0,46.38,2.791H33.424A11.016,11.016,0,0,0,23.43,18.435L26.888,25.9a16.17,16.17,0,0,0-1.935,3.485,1.025,1.025,0,1,0,1.9.763,14.127,14.127,0,0,1,1.966-3.416.465.465,0,0,0,.031-.041,13.887,13.887,0,0,1,3.216-2.98h0c.008,0,.012-.011.021-.014A14,14,0,1,1,46.916,47.433H39.9a1.026,1.026,0,0,0,0,2.051h7.287a1.021,1.021,0,0,0,.5-.137A16,16,0,0,0,52.861,26.02l3.514-7.586a10.97,10.97,0,0,0-.712-10.559Zm-1.149,9.7-3.1,6.7a16.134,16.134,0,0,0-2-1.76L52.194,16.5A6.4,6.4,0,0,0,46.38,7.4H45.095a1.026,1.026,0,1,0,0,2.051h1.281a4.354,4.354,0,0,1,3.953,6.186l-2.653,5.736A16.027,16.027,0,0,0,32.1,21.3l-2.625-5.666A4.354,4.354,0,0,1,33.431,9.45h8.6a1.026,1.026,0,0,0,0-2.051H33.424a6.408,6.408,0,0,0-5.813,9.1l2.743,5.919a15.92,15.92,0,0,0-2.009,1.746l-3.053-6.594A8.962,8.962,0,0,1,33.424,4.839H46.38a8.963,8.963,0,0,1,8.135,12.73Z" transform="translate(8.229 0)" fill="#e3e3e3" stroke="#fff" stroke-width="0.25"/>
  </g>
</svg>
