<svg xmlns="http://www.w3.org/2000/svg" width="30.85" height="27.25" viewBox="0 0 30.85 27.25">
  <g id="Strength_Icon" data-name="Strength Icon" transform="translate(0.134 0.125)">
    <path id="Path_14073" data-name="Path 14073" d="M23.161,25.624,20.285,24.3c-1.748-.808-3.958.047-5.554,1.942l-2.51-1.372c-.557-.259-1.341.215-1.714,1.018a2.075,2.075,0,0,0-.188,1.2.974.974,0,0,0,.493.754l2.324,1.273c-.962,2.9-.24,5.8,1.809,6.747l2.875,1.327a3.405,3.405,0,0,0,1.437.311,4.6,4.6,0,0,0,2.334-.7A7.87,7.87,0,0,0,24.606,33.3C26.079,30.119,25.43,26.671,23.161,25.624ZM11.285,27.013a.357.357,0,0,1-.025-.087,1.151,1.151,0,0,1,.113-.637,1.009,1.009,0,0,1,.482-.535l2.3,1.256a8.888,8.888,0,0,0-.652,1.167c-.005.012-.01.024-.015.036Zm3.08,1.568c1.251-2.71,3.726-4.241,5.519-3.415l.7.326a5.2,5.2,0,0,0-1.2.523,8.372,8.372,0,0,0-3.72,8.055,5.22,5.22,0,0,0,.382,1.252l-.7-.325C13.554,34.167,13.114,31.288,14.366,28.58Zm9.374,4.328A6.92,6.92,0,0,1,21.1,35.982a3.077,3.077,0,0,1-2.884.341,3.08,3.08,0,0,1-1.61-2.419,7.421,7.421,0,0,1,3.265-7.073,3.661,3.661,0,0,1,1.846-.563,2.463,2.463,0,0,1,1.036.222C24.551,27.318,24.991,30.2,23.74,32.909Z" transform="translate(-3.75 -10.497)" fill="#53bfd2" stroke="#53bfd2" stroke-width="0.25"/>
    <path id="Path_14074" data-name="Path 14074" d="M7.935,28.52a2.864,2.864,0,0,1-2.413.1,3.455,3.455,0,0,1-1.687-3.275.477.477,0,0,0-.477-.471H3.352a.477.477,0,0,0-.471.484,5.645,5.645,0,0,0,.479,2.263l-.713-.328a3.081,3.081,0,0,1-1.61-2.419,6.922,6.922,0,0,1,.631-4A6.918,6.918,0,0,1,4.3,17.8a3.083,3.083,0,0,1,2.884-.342l.029.013.692.318A7.207,7.207,0,0,0,3.676,21.8a8.774,8.774,0,0,0-.625,1.873.477.477,0,0,0,.368.566.488.488,0,0,0,.1.01.477.477,0,0,0,.466-.379,7.859,7.859,0,0,1,.558-1.67c1.251-2.709,3.727-4.244,5.519-3.414a3.129,3.129,0,0,1,1.632,2.554.478.478,0,0,0,.945-.136,4.1,4.1,0,0,0-2.177-3.285L7.587,16.588l-.032-.013a4.01,4.01,0,0,0-3.74.4A7.872,7.872,0,0,0,.8,20.469c-1.472,3.192-.824,6.639,1.446,7.687l2.876,1.327a3.4,3.4,0,0,0,1.432.307,4.359,4.359,0,0,0,1.772-.4.478.478,0,0,0-.39-.872Z" transform="translate(-0.011 -7.696)" fill="#53bfd2" stroke="#53bfd2" stroke-width="0.25"/>
    <path id="Path_14075" data-name="Path 14075" d="M33.384,27.143a.477.477,0,1,0,.011.955h.015a3.472,3.472,0,1,0-3.271-4.855.477.477,0,0,0,.875.382,2.517,2.517,0,1,1,2.372,3.519Z" transform="translate(-10.947 -9.466)" fill="#53bfd2" stroke="#53bfd2" stroke-width="0.25"/>
    <path id="Path_14076" data-name="Path 14076" d="M37.89,5.158a5.106,5.106,0,0,0-4.321-2.367H27.537a5.128,5.128,0,0,0-4.652,7.283l1.61,3.475a7.528,7.528,0,0,0-.9,1.623.477.477,0,1,0,.886.355,6.576,6.576,0,0,1,.915-1.59l.015-.019a6.464,6.464,0,0,1,1.5-1.387h0s.006-.005.01-.006a6.516,6.516,0,1,1,6.9,11.049H30.551a.477.477,0,0,0,0,.955h3.392a.476.476,0,0,0,.234-.064A7.447,7.447,0,0,0,36.586,13.6l1.636-3.532a5.107,5.107,0,0,0-.332-4.915Zm-.535,4.514L35.91,12.791a7.51,7.51,0,0,0-.932-.819l1.3-2.8a2.982,2.982,0,0,0-2.707-4.235h-.6a.477.477,0,0,0,0,.955h.6a2.027,2.027,0,0,1,1.84,2.88l-1.235,2.67a7.461,7.461,0,0,0-7.249-.032L25.7,8.771a2.027,2.027,0,0,1,1.84-2.88h5.375a.477.477,0,0,0,0-.955H27.537a2.983,2.983,0,0,0-2.706,4.236l1.277,2.756a7.411,7.411,0,0,0-.935.813L23.752,9.671a4.172,4.172,0,0,1,3.785-5.927h6.031a4.172,4.172,0,0,1,3.787,5.926Z" transform="translate(-8.153 -2.791)" fill="#53bfd2" stroke="#53bfd2" stroke-width="0.25"/>
  </g>
</svg>
