<svg xmlns="http://www.w3.org/2000/svg" width="81.027" height="51.5" viewBox="0 0 81.027 51.5">
  <g id="Training_Icon" data-name="Training Icon" transform="translate(0.25 0.25)">
    <path id="Path_14394" data-name="Path 14394" d="M6.711,27.421H1.342A1.343,1.343,0,0,1,0,26.079V15.342A1.343,1.343,0,0,1,1.342,14H6.711a1.343,1.343,0,0,1,1.342,1.342V26.079A1.343,1.343,0,0,1,6.711,27.421ZM2.684,24.737H5.368V16.684H2.684Z" transform="translate(0 4.79)" fill="#898989" stroke="#161616" stroke-width="0.5"/>
    <path id="Path_14395" data-name="Path 14395" d="M48.868,27.421H19.342A1.343,1.343,0,0,1,18,26.079V15.342A1.343,1.343,0,0,1,19.342,14H48.868a1.343,1.343,0,0,1,1.342,1.342V26.079A1.343,1.343,0,0,1,48.868,27.421ZM20.684,24.737H47.526V16.684H20.684Z" transform="translate(6.158 4.79)" fill="#898989" stroke="#161616" stroke-width="0.5"/>
    <path id="Path_14398" data-name="Path 14398" d="M60.711,27.421H55.342A1.343,1.343,0,0,1,54,26.079V15.342A1.343,1.343,0,0,1,55.342,14h5.368a1.343,1.343,0,0,1,1.342,1.342V26.079A1.343,1.343,0,0,1,60.711,27.421Zm-4.026-2.684h2.684V16.684H56.684Z" transform="translate(18.475 4.79)" fill="#898989" stroke="#161616" stroke-width="0.5"/>
    <path id="Path_14400" data-name="Path 14400" d="M42.368,20.684H38.342a1.342,1.342,0,1,1,0-2.684h4.026a1.342,1.342,0,0,1,0,2.684Z" transform="translate(6.658 6.158)" fill="#898989" stroke="#161616" stroke-width="0.5"/>
    <path id="Path_14401" data-name="Path 14401" d="M15.342,23.421A1.343,1.343,0,0,1,14,22.079V11.342a1.342,1.342,0,0,1,2.684,0V22.079A1.343,1.343,0,0,1,15.342,23.421Z" transform="translate(4.79 3.421)" fill="#898989" stroke="#161616" stroke-width="0.5"/>
    <path id="Path_14402" data-name="Path 14402" d="M15.342,9.368A1.343,1.343,0,0,1,14,8.026V5.342a1.342,1.342,0,1,1,2.684,0V8.026A1.343,1.343,0,0,1,15.342,9.368Z" transform="translate(4.79 1.368)" fill="#898989" stroke="#161616" stroke-width="0.5"/>
    <path id="Path_14393" data-name="Path 14393" d="M9.368,37.526A5.374,5.374,0,0,1,4,32.158V13.368a5.368,5.368,0,1,1,10.737,0V32.158A5.374,5.374,0,0,1,9.368,37.526Zm0-26.842a2.687,2.687,0,0,0-2.684,2.684V32.158a2.684,2.684,0,1,0,5.368,0V13.368A2.687,2.687,0,0,0,9.368,10.684Z" transform="translate(1.369 2.737)" fill="#898989" stroke="#161616" stroke-width="0.5"/>
    <path id="Path_14392" data-name="Path 14392" d="M16.711,51A6.718,6.718,0,0,1,10,44.289V6.711a6.711,6.711,0,1,1,13.421,0V44.289A6.718,6.718,0,0,1,16.711,51Zm0-48.316a4.031,4.031,0,0,0-4.026,4.026V44.289a4.026,4.026,0,0,0,8.053,0V6.711A4.031,4.031,0,0,0,16.711,2.684Z" transform="translate(3.422)" fill="#898989" stroke="#161616" stroke-width="0.5"/>
    <path id="Path_14397" data-name="Path 14397" d="M53.368,37.526A5.374,5.374,0,0,1,48,32.158V13.368a5.368,5.368,0,0,1,10.737,0V32.158A5.374,5.374,0,0,1,53.368,37.526Zm0-26.842a2.687,2.687,0,0,0-2.684,2.684V32.158a2.684,2.684,0,0,0,5.368,0V13.368A2.687,2.687,0,0,0,53.368,10.684Z" transform="translate(16.422 2.737)" fill="#898989" stroke="#161616" stroke-width="0.5"/>
    <path id="Path_14396" data-name="Path 14396" d="M46.711,51A6.718,6.718,0,0,1,40,44.289V6.711a6.711,6.711,0,1,1,13.421,0V44.289A6.718,6.718,0,0,1,46.711,51Zm0-48.316a4.031,4.031,0,0,0-4.026,4.026V44.289a4.026,4.026,0,0,0,8.053,0V6.711A4.031,4.031,0,0,0,46.711,2.684Z" transform="translate(13.685)" fill="#898989" stroke="#161616" stroke-width="0.5"/>
  </g>
</svg>
