 <svg
                xmlns="http://www.w3.org/2000/svg"
                width="27.381"
                height="24.188"
                viewBox="0 0 27.381 24.188"
              >
                <g
                  id="Strength_Icon"
                  data-name="Strength Icon"
                  transform="translate(0.133 0.125)"
                >
                  <path
                    id="Path_14073"
                    data-name="Path 14073"
                    d="M21.7,25.439l-2.55-1.177c-1.55-.716-3.509.042-4.925,1.722L12,24.768c-.494-.23-1.189.191-1.519.9a1.84,1.84,0,0,0-.166,1.063.863.863,0,0,0,.437.668l2.06,1.129c-.853,2.572-.213,5.145,1.6,5.982l2.549,1.177a3.019,3.019,0,0,0,1.274.276,4.076,4.076,0,0,0,2.069-.621,6.978,6.978,0,0,0,2.673-3.1C24.289,29.424,23.714,26.367,21.7,25.439ZM11.173,26.67a.317.317,0,0,1-.022-.077,1.02,1.02,0,0,1,.1-.564.9.9,0,0,1,.427-.474l2.035,1.113a7.88,7.88,0,0,0-.578,1.035c0,.011-.008.021-.014.032ZM13.9,28.06c1.11-2.4,3.3-3.76,4.894-3.028l.625.289a4.608,4.608,0,0,0-1.064.463,7.423,7.423,0,0,0-3.3,7.142,4.628,4.628,0,0,0,.339,1.11l-.621-.288C13.185,33.013,12.795,30.461,13.9,28.06ZM22.216,31.9a6.136,6.136,0,0,1-2.336,2.725,2.728,2.728,0,0,1-2.557.3,2.73,2.73,0,0,1-1.427-2.145,6.58,6.58,0,0,1,2.9-6.271,3.246,3.246,0,0,1,1.637-.5,2.183,2.183,0,0,1,.918.2C22.935,26.941,23.325,29.493,22.216,31.9Z"
                    transform="translate(-4.493 -12.027)"
                    fill="#53bfd2"
                    stroke="#53bfd2"
                    strokeWidth="0.25"
                  />
                  <path
                    id="Path_14074"
                    data-name="Path 14074"
                    d="M7.037,27.132a2.54,2.54,0,0,1-2.139.086,3.063,3.063,0,0,1-1.5-2.9.423.423,0,0,0-.423-.418H2.973a.423.423,0,0,0-.418.429,5.005,5.005,0,0,0,.424,2.006l-.632-.291A2.732,2.732,0,0,1,.92,23.9a6.137,6.137,0,0,1,.559-3.546,6.133,6.133,0,0,1,2.336-2.725,2.734,2.734,0,0,1,2.557-.3l.026.011.613.282A6.39,6.39,0,0,0,3.26,21.172a7.779,7.779,0,0,0-.554,1.66.423.423,0,0,0,.326.5.433.433,0,0,0,.089.009.423.423,0,0,0,.413-.336,6.968,6.968,0,0,1,.494-1.48c1.11-2.4,3.3-3.763,4.894-3.027a2.774,2.774,0,0,1,1.447,2.265.423.423,0,1,0,.838-.121,3.631,3.631,0,0,0-1.93-2.913L6.728,16.554,6.7,16.542a3.555,3.555,0,0,0-3.316.356A6.979,6.979,0,0,0,.711,20c-1.305,2.83-.731,5.886,1.282,6.816l2.55,1.177a3.01,3.01,0,0,0,1.269.272,3.864,3.864,0,0,0,1.571-.354.424.424,0,0,0-.346-.773Z"
                    transform="translate(-0.011 -8.67)"
                    fill="#53bfd2"
                    stroke="#53bfd2"
                    strokeWidth="0.25"
                  />
                  <path
                    id="Path_14075"
                    data-name="Path 14075"
                    d="M33.011,26.464a.423.423,0,1,0,.01.847h.013a3.078,3.078,0,1,0-2.9-4.3.423.423,0,0,0,.776.339,2.231,2.231,0,1,1,2.1,3.12Z"
                    transform="translate(-13.119 -10.791)"
                    fill="#53bfd2"
                    stroke="#53bfd2"
                    strokeWidth="0.25"
                  />
                  <path
                    id="Path_14076"
                    data-name="Path 14076"
                    d="M36.135,4.889a4.527,4.527,0,0,0-3.831-2.1H26.956a4.546,4.546,0,0,0-4.125,6.457l1.427,3.081a6.674,6.674,0,0,0-.8,1.439.423.423,0,1,0,.786.315,5.831,5.831,0,0,1,.811-1.41l.013-.017a5.732,5.732,0,0,1,1.327-1.23h0s.005,0,.008-.006a5.777,5.777,0,1,1,6.119,9.8h-2.9a.423.423,0,0,0,0,.847h3.007a.422.422,0,0,0,.207-.056,6.6,6.6,0,0,0,2.136-9.628l1.45-3.131a4.528,4.528,0,0,0-.294-4.358Zm-.474,4L34.38,11.657a6.659,6.659,0,0,0-.826-.726L34.7,8.448a2.643,2.643,0,0,0-2.4-3.755h-.53a.423.423,0,1,0,0,.847H32.3a1.8,1.8,0,0,1,1.632,2.553L32.838,10.46a6.615,6.615,0,0,0-6.427-.029L25.328,8.093a1.8,1.8,0,0,1,1.631-2.553h4.766a.423.423,0,0,0,0-.847H26.956a2.645,2.645,0,0,0-2.4,3.756l1.132,2.443a6.57,6.57,0,0,0-.829.721L23.6,8.891a3.7,3.7,0,0,1,3.356-5.255H32.3a3.7,3.7,0,0,1,3.357,5.254Z"
                    transform="translate(-9.769 -2.791)"
                    fill="#53bfd2"
                    stroke="#53bfd2"
                    strokeWidth="0.25"
                  />
                </g>
              </svg>