<svg id="Youtube" xmlns="http://www.w3.org/2000/svg" width="20.802" height="14.63" viewBox="0 0 20.802 14.63">
  <path id="Path_17" data-name="Path 17" d="M422.335,61.534a17.3,17.3,0,0,1,.381,3.124l.038,1.905-.038,1.9a17.5,17.5,0,0,1-.381,3.163,2.677,2.677,0,0,1-.686,1.143,2.635,2.635,0,0,1-1.181.685,27.055,27.055,0,0,1-4.648.382l-3.466.038-3.467-.038a27.055,27.055,0,0,1-4.648-.382,2.635,2.635,0,0,1-1.181-.685,2.678,2.678,0,0,1-.686-1.143,17.508,17.508,0,0,1-.381-3.163l-.038-1.9q0-.838.038-1.905a17.3,17.3,0,0,1,.381-3.124,2.664,2.664,0,0,1,1.867-1.867,27.2,27.2,0,0,1,4.648-.381l3.467-.038,3.466.038a27.2,27.2,0,0,1,4.648.381,2.664,2.664,0,0,1,1.867,1.867Zm-12.116,8.153,5.449-3.124-5.449-3.086Z" transform="translate(-401.952 -59.248)" fill="#bcbcbc"/>
</svg>
