<svg xmlns="http://www.w3.org/2000/svg" width="94.923" height="53.324" viewBox="0 0 94.923 53.324">
  <g id="Yoga_Icon" data-name="Yoga Icon" transform="translate(-209.474 -2281)">
    <path id="Yoga_Icon-2" data-name="Yoga Icon" d="M15.143,45.491H94.357A5.148,5.148,0,0,0,99.5,40.349V27.13a5.148,5.148,0,0,0-5.143-5.143H74.568C74.1,11.753,65.862,10.036,65.776,10.02a1.116,1.116,0,0,0-.209-.02H43.3a1.116,1.116,0,0,0-.209.02c-.086.016-8.327,1.733-8.792,11.968H15.143A5.148,5.148,0,0,0,10,27.13V40.349A5.148,5.148,0,0,0,15.143,45.491ZM39,24.225V43.254H31.746V24.225Zm38.121,0V43.254H69.867V24.225Zm-9.49,19.029H41.236V24.225H67.629ZM97.262,27.13V40.349a2.909,2.909,0,0,1-2.905,2.905h-15V24.225h15A2.909,2.909,0,0,1,97.262,27.13ZM43.418,12.237H65.446c.835.2,6.486,1.853,6.889,9.75H36.53C36.934,14.079,42.6,12.431,43.418,12.237ZM12.237,27.13a2.909,2.909,0,0,1,2.905-2.905H29.508V43.254H15.143a2.909,2.909,0,0,1-2.905-2.905Z" transform="translate(197.614 2291.906) rotate(-12)" fill="#53BFD2"/>
    <rect id="Rectangle_6283" data-name="Rectangle 6283" width="6" height="2" transform="translate(240.864 2313.591) rotate(-11)" fill="#53BFD2"/>
    <rect id="Rectangle_6284" data-name="Rectangle 6284" width="6" height="2" transform="translate(278.864 2313.591) rotate(-11)" fill="#53BFD2"/>
  </g>
</svg>
