<svg xmlns="http://www.w3.org/2000/svg" width="22.558" height="19.947" viewBox="0 0 22.558 19.947">
  <g id="Message_Icon" data-name="Message Icon" transform="translate(-199.825 -551.825)">
    <path id="Path_14358" data-name="Path 14358" d="M207.328,191.141h-8.021a.336.336,0,0,0,0,.651h8.021a.336.336,0,0,0,0-.651Z" transform="translate(10.945 367.859)" fill="#53bfd2" stroke="#53bfd2" stroke-width="0.25"/>
    <path id="Path_14359" data-name="Path 14359" d="M207.328,248.474h-8.021a.336.336,0,0,0,0,.651h8.021a.336.336,0,0,0,0-.651Z" transform="translate(10.945 312.526)" fill="#53bfd2" stroke="#53bfd2" stroke-width="0.25"/>
    <path id="Path_14360" data-name="Path 14360" d="M207.328,305.807h-8.021a.336.336,0,0,0,0,.651h8.021a.336.336,0,0,0,0-.651Z" transform="translate(10.945 257.193)" fill="#53bfd2" stroke="#53bfd2" stroke-width="0.25"/>
    <path id="Path_14361" data-name="Path 14361" d="M153.392,125.549H141a1.894,1.894,0,0,0-1.892,1.892v7.791A1.894,1.894,0,0,0,141,137.124h8.684a.3.3,0,0,1,.237.115l2.8,3.55a.559.559,0,0,0,.441.216.575.575,0,0,0,.189-.032.559.559,0,0,0,.38-.535v-3.347a1.9,1.9,0,0,0,1.546-1.86v-7.791A1.894,1.894,0,0,0,153.392,125.549Zm1.242,9.683a1.246,1.246,0,0,1-1.225,1.241.325.325,0,0,0-.321.325v3.4l-2.653-3.359a.947.947,0,0,0-.747-.362H141a1.243,1.243,0,0,1-1.242-1.242v-7.791A1.243,1.243,0,0,1,141,126.2h12.39a1.243,1.243,0,0,1,1.242,1.242Z" transform="translate(66.924 430.591)" fill="#161616" stroke="#161616" stroke-width="0.35"/>
    <path id="Path_14362" data-name="Path 14362" d="M4.793,39.629a.867.867,0,0,0-.561.323L2,42.781V39.945a.325.325,0,0,0-.321-.325A1.042,1.042,0,0,1,.651,38.582V31.8a1.04,1.04,0,0,1,1.039-1.039H12.475A1.04,1.04,0,0,1,13.514,31.8v1.255a.325.325,0,1,0,.651,0V31.8a1.691,1.691,0,0,0-1.689-1.689H1.689A1.691,1.691,0,0,0,0,31.8v6.782a1.7,1.7,0,0,0,1.346,1.654v2.879a.529.529,0,0,0,.359.505.545.545,0,0,0,.179.031.528.528,0,0,0,.416-.2l2.441-3.091a.22.22,0,0,1,.142-.082.325.325,0,0,0-.091-.644Z" transform="translate(200 521.89)" fill="#161616" stroke="#161616" stroke-width="0.35"/>
  </g>
</svg>
