<svg xmlns="http://www.w3.org/2000/svg" width="17.025" height="18.449" viewBox="0 0 17.025 18.449">
  <g id="Notifications_Icon" data-name="Notifications Icon" transform="translate(-0.875 0.075)">
    <path id="Path_14363" data-name="Path 14363" d="M21.581,8.331A.381.381,0,0,1,21.2,7.95a8.33,8.33,0,0,0-2.457-5.931.381.381,0,0,1,.539-.539,9.086,9.086,0,0,1,2.68,6.47A.381.381,0,0,1,21.581,8.331Z" transform="translate(-4.188 -0.325)" fill="#53bfd2" stroke="#53bfd2" stroke-width="0.25"/>
    <path id="Path_14364" data-name="Path 14364" d="M1.381,8.331A.381.381,0,0,1,1,7.95,9.086,9.086,0,0,1,3.68,1.48a.381.381,0,1,1,.539.539A8.33,8.33,0,0,0,1.762,7.95a.381.381,0,0,1-.381.381Z" transform="translate(0 -0.325)" fill="#53bfd2" stroke="#53bfd2" stroke-width="0.25"/>
    <path id="Path_14365" data-name="Path 14365" d="M12.669,3.187a.381.381,0,0,1-.381-.381V1.525a.762.762,0,0,0-1.525,0V2.806a.381.381,0,1,1-.762,0V1.525a1.525,1.525,0,0,1,3.05,0V2.806A.381.381,0,0,1,12.669,3.187Z" transform="translate(-2.138)" fill="#fff" stroke="#fff" stroke-width="0.15"/>
    <path id="Path_14366" data-name="Path 14366" d="M11.169,23.05A2.672,2.672,0,0,1,8.5,20.381a.381.381,0,1,1,.762,0,1.906,1.906,0,1,0,3.812,0,.381.381,0,0,1,.762,0A2.672,2.672,0,0,1,11.169,23.05Z" transform="translate(-1.781 -4.75)" fill="#161616" stroke="#161616" stroke-width="0.15"/>
    <path id="Path_14367" data-name="Path 14367" d="M16.106,16.725H3.144A1.144,1.144,0,0,1,2.4,14.712a5.3,5.3,0,0,0,1.887-4.058V8.337a5.337,5.337,0,1,1,10.675,0v2.316a5.3,5.3,0,0,0,1.881,4.053,1.144,1.144,0,0,1-.737,2.018ZM9.625,3.762A4.579,4.579,0,0,0,5.05,8.337v2.316A6.057,6.057,0,0,1,2.9,15.289a.381.381,0,0,0,.245.673H16.106a.381.381,0,0,0,.248-.671A6.062,6.062,0,0,1,14.2,10.654V8.337A4.579,4.579,0,0,0,9.625,3.762Z" transform="translate(-0.237 -0.712)" fill="#161616" stroke="#161616" stroke-width="0.35"/>
  </g>
</svg>
