<svg xmlns="http://www.w3.org/2000/svg" width="19.403" height="19.409" viewBox="0 0 19.403 19.409">
  <g id="Settings_Icon" data-name="Settings Icon" transform="translate(-201.912 -695.911)">
    <path id="Icon_ionic-ios-settings" data-name="Icon ionic-ios-settings" d="M21.222,13.613a2.345,2.345,0,0,1,1.5-2.188A9.3,9.3,0,0,0,21.6,8.715a2.377,2.377,0,0,1-.954.2,2.34,2.34,0,0,1-2.141-3.294A9.269,9.269,0,0,0,15.8,4.5a2.343,2.343,0,0,1-4.376,0,9.3,9.3,0,0,0-2.71,1.125A2.34,2.34,0,0,1,6.574,8.919a2.3,2.3,0,0,1-.954-.2A9.5,9.5,0,0,0,4.5,11.43a2.345,2.345,0,0,1,0,4.376,9.3,9.3,0,0,0,1.125,2.71,2.341,2.341,0,0,1,3.09,3.09,9.351,9.351,0,0,0,2.71,1.125,2.339,2.339,0,0,1,4.367,0,9.3,9.3,0,0,0,2.71-1.125,2.343,2.343,0,0,1,3.09-3.09,9.351,9.351,0,0,0,1.125-2.71A2.357,2.357,0,0,1,21.222,13.613Zm-7.566,3.792a3.8,3.8,0,1,1,3.8-3.8A3.8,3.8,0,0,1,13.656,17.406Z" transform="translate(198 692)" fill="none" stroke="#161616" stroke-width="1"/>
    <path id="Icon_ionic-ios-settings-2" data-name="Icon ionic-ios-settings" d="M13.656,17.406a3.8,3.8,0,1,1,3.8-3.8A3.8,3.8,0,0,1,13.656,17.406Z" transform="translate(198 692)" fill="none" stroke="#53bfd2" stroke-width="1"/>
  </g>
</svg>
