<svg xmlns="http://www.w3.org/2000/svg" width="125" height="125" viewBox="0 0 125 125">
  <g id="Icon_1" data-name="Icon 1" transform="translate(-200 -3150)">
    <circle id="Ellipse_2840" data-name="Ellipse 2840" cx="62.5" cy="62.5" r="62.5" transform="translate(200 3150)" fill="#f8f8f8"/>
    <path id="Path_14220" data-name="Path 14220" d="M-180.563,264.167c-3.533.9-5.258,4.19-4.929,9.119l2.711-.164c-.164-2.054.082-5.587,2.875-6.244,9.2-2.3,12.241-5.5,13.227-7.558a11.818,11.818,0,0,0,3.04.411h.329a11.129,11.129,0,0,0,3.368-.493c.986,1.972,3.943,5.258,13.309,7.64,2.875.739,3.04,4.272,2.875,6.326l2.711.164c.329-4.929-1.479-8.216-4.929-9.119-8.873-2.218-11.009-5.012-11.5-6.162a7.819,7.819,0,0,0,1.725-1.561c4.19-4.683,3.451-12.734,3.368-13.474-.411-9.2-7.148-11.42-11.091-11.255-3.943-.164-10.68,2.054-11.091,11.255-.082.739-.739,8.791,3.368,13.474a10.4,10.4,0,0,0,2.054,1.725C-169.8,259.4-172.184,262.031-180.563,264.167Zm8.708-20.95v-.082c.411-8.051,6.326-8.708,8.051-8.708h.329c1.314-.082,7.969.082,8.38,8.708v.082c0,.082.739,7.476-2.711,11.42a7.409,7.409,0,0,1-5.669,2.382h-.164a7.254,7.254,0,0,1-5.669-2.382C-172.594,250.776-171.855,243.3-171.855,243.218Zm36.313,13.966c3.122-3.533,2.629-9.448,2.547-10.023-.329-6.983-5.422-8.626-8.462-8.544-3.04-.082-8.133,1.561-8.462,8.544-.082.657-.575,6.572,2.547,10.023a15.772,15.772,0,0,0,1.232,1.15,7.448,7.448,0,0,1-2.136,1.725l1.314,2.382a8.293,8.293,0,0,0,3.368-3.04,8.1,8.1,0,0,0,1.972.246h.329a9,9,0,0,0,2.218-.329c.9,1.561,3.286,3.861,9.777,5.422,1.807.493,1.89,2.793,1.807,4.19l2.711.164c.246-3.779-1.15-6.326-3.861-7.065-5.751-1.4-7.476-3.2-7.969-4.026A2,2,0,0,0-135.542,257.184Zm-5.915-.246h0a4.681,4.681,0,0,1-3.861-1.561c-2.382-2.711-1.89-7.969-1.89-7.969v-.082c.246-5.587,4.272-6,5.5-6h.246c.9,0,5.422.082,5.669,6v.082c0,.082.493,5.258-1.89,7.969A4.512,4.512,0,0,1-141.457,256.938Zm-49.786.329a6.088,6.088,0,0,0,1.068.986c-.493.822-2.3,2.547-7.969,4.026-2.711.657-4.108,3.286-3.861,6.983l2.711-.164c-.082-1.4,0-3.7,1.807-4.19,6.572-1.643,8.955-3.861,9.777-5.422a9,9,0,0,0,2.218.329h.329a7.189,7.189,0,0,0,1.972-.246,8.294,8.294,0,0,0,3.368,3.04l1.314-2.383a5.594,5.594,0,0,1-2.136-1.725,5.406,5.406,0,0,0,1.232-1.15c3.122-3.533,2.629-9.448,2.547-10.023-.329-6.983-5.422-8.626-8.462-8.544-3.04-.082-8.133,1.561-8.462,8.544C-193.873,247.819-194.366,253.734-191.244,257.266Zm.164-9.859v-.082c.246-5.587,4.272-6,5.5-6h.246c.9,0,5.422.082,5.669,6v.082c0,.082.493,5.258-1.89,7.969a4.789,4.789,0,0,1-3.861,1.561h0a4.9,4.9,0,0,1-3.861-1.561C-191.572,252.748-191.079,247.49-191.079,247.408Z" transform="translate(426.034 2960.21)" fill="#2c2c2c"/>
    <g id="Ellipse_2851" data-name="Ellipse 2851" transform="translate(276 3150)" fill="none" stroke="#53bfd2" stroke-width="2">
      <circle cx="19" cy="19" r="19" stroke="none"/>
      <circle cx="19" cy="19" r="18" fill="none"/>
    </g>
    <path id="Path_14216" data-name="Path 14216" d="M35.719,27a.863.863,0,0,0-.674.4l-3.262,5.3L25.69,33.911a.863.863,0,0,0-.431,1.456l4.448,4.448L28.9,45.867a.863.863,0,0,0,1.186.9l5.7-2.44,5.7,2.44a.863.863,0,0,0,1.186-.9l-.4-3.06a.864.864,0,1,0-1.712.229l.216,1.55-4.65-1.995a.863.863,0,0,0-.674,0L30.8,44.586l.661-4.974a.863.863,0,0,0-.243-.714l-3.6-3.6,4.893-.984a.863.863,0,0,0,.566-.391l2.709-4.408L38.5,33.924a.863.863,0,0,0,.566.391l4.893.984-3.6,3.6a.863.863,0,1,0,1.213,1.213l4.745-4.745a.863.863,0,0,0-.431-1.456L39.79,32.7l-3.262-5.3A.863.863,0,0,0,35.719,27Z" transform="translate(259.239 3130.674)" fill="#53bfd2"/>
  </g>
</svg>
