<svg xmlns="http://www.w3.org/2000/svg" width="125" height="125" viewBox="0 0 125 125">
  <g id="Icon_6" data-name="Icon 6" transform="translate(-1301 -1850)">
    <circle id="Ellipse_2840" data-name="Ellipse 2840" cx="62.5" cy="62.5" r="62.5" transform="translate(1301 1850)" fill="#f8f8f8"/>
    <path id="Path_14217" data-name="Path 14217" d="M15.226,23.261a1.225,1.225,0,0,1-.922-2.033l8.582-9.808a1.226,1.226,0,0,1,1.846,1.615L16.15,22.842A1.228,1.228,0,0,1,15.226,23.261Z" transform="translate(1379.032 1852.487)" fill="#53bfd2"/>
    <path id="Path_14218" data-name="Path 14218" d="M16.13,22.356A1.223,1.223,0,0,1,15.263,22l-4.9-4.9a1.226,1.226,0,1,1,1.734-1.734l4.9,4.9a1.226,1.226,0,0,1-.867,2.093Z" transform="translate(1378.128 1853.391)" fill="#53bfd2"/>
    <path id="Path_14219" data-name="Path 14219" d="M19.391,39.234A4.432,4.432,0,0,1,15.5,36.9a1.294,1.294,0,0,1-.108-.178c-.243-.49-.622-1.1-1.045-1.242a2.182,2.182,0,0,0-1.514.371,1.193,1.193,0,0,1-.2.083,4.369,4.369,0,0,1-4.489-.463,4.58,4.58,0,0,1-1.791-4.192,1.165,1.165,0,0,1,.013-.2c.246-1.6-.067-2.051-1.6-2.3a1.252,1.252,0,0,1-.215-.055,4.481,4.481,0,0,1-3.342-3.058,4.613,4.613,0,0,1,.948-4.455,1.163,1.163,0,0,1,.135-.167c1.1-1.135,1.1-1.724,0-2.859a1.121,1.121,0,0,1-.137-.169,4.614,4.614,0,0,1-.945-4.453A4.48,4.48,0,0,1,4.56,10.507a1.1,1.1,0,0,1,.21-.054c1.53-.25,1.843-.7,1.6-2.3a1.458,1.458,0,0,1-.012-.207A4.58,4.58,0,0,1,8.147,3.757a4.371,4.371,0,0,1,4.5-.46,1.336,1.336,0,0,1,.195.081,2.182,2.182,0,0,0,1.514.371c.423-.137.8-.75,1.045-1.242a1.329,1.329,0,0,1,.109-.18,4.408,4.408,0,0,1,7.777.01,1.187,1.187,0,0,1,.1.17c.244.49.623,1.1,1.047,1.242a2.186,2.186,0,0,0,1.514-.371,1.2,1.2,0,0,1,.2-.082,4.37,4.37,0,0,1,4.492.46,4.587,4.587,0,0,1,1.792,4.188,1.2,1.2,0,0,1-.015.208c-.246,1.6.067,2.051,1.6,2.3a1.264,1.264,0,0,1,.213.054,4.481,4.481,0,0,1,3.343,3.057,4.618,4.618,0,0,1-.949,4.458,1.205,1.205,0,0,1-.134.164c-1.1,1.135-1.1,1.724,0,2.859a1.348,1.348,0,0,1,.136.167,4.616,4.616,0,0,1,.947,4.455,4.478,4.478,0,0,1-3.346,3.058,1.088,1.088,0,0,1-.211.055c-1.53.248-1.843.7-1.6,2.3a1.248,1.248,0,0,1,.015.213,4.575,4.575,0,0,1-1.792,4.183,4.364,4.364,0,0,1-4.492.462,1.316,1.316,0,0,1-.2-.082,2.191,2.191,0,0,0-1.514-.371c-.424.136-.8.75-1.047,1.242a1.189,1.189,0,0,1-.1.174A4.438,4.438,0,0,1,19.391,39.234ZM17.5,35.453a1.251,1.251,0,0,1,.1.17,1.963,1.963,0,0,0,3.581,0,1.2,1.2,0,0,1,.1-.167,4.3,4.3,0,0,1,2.392-2.3,4.2,4.2,0,0,1,3.22.434,1.2,1.2,0,0,1,.188.08,1.944,1.944,0,0,0,2.087-.154,2.142,2.142,0,0,0,.807-2.067,1.145,1.145,0,0,1-.015-.2c-.351-2.716.807-4.344,3.445-4.845a1.176,1.176,0,0,1,.2-.049,2.039,2.039,0,0,0,1.623-1.417,2.167,2.167,0,0,0-.519-2.171,1.143,1.143,0,0,1-.13-.158c-1.83-1.981-1.829-3.988,0-5.97a1.089,1.089,0,0,1,.128-.156,2.169,2.169,0,0,0,.519-2.173A2.035,2.035,0,0,0,33.6,12.886a1.2,1.2,0,0,1-.2-.05c-2.635-.5-3.792-2.132-3.442-4.849a1.353,1.353,0,0,1,.015-.2,2.144,2.144,0,0,0-.807-2.068,1.939,1.939,0,0,0-2.087-.153,1.248,1.248,0,0,1-.188.08,4.214,4.214,0,0,1-3.22.434,4.289,4.289,0,0,1-2.394-2.3,1.27,1.27,0,0,1-.1-.163,1.963,1.963,0,0,0-3.581,0,1.368,1.368,0,0,1-.1.173,4.3,4.3,0,0,1-2.39,2.3,4.212,4.212,0,0,1-3.222-.436,1.351,1.351,0,0,1-.185-.078,1.944,1.944,0,0,0-2.087.153,2.146,2.146,0,0,0-.808,2.068,1.325,1.325,0,0,1,.015.2c.351,2.717-.807,4.348-3.444,4.85a1.206,1.206,0,0,1-.2.05A2.04,2.04,0,0,0,3.553,14.3a2.165,2.165,0,0,0,.52,2.171,1.182,1.182,0,0,1,.132.161c1.827,1.98,1.827,3.985,0,5.965a1.061,1.061,0,0,1-.13.158,2.168,2.168,0,0,0-.52,2.171,2.039,2.039,0,0,0,1.625,1.419,1.11,1.11,0,0,1,.2.05c2.636.5,3.793,2.132,3.44,4.851a1.184,1.184,0,0,1-.015.2,2.145,2.145,0,0,0,.808,2.067,1.938,1.938,0,0,0,2.088.153,1.236,1.236,0,0,1,.191-.08,4.2,4.2,0,0,1,3.216-.434A4.291,4.291,0,0,1,17.5,35.453Z" transform="translate(1376.093 1850)" fill="#53bfd2"/>
    <path id="Path_14368" data-name="Path 14368" d="M56.7,13.656a.987.987,0,0,0-1.361-.382L48.469,17.26a.987.987,0,0,0-.369,1.329l.193.351L44.5,20.231a4,4,0,0,0-1.687-.947L28.4,15.45a14.016,14.016,0,0,0-7.011-.048l-5.269,1.323L8.462,14.588a.977.977,0,0,0-.763.1.987.987,0,0,0-.46.617L2.029,36.514a.986.986,0,0,0,.708,1.19l7.52,1.969,6.324,5.037a3.955,3.955,0,0,0,5.76,4.317l.644-.351a3.92,3.92,0,0,0,.435,1.911l.108.21a3.971,3.971,0,0,0,5.457,1.646l.392-.219a3.962,3.962,0,0,0,2.862,3.889,3.939,3.939,0,0,0,3.032-.343L51.7,46.636a14.875,14.875,0,0,0,6.352-7.354l.632-1.536a.97.97,0,0,0,.439.279,1.02,1.02,0,0,0,.257.034.986.986,0,0,0,.509-.142l6.75-4.062A.986.986,0,0,0,67,32.538ZM10,37.566,4.176,36.041,8.912,16.762l6,1.675Zm40.679,7.379-16.367,9.1a2,2,0,0,1-1.941-3.488l5.343-2.976a.987.987,0,1,0-.96-1.725l-8.729,4.862a1.995,1.995,0,0,1-2.743-.825l-.108-.21a2.007,2.007,0,0,1,.573-2.511l9.816-5.343,0,0a.986.986,0,0,0-.942-1.733l-9.568,5.185a4.019,4.019,0,0,0-.357.219l-3.3,1.8a2,2,0,0,1-2.712-.807,2,2,0,0,1,.809-2.7l13.254-7.147a.986.986,0,0,0-.926-1.742l-9.829,5.147a1.986,1.986,0,0,1-2.59-.7,1.975,1.975,0,0,1,.754-2.8l4.3-2.252a.986.986,0,0,0-.915-1.748l-4.3,2.252a3.948,3.948,0,0,0-1.509,5.6,3.916,3.916,0,0,0,1.412,1.338l-.588.317a3.919,3.919,0,0,0-1.069.863L11.824,38.4l5.092-19.839,4.953-1.243a12.035,12.035,0,0,1,6.024.042l14.415,3.834a2.082,2.082,0,0,1,1.5,2.4,2.077,2.077,0,0,1-2.61,1.6l-8.354-2.39a.974.974,0,0,0-.838.143.993.993,0,0,0-.418.743A5.658,5.658,0,0,1,29.4,27.543c-1.853,1.33-4.678,1.506-8.4.528a.986.986,0,1,0-.5,1.908,18.778,18.778,0,0,0,4.744.684,8.876,8.876,0,0,0,5.34-1.538A7.407,7.407,0,0,0,33.347,25l7.311,2.092a4.048,4.048,0,0,0,5.09-3.119,4,4,0,0,0-.144-2.035l3.653-1.244,8.181,14.892-1.211,2.944A12.93,12.93,0,0,1,50.679,44.946ZM59.75,35.7,50.293,18.483l5.157-2.994,9.361,17.163Z" transform="translate(1329.043 1881.861)" fill="#2c2c2c"/>
  </g>
</svg>
