<svg xmlns="http://www.w3.org/2000/svg" width="125" height="125" viewBox="0 0 125 125">
  <g id="Icon_3" data-name="Icon 3" transform="translate(23.001 20.5)">
    <circle id="Ellipse_2841" data-name="Ellipse 2841" cx="62.5" cy="62.5" r="62.5" transform="translate(-23.001 -20.5)" fill="#f8f8f8"/>
    <path id="Path_14369" data-name="Path 14369" d="M511.032,461.871a1.626,1.626,0,1,1-1.245,3l-.06-.026a30.882,30.882,0,1,0,18.336,25.01,1.626,1.626,0,1,1,3.222-.44c0,.03.007.061.01.091a34.144,34.144,0,1,1-20.263-27.64Zm-14.053,18.3a1.626,1.626,0,1,1,3.252,0v13.01a1.626,1.626,0,0,1-.475,1.151l-6.5,6.5a1.628,1.628,0,0,1-2.3-2.3l6.028-6.025Z" transform="translate(-458.196 -451.5)" fill="#2c2c2c"/>
    <path id="Path_14370" data-name="Path 14370" d="M548.334,471.089a1.255,1.255,0,0,0-1.254,1.254v6.271h-6.271a1.254,1.254,0,1,0,0,2.508h6.271v6.271a1.254,1.254,0,0,0,2.509,0v-6.271h6.271a1.254,1.254,0,1,0,0-2.508h-6.271v-6.271A1.254,1.254,0,0,0,548.334,471.089Z" transform="translate(-485.085 -455.757)" fill="#53bfd2"/>
  </g>
</svg>
