<svg xmlns="http://www.w3.org/2000/svg" width="208" height="274.737" viewBox="0 0 208 274.737">
  <path id="M_Watermark" data-name="M Watermark" d="M478.184,252.791H439.6l2.865,15.974c.363,2.538.75,5,1.125,7.422.809,5.211,1.578,10.135,2.049,15.016.273,2.831.688,5.635,1.1,8.438,1.07,7.187,2.08,13.972.388,20.781-5.831,23.377-11.254,47.237-16.508,70.305q-3.358,14.768-6.752,29.525-3.418,14.772-6.9,29.526L353.005,252.454H313.642l14.788,45.6q10.067,31.1,20,62.257a14.192,14.192,0,0,1,.657,6.615l-.583,2.68c-7.211,33.309-14.667,67.753-22.619,101.46-2.514,10.664-5.646,21.007-8.96,31.958-1.5,4.949-3,9.913-4.443,14.914l-2.492,8.618h39.859l.347-6.383a786.867,786.867,0,0,1,14.174-110.916l38.2,117.939,17.968-.9,36.523-156.184,22.644,156.261h38.281Z" transform="translate(-309.987 -252.454)" fill="#2c7683" opacity="0.35" style="mix-blend-mode: multiply;isolation: isolate"/>
</svg>
